<mxfile host="Electron" modified="2023-12-12T04:03:46.042Z" agent="Mozilla/5.0 (Windows NT 10.0; Win64; x64) AppleWebKit/537.36 (KHTML, like Gecko) draw.io/22.0.3 Chrome/114.0.5735.289 Electron/25.8.4 Safari/537.36" etag="x3c9Xl0A-vyc0Riyxim1" version="22.0.3" type="device">
  <diagram name="Страница — 1" id="DY7rStQOs1ASNpuyuNsX">
    <mxGraphModel dx="3195" dy="1369" grid="1" gridSize="10" guides="1" tooltips="1" connect="1" arrows="1" fold="1" page="1" pageScale="1" pageWidth="1169" pageHeight="827" math="0" shadow="0">
      <root>
        <mxCell id="0" />
        <mxCell id="1" parent="0" />
        <mxCell id="0Q9RwSlWG3deikkum8Ub-8" value="" style="shape=image;verticalLabelPosition=bottom;labelBackgroundColor=default;verticalAlign=top;aspect=fixed;imageAspect=0;image=data:image/jpeg,/9j/4AAQSkZJRgABAQEASABIAAD/2wBDAAMCAgMCAgMDAwMEAwMEBQgFBQQEBQoHBwYIDAoMDAsKCwsNDhIQDQ4RDgsLEBYQERMUFRUVDA8XGBYUGBIUFRT/2wBDAQMEBAUEBQkFBQkUDQsNFBQUFBQUFBQUFBQUFBQUFBQUFBQUFBQUFBQUFBQUFBQUFBQUFBQUFBQUFBQUFBQUFBT/wAARCAMABYADASIAAhEBAxEB/8QAHwAAAQUBAQEBAQEAAAAAAAAAAAECAwQFBgcICQoL/8QAtRAAAgEDAwIEAwUFBAQAAAF9AQIDAAQRBRIhMUEGE1FhByJxFDKBkaEII0KxwRVS0fAkM2JyggkKFhcYGRolJicoKSo0NTY3ODk6Q0RFRkdISUpTVFVWV1hZWmNkZWZnaGlqc3R1dnd4eXqDhIWGh4iJipKTlJWWl5iZmqKjpKWmp6ipqrKztLW2t7i5usLDxMXGx8jJytLT1NXW19jZ2uHi4+Tl5ufo6erx8vP09fb3+Pn6/8QAHwEAAwEBAQEBAQEBAQAAAAAAAAECAwQFBgcICQoL/8QAtREAAgECBAQDBAcFBAQAAQJ3AAECAxEEBSExBhJBUQdhcRMiMoEIFEKRobHBCSMzUvAVYnLRChYkNOEl8RcYGRomJygpKjU2Nzg5OkNERUZHSElKU1RVVldYWVpjZGVmZ2hpanN0dXZ3eHl6goOEhYaHiImKkpOUlZaXmJmaoqOkpaanqKmqsrO0tba3uLm6wsPExcbHyMnK0tPU1dbX2Nna4uPk5ebn6Onq8vP09fb3+Pn6/9oADAMBAAIRAxEAPwD86qKKdXsHIFPjop8dABTqbTqCwp/l0IlPoAESneXTfLp3l0AEdPoooICn07y6PLoLCOn0R0+rIGU+inUAFPplPjoAKfTKfVAEdO8uiOn0AFP8uiigA8umeXUtFSBFRUvl0eXVAN8uneXR5dPoAZ5dCJT6KADy6KfR5dADPLo8un0UAM8uin0UAM8ujy6fRQAyin+XTvLqQIvLo8un06gCLy6I6fJRQAUUSUUAFFOooAbR5dO8un1QEVO8ujy6fQAzy6f5dFPqQIaf5dPooAPLo8unR0+oAPLp6JRHVq2h3tQZFiws9/zba+4P2Lf2Z/7aZPFmuWypaL81qksVeO/stfAS5+LXjS382Jv7Hs23Ty/+yV+qGg6PbeHtLt9PtIlht7ddqolWcWLrcseUtWdjBp9ukEESpEvyqiVYptMd9tQfOyB3qjf3kFnbvNPKsMS/Mzv8tY/jPxzpXgfSJdQ1W5W2t1/v/wAVfAv7RX7ZEusfaILO7XTdMh+Vf3qL83+2/wDE3+ytbxjGPvSN6OGliPhPa/2gf2kNI0/T7u0s77ZFErNLd/wKv+xXwv8Asc69rWsfHHxH4jtLGB4r2KVZ5nl2fZV81G83/a/gX/gdeK+P/jQPE++0gaebzJdrzbtm5P8AZr7X+C+paBoPgB9R0prZPNgiT7Dbtv8AsES79iO/3mZ2eWV2b5t0u37iJXZh5RxNaPL8MT16lP6rR5Y/aPVdS1uK2kf565fUvFUSfLvrz/W/GzzSvtb/AMerkr/xO7t96vo6laMDyKeGkel3PipHf71V017c33q8s/4SF/71XbbW23fer57F1+c92hR5D1a21X/aroNN1P8A2q8n03W9+z5q6rTdW+5+dfN1D2Inqdjf/dro7C8rzTTdS+b71dXYX+/+KuORtE9AsLyuis7muC028+aulsLz5Kk1Ozs5q3baauPs7nDV0FnN9yg3idHbPWhDWPbTVpwvQM0I6sR1UhercdUBR8Q+FdK8YaTcaZq9jbarplwu1rS7i81Gr8//ANpP9gm58Kpd+Ifh3ayX+m/M0+jbvNuYP9uL+KVf9n73+/X6J+ZQ0Kzb3/j/AL9bQlyGEqfOfg5c2ex3+X/4uqrw/wCzX6dftXfsYWnxLiu/E/gy2gsPGHzS3VinyRap/f8A92X/AGv4v4/71fm7rGk3Om3lxaXdtJbXdvK0UtvKux4mT/lk6f3vv13xqcxwSjyGJ5dM8urDJ89N8utiSHy6fT6KAGeXR5dFPoAPLooooAPLo8uiigAop1FAEVP8uneXT6AIvLp1P8umUAHl0eXT6KADy6KfRQAyiin0FjPLo8unolO8ugBvl07y6f5dMjoAPLo8un0eXUAM8un0eXT/AC6AGUU/y6PLoIGeXT/Lo8uneXUgN8umeXT/AC6KAGeXR5dP8uhEqgGeXR5dPpyJQBFRUvl03y6CyGpqZ5dPoAZRT/Lo8ugCHy6PLqby6PLoAh8uipvLpnl0AMp/l0/y6KAIfLo8upvLo8upAZ5dHl1LRQUN8umOlWKY6UAV/Lp6JUvl0eXQBFJR5dP8ujy6AIfLo8upvLo8uoAh8um+XVjy6Z5dAFfy6PLqx5dM8ugCv5dHl1N5dDpQBXko8upXSjy6AK9Hl1L5dN8ugCHy6PLqby6PLoAr+XR5dWPLplAEXl0eXUvl0UAReXTPLqWigCKSovLqWSmVYHD0+inx1qZBTqKKACn0eXT6AHUUUUED6fRHRQWM8un+XRUtBAeXR5dPp3l1YDUSnUeXRQA/y6ZT6KACOn0UUAORKf5dEdPqgGU+Ojy6dQAUU+igBiJT/Lojp9BkHl0U6m0AFHl0U6g1G+XRTqKAIv4qfTvLooAKf5dHl0+gCGin+XT/AC6AIfLoqby6ZQAyn0UUAM8un0UypAfTPLp8dPoAhpvl07+Kn+XVAFM8upvLo8ugA8ujy6PLo8ugBnl0U/y6KACneXR5dTUAM8ujy6fRUgMjp9CJUqJQAQw76734Y+ANR8f+KNP0jTIGmluG2/J/AtcrYWbTSpEqb3Ztuz+839yv04/Yt/Z4X4c+GYvEerwf8Tu9Xcm//lgtQctWpyR5j2D4LfCfTvg/4KstIs4l+0bd11Kn/LVq9AopjvQfMVqvPLmB321znjPxZY+DNDu9T1CVYbe3Xd97Zu/2K1r68W3V2Zq/NT9uz9pqbXNWi8MeHrn737q12Ns3f35v93/4n/Zetox5fekRQpyxFTliedftXftbXPjDWLjyp2e3gdoYLdG+Vm/i/wCAp/49v/39nknwj/Zr8X/tBSf8JLr+of2H4Xw2/VrtfMbanVIo/wD9lf8A0GsP4G+Arb4y/GDSdL1RpP8AhHLWVfP+bY7xL/6CzM3/AI//ALNfUP7RXxsazlt/CXhVlsNMt2W1tYkVIk3J+6/75q6NP28vaVPhPpalSWH5aFE5+28DfB/4awvaaR4a/tu4+42reIZdzN/uRfd/8crl/FVzbX9u99oa22lXFu3y3GmL5Tr/AL6b9rL/AL3/AH1XivjPxhqej6zLJDqC39l8v77c7+a38X3/AJqu2fiSXUksp7HzEvbiVYYvKb52Z/vpXZHEUVzRhEj6vU+Kcj0DRPGz6x5ttc7YdVt/9bEn3JV/vpVibUt9YXxK8Bt4b8W3tjBqdo97YT7Yr6x3+Vu/uP8A7Pz/APof9+syw8Q/2lvWWL7Ndw/LLb/+zp/stVxlz+7Irl/lOlfUv9qrdtrGz+KuXe5+WmfbNjVzTiXGR6XpusfP96uw0rWPufNXi9hqvz/ers9E1j7nzV5VWJ3wke0aXqv+1XW6bqfyJ81eRaXqv+1Xa6VqX3K4JHSeq6bqX3Pmrq9Nv/uV5Zpupfc+auu03UPkT565pFnpVhefNXR2F5vrzzTb/wCeuo028/2qk6YnfWdzWxZvXI2Fz9yugs5t61Zob0L1djrMtnrQheqLLdPqGOpo6CA8lXff/H/fr5b/AGxP2TYfi5ptx4s8K20cXjW1i/0m3Vdn9qRL/wC1f7jf8B/u19TU9U3sn9/+/VxlyGco8x+EV5YPZyyxSxMkqttZHX50b+5We6bGr9Df26v2XVvIr34l+F7NUuFXztdsbdfvL/z+on+z/F/31/fr8/7m22NXpU5c55so8hmeXTatOlRVsSRUU7y6PLoAKfR5dFADPLo8un0UAHl0yn0UAMp6JRT6ADy6Z5dPjokoAKd5dEdFADaKlo8ugCLy6d5dP8ujy6AGR0+n+XR5dABTI6l8ujy6Cxvl07y6KfHUAMkop7pR5dBAUU+meXQAUU/y6PLoLIaPLqby6PLoAZRUvl0eXQQReXR5dPoqQGUU/wAujy6CyHy6PLqwiUeXQBF5dCJUvl02OgA8umeXUtHl0AV/Lo8urHl0eXVAReXR5dS+XR5dSBF5dHl0+SigBnl0eXT6ciUFDUSh0qXy6KgCv5dHl1L5dHl0ARbPkplWPLpvl0AQ0VN5dM8ugBlElTeXR5dAFejy6l8ujy6AIvLpnl1Y8ujy6AK/l0zy6seXR5dAFXy6PLqx5dHl0AV/Lpnl1b8uoXSgsi8umeXVjy6a6UEFfy6d5dP8ujy6AK7pR5dSulDpQBXdKi8urElHl0AcF5dHl06On+XXQc4zy6fRT6Cx1EdFFAD6fRHTvLoAb5dOp/l0eXQAyn0eXUsdWQFPoooAKf5dFOoAiqXy6PLp9UAzy6f5dFPoAKKKd5dABRT/AC6PLoAKf5dFFABTqbTqADy6PLp9FBkMop/l0+g1GR0U+jy6ACOmeXUqJT/LoMiKjy6d5dP8ug1IvLp0dP8ALo8ugBlNkqWSjy6AIvLp3l0+ipAio8unOlFADfLplS0UANop3l0eXVAEdFFFABT6KKACjy6fRQAUUUUAOjoojp9SAR1YhSokSuy+FfgO++JfjTTPD2nIzy3Uqozou/av8b0Gcj6I/Yh/Z7fx54j/AOEq1e236FprfKjr8k9x/wDEp96v0oRPJt0iiVURVr5M+IH7VHw0/Y98F6Z4Q0xf7e1uwg8pNMsX3bW/jeV/4f8A0Kvk74g/tc/tE/HSJ28J+Hdd03R52+X+xNMldNv+1Ls/z/do5WeVUjLEH6ieIPHnh7wrvXV/EOl6bKv8F3eRRP8A+PvXnOvftXfDTRF/f+KrR/73kq7f+PbNv/j9fkF4w+G/x0ubiWXWrHXUSWTc0Ms/lI3/AADcteO614P1zSZX/tKznhl/6a/x0Sl7P7JMcupz+0fp1+0x/wAFBPCcvhe70zwrqf2yWVGSWVPlf/cXb937/wDF/cr83b/xZceLvEGq6xfTr9qmiZvut8qfxbf+A/L/AMDasnw/4atdTvPL1a9k0e1Zf9d5H2h93+5uSvWPAv7P2i+KPGlvoMWpa9f3ThZWS30eKD5Nm7fue4+7/wAB/hqJSqV/hj7p6VChRwceUs/Cu5fww9rfW0qpqG77Vs/2fkb/ANBqx8QvP8QptglX+01na4gd/k8+J/vpv/vK38P+3/uVwPxd8GeJfgz8Q7jRtTupftdrtltbhG+WWL+B0/4DWzp3jiPxJaFLpFFyxwYTF+6lX+8lXTqf8uDWUP8Al6cZc+A9XRXd7OS2t1Vdz3e2L/0P71ep+BdNGg2drc3H3LX5rVHVkeWT5/8ASE/uqn8NR6Xf2NtF/o1jaQ3G7d5qQJv/APsammvJJmd2bfurqoYeMZc0jGpUlP3RlzeM8rt9ys28XfseLbDcRfdl/wDZH/2asSVXkrokREdbakzo7eVslT5Whf8Ah/2Kmd6yZt0Mv2mJd7qvzIn/AC1X/wCKSraTLNEjI29P4akC2lz5L10Gj6r86fNXHu/yU6zvGhlT5q5akTalI9r0fVfufNXd6Pqv3PmrxHQ9V+581d9ouq/cNePUid57LpOoeldhpt//ALdeT6PqX3Pmrs9Kvvu1xyLieoabefcrqrC8+5Xmum3/APt11Vhf/wC1USNj0vTb/wC5XV6bc768002/+ZK7PR7zfsqTc7qzetaGuf019+yt23+7VlluOrUdVY6sI9AFinR1FUtUAya2S5tXWVVf5WVkf7jf7Ffl3+2L+zS3wf8AF/8Aa+jQbPB+rSs1qn/Pncfee3f/AGf7v+z/ALlfqV96uP8Aih4G0b4o+FNT8Jayqvb38H8H34m/glT/AGlarpS5ZHLUifiPcw+X/DVRk+evRvip8N9T+GnjTWPDWrxbL2yl2s+35ZV/glT/AGWWvP5odjvXqxkcJUoqV0prpVgMoop9ADKfTKfQAeXTvLojp9ADPLo8ujZ89PoAPLo8unx06gsiRKKf5dOoIIvLp9OooAKbTqESgAop/l0UAFHl0R0+gsZT46d5dN8ugAp3l0U+oIGeXR5dPooAZT6PLp9BZD5dPp/l0eXUkDKKfTPLoLDy6PLp9Hl0AM8ujy6lo8ugBvl0U7y6PLoAio8upfLo8ugBsdO8un+XRVAReXR5dS+XR5dSBF5dFS+XTPLoAi8ujy6l8ujy6AK/l0/y6fRQUFFOo8uoAbTHSpfLo8ugCLy6ZJU1M8ugBnl0eXT6KAGUU+jy6AGeXR5dPp9AEPl03y6lo8ugCLy6PLqXy6ZJQBF5dHl1LTaAGeXTPLqajy6Cyv5dMdKt+XTKCCu6Uzy6sOlN8ugCvJR5dOdKPLoArulN8urElMoA88jp9PjoroOcPLp3l0U+OgsZT/LoqWgAjojp9PRKsgZT6PLqWOgBkdPoooAKfHR5dSx0AMoRKm8uiqAKKKdQA3y6d5dFTUAQ0+Ojy6lRKADy6bUtHl0GQzy6KfRQajKm8umU+OgA8uinUUANp3l0R1NQBD5dFP8ALo8ugyHolHl06OigCKpab5dO8ugApslS0zy6DUb5lFO8un+XQZEVO8uh0ojoAbTPLqWig1G+XTPLqx5dMkqQIqKf5dHl1QDKKl8um+XQAyn/AMNO8um0AOjoojp9AB5dHl0+igBkdPo8uigyHp/e/gWvoL9nLStXm0HUl8Kzwabruqf6Pda3cL8mk2X+x/01dv7v8KJ/wDw/w3oMviTWbfTIG2PK372X/nktfXvgbVYvCul6F4c8PafLf6qz/uLS3++zf33f/wBnrllU97lieVmGMjh6Z6T8Mf2ZvCvgZUvtM0q21XW/vT+KfFNr9tuZW/jeK3+7F/vN83+/XrM3g2z1i12a14j1LUv9/U/sqL/2yg2V4t4++IfhP4Twxr8R/HDf2nt3L4b0Ftm3/YdYvmb/AHmda8j1T9uL4fw3DxaV4Cv763/v3aQRO3/odevGnCMfelyn5licyzTGe9hKMnH7vzPcfiL8CtAubCWfT21K22/N9otNTe6/77SXf8v+d1fF/wAV/CWoeDNReLUNtzby7ttxt+SX/vv7v+7XrOnftSeCfFEwXT77VvhnrUn+rln2y2Mn+/t/+IWsP4malJ4ntbvQfEdtHDcXEXmr9nbfFKv8F1av/d/2f4f9zfsqXJy+7I9vK8wxOHlGni4uPr/Wp876H4V8NeJNetINTvP7E0+WdftlxFFv8qL+LYn/AMV8tdV46/aQ0bwHcN4e8F+F4NEfRFt4dM1C4XfqC+U8rM7y/d/e+budfur/AAV5F4h+06DrMum3PyahF8i3H/PdaqalpieLNP2xb/tsQ/df3933vK/4F/D/ALVeLKtKHwn6XGMKnvHoesaon7Rnm634l8Qy3Oq7Ut4JrnattZ/f2RS7f9Um3+Jfl+T7q14vfaTe+E9Y+wagkkI+9HL/AOzp/eX/ANCqp4T8Q3HhPV1uUH7qVWhnh3fLKn8StXeeOEj8qybc1z4cumZoNn37eV/m+T/xz5Pu/wDoVc/Pze8dPLy+6Jo+q7/3Vz8lwv8Ac/i/266BJt6153bzTabPb2E21/IXdBcf89Yn/wDZf/sq7SwvEmRK9ShU54nHUgaDvTaPMorqMRjpv/2H/v1n71sLrb9y3l+7/stV2Sq9zD50TK38VAE01UnfZ81Os5mdHil/1sXyNRMlV8ZBq6PqWx0rvtF1X7hryeGbyZa6rRNS2bPmryq1M74SPbtF1L7hrutK1L7nzV4voupfc+avQNH1KvNlE6YnrelX/wAtdbpt5v2V5fpV992uz0q8+5WMiz0jTbz7ldno9/8AOnz15fpt5XW6Vf8AzfernNontGgzecqV2Fmm9a868JXm7ZXqumw74krPmL5iLyaNm2tJ7WqUybafMHMRI9So9V/Mp6PXQaFpHqK80q21K3eCeJXVty/3X+f+49CPVtPuUzOUT5M/bk/Z/Xxh8Pk8X6ZE1zrvh+JvPf8AjurLfuf/AHtn3/8AvuvzUvLbZ/8AF1+8E0K3kDxSqrpt2Mjr95a/If8Aai+DLfBn4rarosETf2VJ/punP/et3/g/4A3y/wDAK7qM/snBUieBOlM8ur1ymx6qV2GRF5dO8un0VYDPLop9Hl0AMp9P8ujy6ACiiOnUACJT/Lop8dADPLo8uiSnx0AM8ujy6fRQAzy6f5dEdS0AM8um1L5dM8ugARKKfQiUAPo8unIlFBZF5dFS0VBBFT6dR5dBY2nR0eXT0SpAKPLp/l0UAQ+XRT6HSgBlP8uiOn0AM8ujy6fRQAyin07y6AIqfRTqAG0U7y6PLoAbRTvLooKG0U7y6PLoAi8ujy6fRQAzy6PLqWm0AM8uinyUUAQulPp/l0eXUAMplP8ALo8ugBlN8upfLo8ugCKjy6d5dP8ALoAiop3l0eXQA2nU/wAuigBlRSVYpjpQBX8ujy6m8ujy6AGeXR5dS+XTaAGeXUXl1Ypnl0AReXTPLqx5dM8ugCu6U3y6sOlQyUAV3Sm+XUvl0eXQB55HT6KK6znCn0IlOoAKfR5dPRKABEp0dFFAD/Lop9O8ugBvl0IlOp9AB5dPRKI6dVAFHl0R1NQAzy6f5dHl07y6DIb5dFO8ujy6ADy6fRRQAeXT/Lp1FADZKZT6d5dADfLp0dP8ujy6ADy6PLp/l0eXQAR0U5EooAbRTvLooAPLp6JRRQA/y6PLo8yigBklMjqby6Z5dABT6KZQA/y6PLop1AEXl0U+h0oAZRR5dP2fPQAzy6PLp/l0eXUmoyiiiqAKZ5dPp/l0AQ+XT46KfHQAUUU6gyCjf/FRVvSrb7Tf26/Lt3bm/wA/98VMiZHceGPK8JaI93L/AMfdx83/AAKtuD4/XfgPwXcQeFp1Xxnrm7+0dcddz6dBv+S3t/8Aaf77t/DvT/gHn/jLVWdvIR64902LsX7lc0Zez96J4VTDxrvmrDLordXklzKzXN3L80lxcN5ssrf32aon3JTlR4/4qHT/AGqx5ZTO2CsVflfd5q70r1n4M+IF157fwNrWofZrO4l3aHqLv82n3X8Cbv8Anm33dteUOlCTNDKksTbHVtyv/darpylGRy4vDxxNLlOx+PHgmeaxa5ktvsepWLNbz2/92Vf9an/sy/7L7f4K8X0rWJ7mB083Zdr/ABp/Gv8An/2SvuHxzs+KPw/8N+OEijmuPEFsun6gir/zFIPuv/21iV1/4GtfCevWP/CMeKr22Vv3UUrKr/31/hq8VH7ROQYqVSEqEviiWPF9jBdrFq0ACW9+pZkX+C4X7y/5/vVreAdSj13Q73w9fMkaFA6yy/wbd+x/+As+3/dlf+7VXTVTVLPUNJIDfaITPasf+esfzbf+BLvX/gSVyWmXzaNq0Vzt3IrZeLH3kYfMv/fJrzeY+uOqls5rnRJoJVdL3SWfajffXY/zJ/3zvb/tk/8Aeqz4b1XeifNV/VLyCx1eLU3ZZre4T96/8EssX/x2L/0oesD7G3hvxHe6Yzb/ALLO0O/+9sf79dVCfJIiUfdPQIX3pipqz9Nm3xpWhXtRPPGeXTHSrFNdK0JMe8/0a4S7T+H5Wq6/zpRNDvidKqWD7Fe2f78X3f8AdoAryVbsLzY1MuU+eqX3XrOUS4yPS9B1L7legaLqX3DXiOj6kyMnzV6HoOrfcryqkTsjI9o0e/8AuV2ul3/+1Xkui6l9w13Wj3/+3XBI2PUNKvPuV12lXnzpXm+lXldhpV59yuaRvE9i8H6lslT5q948PTedbpXzB4bv9lwle9eBtV86BF3VzyGeh/w1RuYamhm3rTJn3rWAGJN8jU1Hp149VfMrsidBoI9XYXrHR60LZ60FI0I6+ZP2+fhQvjb4T/8ACSW0W/U/DLfaPkX52tX+WVP/AEBv+AV9MQvVfV9Lg1zS7uwu0Wa0uomt54n+46sjrRCXJM5pRPwqv7bZ8tZjpXovxX8DT/D3xz4g8N3O55dLupbfe/8AEqfcf/gS7Grgpk+evdhI4SvTfLqXy6Z5dWQNpyJRRQWFPo8un+XQAyiin+XQAR06molOoAbJRHTqf5dADKKf5dFADI6mjpiJT6ADy6PLojp1ADfLoqXy6PLoAZ5dHl0+n0AM8umVNR5dQAyn0eXTvLoLIqfHTqPLqQCjy6fRQAzy6bUtM8ugA8uijy6KAGx1L5dCJT/LoAh8un09Ep3l0AReXRUvl03y6AGU/wAuinUAN8ujy6dRQUReXR5dS03y6AGUVL5dNdKAGVFUtMdKAG05Eo8unx0AHl0ypqKgCGm1Ypnl0AMjo8upvLo8ugCv5dHl1LRVgV/Lp/l1L5dFQBF5dHl06m0AHl0eXTo6fQBX8ujy6f5dOoAi8uin0ygBlNqWmOlAEVFP8umUAMkpuz5KdJTZKAIXSmyVLTJKAPOqf5dFOrrOcKKf5dHl0AFPjp3l0+gBlHl0+n0AOjp9EdPjqgGU+neXRQAR0+mVNQZAiU7y6I6fHQAeXRT6KACmU+jy6ACOneXQiU9EoAZRU3l0zy6ABEop/l050oAip8dFOoAKKf5lPoAZ5dHl0+igApnl0+neXQA2ineXR5dADfLop3l0/wAug1GUU/y6PLoAZTZKlpklABT6ZU1BkQ0SUU+gCKh0p1FADaKKdQA3y6dRRHQA3y6dRRQAU2nI9FABHRRRQAVreHfkuHb+7/8AYVk1paJ96X/dqanwmFf+GU9b+e//AOA7qzJK1dS/4/3+X/llWVJXNE8+IyonSpabJTNypNVR3q9NWfc/caoK5T6R/Zz1WTXvhT8RPB0bbryzjXxDpi/xrLF9/Z/3wn/fdfOP7QOlR2/iq11CCJUg1Gziulr2D9k7Xl0T41aEkv8Ax76jFPps/wDtK0Tsn/jypXnnx8s9mjaOn8dhdXVh/wB8PXRL3sOfP4ej9VzRyj8M/wDL/gHj+m38thcW88T7JbdlZHqDxlax2WvXHkLst5P30X+4/wAy1A/yP/wGp/EEv2m00qX+MQeU3/AXevFPu4ltdSOoeFZY2+aW2MTD/gPyH/x3y/8Avipb/VF1fUIrtfkdoIklH+0iIv8A49s3Vi6TIR9qiP8Ay1i/l81TQwvDsf8AgraISPRdBm3xJXQp9yuO8PTfKldhbfOtetSkcch/l0eXUqJT/LrrMyk6Vk6kn2aeK7XdsX5W/wB2ugeGqs1t50Tr/foApTJvXcv3KzpkqazfyfNsX+/F80X+0tOmSq5iSrbTeTKldhoOpfcrjJk+etDTbx4XrjqROmMj2jQdS+5XoeiX/wBzNeI6Dq33K9G0XUvuGvKlE6YnsGj39drpV58iV5Pol/v2V3elXn3K5pFnqWiX+x0r2DwBrexkXdXgWj3n3K9F8K6k0MqfNXNI6Yn0nZ3+9UqV7z5a4XRNb3xL81bX2/ev3qy5TQ0Lm531n+dVea831F9q9q1iWasM1aFtNWLDNV22mpkG7C9Xk+dKybZ60IXrIUj83/8Agoj4JXRPi/aa5FFsi17TlZ3/AL08H7p//HXir4/uU+ev0w/4KNeFf7S+Gnh/XFXfLpeo+U/+zFOj7/8Ax5Yq/Ne8T79e5Rl7p5tQzZKZUrpTa6TIh8un+XT6KssZT6KKACnU9Epnl0APjp9M8un+XQAyin+XRQAeXR5dOooAPLooooAKKfHRQAR0/wAunR0R0AN8ujy6dRQAeXTf4qlo8usgCijy6f5dBZDHT6f5dHl0AMp/l07y6bHQAUeXTvLojoAb5dHl1L5dHl0EDESn0IlPoLGeXR5dPp1ADfLpjpVjy6f5dBRR8un1L5dHl0ARUeXVjyae6VAFTy6PLqXy6PLoAipjpVjy6a6UAVHShEqXy6PLqwDy6PLp6JT/AC6gCHy6eiU+igCHy6PLqameXQAeXTPLqaOnVAFXy6PLqx5dM8urAZ5dElTVDJQBF5dHl1L5dHl0AV6fR5dHl0AMooooAbRTqKCxtMdKl8umyUAQ02pfLokoIK8lROlWJKY6UAReXTJKlqKSgDzyn0IlHl11nOPojoojoAloojp9UAeXTvLo8unx0AEdSolCJT6DIKPLp9FAB5dORKI6mjoAZ5dPjp3l0eXQAUIlPRKfQQMdKZ5dWPLpvl0AQx1Ypvl06gAop8dFADKKmo8ugsZR5dP8ujy6CBnl0/y6dRVgN8ujy6l8ujy6AGU+mU+oLGSU+OhEp/l0AFFFFADKfRHTqAG0eXTvLooAi8un+XRR5lAB5dM8un0UAQ0+inolAEPl0/y6fRQQHl0zy6lokoAb5dMdKlodKAIqKf5dHl0FkNPo8uigAq/of/Hx/wAB/wDZ6zat6O+2/i/3tlOXwmdSPNEfrUey9/7ZVjyV0viSH/R4p0X/AGW/4H83/slc43365DyokXl0x0qamUHSV5krPuU+StN0qpMlQWavgDVW0Txf4avt2z7LqdrL/wAB81Kb8aLz+0tOvWb/AKDVxL/3381Z9sjwxLOn34m85f8AgPzU7x+j3OmurMzu15u+f/cq4y/cyiR7PmqRkeT3KVQvv+Pe2/4FXRXOntt+7WPrFv5P2Rf9j/2evJ5vePdjGRHo8I/tDY/3dsv/AKBXU3Ojr/wjMVz5DfK33/P/APZNn/s9c7oif6c7f3Ypf/QK7rVUeHwXbr/eaL/2et4gVdBTy9ny12FnXH6D8712FnXoxOaRdjqXy6bHUsddXMZjPLprw76sUUcxpynP6lon2l0liZklT7jpWY9zd237q5s2mT/ntbr8/wD3xXa+Sr0PZpMvzLvo5iOU4VLm2vP9ROr/AOx9x6NjI3z/ACV1d/4etr//AF9tHc/9dV+f/vtPmrOfwfs/48dQns/+mV8n2iL/AL7T5v8Axys+Zl8pY0S8+4d1eh6Dqf3Pmry/+zdX01Hln0prm3i/1t3pj/aEX/bdE+Zf+BV0fhjXrPUmT7HeRzP/AM8kfY//AHxXJLlkbRPctBv9+yu+0e837K8Z0G/316NoN5v2fNXFKJtE9a0e8rvtBvNmyvJ9EvK73R7z5UrjkbxPXdH1j/R/vfP/AApu2bq6PRPFUGsW/nxKybZ2iZHXY6sn8D/5+b/gaV5fDeN5CRI29Nm1k/vb/mqxbRzw3UV/p0v/ABMItqyxSt8t4qJ/H/clX+Fv+A/c+5Iz1tLzfUqXVcVo+vRX6OsTNvibbLFL8ksTf3HT/K/+hVuw3m9aDU6CG5rTtpq4q28T6b/bf9kfbl/tNV3Nb/3P/ia6ezmoA6a2mrYtX31zNnNW9ZzVkB5P+2Non9vfs8eMItvz29st2v8A2ylRv/QUevyRv0+Z6/ab4u6aut/DHxXp7/8AL1o97F/33E9fi3f/AHnr18IefVMumVLJUVdxzjP4qPLp9Hl1ZYzy6bUtHl0AEdPoRKdQA2iOneXR5dABT6PLp9ABRTqbQAzy6PLp9O8ugBvl06iigAp9Mjp/l0AP8umeXT6KACnR0eXRWQB5dFFFBYUU+iggKKKZQA+mR0+igsfHTqKPMoIG0U7zKfQAeXR5dPooLCnU2nR0FA6UU+ioAKZJT6fs3UAV6PLqXy6PLoAi8ujy6l8umVAFd0qKrElM8urAI6f5dMp9ADPLoqameXQAyjy6Kf5dADPLo8un0eXQAyin+XR5dAEVMdKseXTKAIqKl8um0AQ02pZKZJQA3y6PLp1FADfLpnl0+SmUAFMkp8lMoLIqJKfTJKCAqKSpaikoAZTJKfJUVAHn8dOptOjrrOcPLp8dP8ujy6ADy6PLp1FUZD6ljptOjoAKm/hojooAciU/y6Kf5dBAzy6eiUU6OgB9PplPqwHeXTadTaAHU+mU+gBn8VPo8uigA8un+XRTqgBtEdElEdWA6n0U+gBnl0U+mUAPop1FADaKd5dNX79ADo6Kf5dMoAKKfRUFkSJUqJR5dFABJTKfJTKAG0IlOooAPLpvl1LTKACiin0EDJKI6P4qf5dADKJKf5dElAEXl06iiSgBtFFOoAioopn3/uts+bb5z/cVv9ugA8yhEaR9q/I+3cvytv2/xv8A8A2O3/AKr3l4thcPE+6a9/5ZWMS73vPn/wDHfl+633qw38UJZ2srajPPpSLEqwadY/JLLs+75sv3lb7/AP33UylyGnKeqWdtDr2jSxJLsfau5/8AZdNyP/46jVxVzbMjOssTJcW7bZYv9ytjwD4njZf7X0/SpE0eVtt08s+/7K2/5Pn+9975t2z+OtjxtoPkypqcHzxbf36J99ok/j/4B911/u7G/v7CUeaPNE8qpT5ZHFUUPD5Oz+5/DR5lcgRkMkqu6Vbp0MKvLsoDmCG23JFF/eZVqv48fZFaQfx/ero9KsGeV5dvyRKy1wXirUv7Q1e4lX50Vtq0S92idmGjz1DEufnlRKzG02LUtReKVmTaqrv/ALlacO3zZZ5furWO77JUdm+f7zV5WHjzy5j25fCWP7HisJZfKbf+42t/vb0roPGG230HT4P42aL/AMcR/wD4uqnhvTWv2+b+KVf/AByjx5c+drKQL9yL5f8AgWxGf/2SvR5TEf4bX5N9dhbJ8lc/4etvJgSulhT5K7InOTR1LHTI6fVgPoplM8ygCwj1YR6z/Op6TVEolRkafytQ6VXSarCPWRoFsjQ3CSxM0Mq/Mro/zrWldW1jr2/+2tKtNSlb/l4l/dXO7/rqmxm/4E7Vnx1eh+ekUa+leGJYXR9D1qV0X/mHeIfn/wC+LpF/9CRV/wBqu28Paq0N5Fp+p20+j6q3zLaXez96v9+KVfllX/aWuS0pPmr0LSoYNSsP7M1GKO8tJZfN+yXHyRM399HT5opf9tdrf+g1ySA7PRLyvQ9EuW+T+P8A2K8htoZfDKpPczz3mjoyw/a7j5LmyZ/4Lr+8rfwyr/wPZXp3hW5b73ywvu2qj/fX++7/AO//AA//ALdcUom0T0CzmX+9v2fx/wB/+9WrbTf991zlnN8iVrQzVkam1MkV/L57tLZ3artW7t/9ai/3P9pf9lt1adrrE+mxeVqMCvaf8/1orun/AANPvRf+PL/tVhQzVsafMyfc+SsgOX1L4Yy6x8QYvFFjfLNaXUsU0s0MvzqqOjbE+Xay/Kjf8Ar22wuXdfn+/XinhX4heFfFvjfxLoOjarc2eu6HLEt9LFBsiZn/AO+1Zv4G+TdXo1nc64n3J9Lv0/21lt3/APZ61NT0KzucrW3Z3P8AtV51DNrj/wDLfS7b/cgluP8A2dK6Cze5tnilbUJ5naVV2OqIif3/AJEX+6lZGR2WsKt5pNxE/wByWBl/8cr8Qrz7r/7lftbqWqrZ6Jezu3/HvA0rf98V+KV58616mEOSuZjpTfLp1Nkr1DnGU+mU+gBlPoooAdRRT6CxlTR0yn0AFFHl0UAS+XTKfRQAyin0UAHl0eXT6KgBnl0/y6d5dPoAZ5dHl0+n+XQAyin0VIDKPLp9FBYzy6PLp9FBAyn+XRTkegBvl0eXRTqACjy6JKfHQAzy6mT7lHl0UAFFFFBYR1LHTE+Wn0FEtNkojokqCQp0dNp0dBQOlHl0+igCKSmOlSyU2oAh8um+XUtFWBF5dO8un0UAM8uin0eXUEkVFS+XTKsobHTqPLooAb5dFO8um+XQAUyn0VAEPl0eXU1MqwInSmOlWJKY6UAV/Lo8un+XRQBFTPLqXy6bQAzy6Z5dTUygBlN8unSUeXQBF5dHl1K6U2gCu6Uzy6fJTKAPOqlT7lMRKfXac4+OnU2OpaDIKPLp8dFABHUsdRVLHQBLRRQv36AH1LTadVkDadT/AC6KACOpaaiU6gAo8un0+gBkdP8ALoojoAPLp3l0U+gCKnR0eXT46AGeXR5dTUUAMjp9EdO8ugBtCJTvLooAKKKKACin+XR5dAB5lMp/l0IlAB5dFPo8ugBlFHl0+oLGSUR0+mUAGz56fR5dHl0AMo8uin0AMokp9FADKfR5dHl0EDKKf5dMoAZRT/Lo8ugBlFPpn/fWz+LYtADUSW5lSKCJppW+7FEm92rPea81Wf8As/S/s02oKrf61k+zxL8+9N/8P975v+AV0EnhK51jQ7u78q5h0SyZV1PWYtmxfn+5bo+xm+8ny/eryrxl4nihaTQdG3/2Yn3buWDZc3H/AF1/i/4DWUpchrGJrN4g0jw/DEkUf2m9STzLrUDN/pUDN/z7/P8AOv8AFu/9A+9XIX32/wAYalvgWV7l/wC8295f9r/9r/vqtHwx8P8AUfFU3mzbrOyX70rr8zr/ALC/xf8AoNekWdjZ+G7G4j09YEt1XdO7t87bP77f5X+//erHllVOj4Ch8PdJtfBkVw80tnIzY89m+dJcf8sl/wCeX/XX73/s3rPnS2ei2kstnd2cVxF5tql9F5Tyqn3HTf8AeX/a/wB/5ayrzRNI+Feiaf4q8QwWV/4olZWs/CeoWsv2e6spU+S781PlZf8AZ/vf9815I/jnXPFXiqXV768u7nUPKVYndt7xRbPuJ/sov3f9n5f466Y1PZHNKn7U7258NxXLf6NPGm7/AJdJvkT/ALZP/D/ut8v+1WVeaJc2Lfv7aeFP4XeL5G/4GnytWnbeKoryLyLlIoZVb78X3H/+xf73y1pWF4qSo8F5Gm75v9bsrq9nRq+9GXKeRUp1IfZOPhs5Lx/KtvMuX/uW8Tu9a1ho8sLbJ/kl+7/t/wD7VdFNeLMrpc6u1yn3vKh3y/8A2P8A4/WFqviGCwt5YrSLZL/z1l+d6zlRo0vilzBTpVJfZK/ifWP7HsntIP8Aj4Zdvyfw151MnzbU+ff/AB1pXMzTSP8AeeVv46z7m6isF+f55f7leFiqksRLlifQYaj7CPvGbqTokKWy/wAXzy1meSzyo/32b7tWH+eV5ZW+d/mrqPDHh5kdLy5X5/8Alkj/AMP+3XRSp8seUcpc5oaPZroNh5s7fJbxbmrhP3uq6xub7+7c3+89dN4z1tYbVLGBvvfM3+f8/cqp4P0dv9ZL9+rj70gfwnUabbbIkrTT5aYibFp9d8YmI7+Kn1FRV8oA71C70+Sq81XymPMDzUz7V7VXmfY1RPNRyhzGrDc1oQzVzVtN89bdm+9a45HRGRqw/O1atmlZtmm+ui02337KxkaG3o9vXa6PD9yuf0ez+Suz0qz+5XBI1idRpTq8XlSxR3NuysjRTLvSVX+V0etjwrC2lT3GmMzTS2TKsUr/ADvLb/8ALJ/++d6/7yPWfpsNbDp5N5pV2v8Ae+xT/wC6/wA0T/8AAGV1/wC3iucs7O2etW2esKwf90lats+ysJFGxC9S6lryaDoeoanL89vZQS3Ev+6ibqqwvTtY0ez8T6HqekX3mfYr+CW1l+ztslVXTa9Zlnj/AOxP5GpeBvFHiFfNe41bVt11NN/y1l2Iz/8Aj0stfUFnNsrzX4XfDfSPhL4Nt/DWiyzzWUU8su+4X523vu+f5E/3a72zf561A6uzettH/e2K/wB2Vrj/AL4Tb/7VrlrB/mSptY8SLo+t26Sz2UNusG3ffSvEm53/AOeuzav+q/irIC78Y/EK+HvhB4z1Hfs8vR7hVf8A2nR1T/x5q/Iy5++1foN+2r4/i034Lf2Z+/trjVryKJYX27JYk/eu6Om/5flT/vuvz0mm+evZwkfdOSt8RUokoorvOcip9FO8ugAooooAKfTKfQAU+iigsdT/AC6ZHU1AB5dMp9MoAKfR5dOoAbRTqI6AH0+mUVkQPp1NjooAKKKK1LHUeXRRWQDfLp1FFADfLpyJRHT6AGUVN5dHl0AM8uhEqXy6ESgAo8uiSiOgsKeiUU+OgBjpT46JKI6Ch1FFFQSFEdFTIlABQ6U6igorulN8urElMqAK9S0bPnp/l0AM8umulS0SVYDKbJTqKgBtMqXy6b5dADKKf5dMqwCiimUAP8umeXT6Kgki2fPRTnSm0FDJKZT6KsCKSmVLs+eioAiqKpZKiqwGUU+mUAElFFPoAZJUVOkptAEMlN8unSU2gDz+OiiOnV2nEFPoojoAfRRRQA6OpqZHUtAD/Lo8uiOn+XQAR1LTI6mqwCmU+meXQQPjp1CJT6ACn0R06gBvmUUeXTo6AHx0+meXRQA+iiigARKPLojp1ABT46KKAH0yin0AM8ujy6fRQAyn0yn0AFM8un0UAMqWm+XTqAGyUeXTqKCw8um1LTKgBtFO8ujy6ADy6PLp9FAEXl0U6iggbTvLoooAPLo8uiigAptFOSHe23cqf7btVgRZ+/8A7u6urtvDdtonhqLxLrl9bQ2V0qtp1ijOlzrKo+2WKJ0/1UX390rf8AV6dYXOmeCdGl1O+ikfxHBPE1n4b1CxfZP9xvtF1v8A+WW37sX8X3n+SvLda1W78ea9e30EUSXtxLune3iSKJW/2ETZt/3VSspSNIxLPi7x1eeJ9WlsNOs4rOxul2rolun+jwbU2p8u7a7Irf637zfx1NpvgyJJbe7vP9P1Bf8AlrcN5sSr/Amx/vf+g/7Nbej+HoNHi8pV33Dfelf77Vp+S+zYm3ZUf4jcqPDO67UlZ0/i+atiwex8H6NceI9cg1LTX8j7RoD/AGFZbG/uon/5eN/8KVe8PaJ9ptb3XNQtp5vDmjNFLqflSpE8q70Xyonf5d3zf5+SvJ/iZ4zi8eeKZf8AhH7aW28Oxysmm6O9zK8Sb0/g3/dZv4v9qiUuQz+MxPFWt3XirWtQvruBZr68bzp7dF2JFv8A7iJ8qL/s1sX+jr4e0u4X7Yv9txsrfa0b5LyJ/wCD/wBA2/3qt+D9KXR7F75p498v+ovtvz2rbH/df+ystc/NNea9dee0H2ZIpfKs7R/uf7cT/wB1v4krm+M0JbNFd/tyKyRMu2KJ/wCH/Yf+7833G/2K622v21K1837NIj7vmfd95vvfc3/+yVzD+bDaxTy/clZvndP4v402f+hL/wACSuv8Kwypp1w0rM7yz/N829PkRF+T/ZranT5/dFKXKV3eOZn3S3fy/wAG2V//AGSsq8v7a2ZF+x3b7m2rvXYm7/feurvLmCwgeeeVYYv77vsqG2mXVbKWLdHeWkq//Y1csPEUakjjfJ1DWJfs0Xkaa3yrsf77fI7ff/h+WqM3gm+RlaKLzkl+ZXeVN7f76ferq7zTW02we2l82bT93mrLF/rYm/8AZlrPfxDBYWWxfnSKLaqbn2N/wD51WsfZchpzc5FpXg+PT/3946zXCf3/AJEWma94hg02137vvfwfxs1c/eeKtauUeJYLaH/bf53qvYaDPqV159y7XMr/AMb/AHKOWU/dI5yvpVhPrF+9zP8AfZt1eh2FglnEi07StDSwX7vz1oeXXZGlyGMpld0qKSpZqrzVuTzB5lTI9UfOqZHpSGWPLqF0q3apvq6lhvSjmHynNXKfJVKbdXVXOlN/drFvNNZKJSIMq3/11dPpsO/ZWPbWbeb92uu0ez+5XBUkbRNXTbP7ldbpWm/cqro+m/crtdK031WuCUjpiS6VYf7Nddptn9yq+m6b9yuos7Py645SNh1nbbNlac1hLf6dd20H/HxMu6D/AK6o+6L/AMeVKfbW1aUKeTKkqffVt1SUTaVdRXlmk8H+qli82L/ddN1btr3rC0GFbNbu22/8e88sKp/dXe7RJ/36ZK6CGoLLUNXoXqjHViOsgNa2mrStpqxbZ60rZ6AOo0t97pWhpVyqSyz7v+Phv/Hfup/46u7/AIHWJZv5Nr8rbHlbar/3f9v/ANmrkPjf8UIvhL8N7vU4NqarMv2fTLd/+erp8n/fK/N/wD/brWMecD5P/bA8f2nir4qy6VpUUEOn6GrWv+jrsRrh33XD/J/Fu2L/ANsnrwRvv1LNM9w8ssrb5Zdzb3b73993/wBrdVevoKUeWPKedKXPIKKPLo8urJCn0yiOgB9Mp9FABHT/AC6I6dHQA2ineXR5dABHT46ZU1ADKKfTKAJV+/U1Qx0/zKACSiOmfep8dQA+meXRs+en1IDo6KKKoBslFS+XR5dBYyin+XTPLqSA8un0UVqWEdPojooAKI6KdUAFHmU+meXUgN8ynR0eXT0SgsKfHR5dOjoAPLo8uiigoPLop9FQSCJT46I6KAHU2iioAKZ5dPooAZ5dPoooKGeXR5dPooAZ5dHl0eZR5lABTJKJKbQAeZRR5dOqwIvLo8un0UAMop9FQAymeXU1MkoAr0+imUAMooooJIqZ5dTUeXQUV/LoqXy6ZQBFT6Y336KsBklNkp1FAFen+XT5KZQB5vHUtRU+Ou04iVEp9EdOoAPLo8uinx0APjqWmU+gB8dOpsdOoAfHT6ZRVkEvl0UeZRQAR0+iOn0AORKKKKACn+XTI6moAKZJT/Lo8ugBlS03y6KAHUUR0+gAojp9Hl0AMp9Hl0eXQA6m06jy6AG+XR5dS1FJQAyn0eXRQAL9+paiqX+GgBlPojp9BYyiiioAKKKI6sAp9FM8ugAplTeXUMlBA+iiigBlFPo2b3+TbQAzf9//AHd33q6vzrH4e6LFq8t9B/wmaSrLY+HtTtdqRLsdvtF0kqurM38MX/AnqW2ubv4V6NZeJmsbS51i4bzdMtJp4n8r+L7XcW7/AMO1v3TK/wDtfwV5Pc/afGet3FzLLJeXt0268lu5XllX/f3/AHv+BVlKRrGI+/v9T+JGvahd6reXdzd3CruuLiXzZfK/uO7r93+7u/8AH67DStEg0pUW2+T/AG/4Ep+laVFpVqkFsqp825v9pv79aGzYtQbEOxNvyUJDc38qW1jbS397cfLBb2/zvK3+wlPmdbZN8rKifd3vUHj/AFj/AIVRb+VPct/wmbM1vLo23/j1t5YkaK4iuIn/ANb833Vf/fWgCj8Y/iXA/h/T/DXhe81KHQmgiuLzRru681FvdjrLL/vN/ufwfdSvKtFtY7dmuV3Iqt+/+Xa8X/TVP9r+8lLoMN7fXUuqXsEx0xpfm1B/meBv8sm5f++a6TxVok/hWe31m2aJ3XbDeW8P3Nr/AHXR/wDa/wDiK5/i94XwGfqt/coz2m3zn+9dJD92Vf4LhP8AP/2DGs54ZkuZ9t/LKuxf4Yrxf7n+zL/cpk1t+4t9QsZfO+b/AEPe3yf7du/93+Nk/wDs6S0uBrcqrDE15bSfN9ndtvn/AN7zW/hZf4f71BoX/tLaqiTt++i27W3/ACPP/vp/z1X+9/FXa+FUdtBi3SrN8zfOn3Pv/wD7FedPNPbXSPBH9vilX5Xddn2xf9z+GVf71epeD/s154f/ANGlaZFnZvN+T5t+xv4K6KMveM5Hn/xUs57m/wBHg3slu27b/c3VveAId8+pSxbf7P8AP/cbN/8Ac+f7/wDwD/xyu6fSorlNksSum37jrvqJLCKwtYoIIooYlX5URdiV0+z97mMeb3Sp5NYupeErG/Z3eJoX/wCmLV0vl1F5dbmZyMPgy0h/iZ/+ArWnDpsFsnyr/wB91sPDVd4dlLliSZ/k0yZK0PLqvMlXEgx7rtWfM9a1ylY912okBUd6lhmqq7/PTIX+euaRvE6vTfnrqLC231x+jvXa6U+zZXNKR0RNWHRFuF+7VXUvBjbdyrXRaVcrXU23lTJWPtC+U8Ufw3LDL92ug0fSn+T5a9Nm8N215/DTLbwkkLfLWMpF8qM/Q9K+58tdtpWm+q07R9HVdld3o+gxzR/Iy764JSNoxMqw03ttratrOtBNK8n+CraWtZFFSG2q2kNS+TQiVAEWlJ/xNNY/6+ov/Se3/wDiK3YU+5WPo6b7rU5f4Gul2/8AAIol/wDQleugRKUix8dS0QpVtIazAZa962LZPuZqrDDWrbI0a7l+/wDw7/71AFtXV5Nv8Krt/wDi/wDP+xXwP+0h8V2+KPj6X7NLv0TTt1rY7PuMv8cv/A//AEHZX07+0/45b4e/C+W0tJfJ1XWf9Cg/vrFs+d/++fl/4HXwPXrYSn9o560vsA/+xRRRXpHIMp9MojoAf5dPplPqACiOiigB0dPpkdPoAKfTKESgAp8dO8ujy6ACm+XTqKABEoojoqwBEqahPuUVABTqKKACnx0U+gAoplPoAZ5lPpn8VPjqQD+Kjy6ciU+tSyKinSUeXQA+OjZ89EdPrIsKZT6PLqiA8unU2igsKdHR5dPjqShlC/fp/l0eXQA/y6PLp1FQSNjoop1BQ2jy6dRQAUU+ioAZR5dFFABJTZKdJTfLoAhp8dP8uigCGSm1YqHy6sAop/l0UARSUypabQAU6oo6lqAG0ySn0ygCKmVLRQBFTPLp9MqwCim0UAMpklPpklAEVFFEdABUVS0zy6AGyUynulFAHmlPjplWI67TiCOpabHTqAH7Pkp8dMjqWOgAjp9CJT/LqyARKsVDHT6ACnx0eXR5dADqfTKKAJqKESnIlABRT/Lo8ugAjo8ynolFADqKbTo6AH0UIlFAD6PLojokoAPLp1Np1ABRRQj0AFNqWmeXQAUeXT6KAGUeXT6KAGU+meXT46ACin0eXQAUzy6fRUFhRTPMoqwH0UyiggfTKtpo+oOm77Dc7P7/AJT1X2MnyUFjKKfRsd2/+xoIGf5//brtfB/h3TrPwzqfjDXGaHTLCLdplol1Fby6tdI//LJ33rKsX3n/AO+a6P4D/s6698e/tc9tE1h4asvml1Hc6PO3yb7dN/8AFtf738PyV57+0T4k/t/xQnhrS7SLT9M8P2y27H5YknaJEXft+dUlbZ97zdrbKmUhxjznCeLfHOvfEjxRd6rqcq3+oXrL8kUH2dGZPufKnyqy/wCyldboOiLolqkat/pDfNLK9YngDTZfKfUZ7ZraJ/lgR/n2rXXO+xHf+CueP8x2AnyJ8lWtK02+16/TT9Ktmv8AUJVZorSFkR2VPv8A3/7tV0tm/su71Wdf+JVZSqt06Soj/O/3IkZvmbbvrzvx18TE1S1/sjQRI/h37Q08AuIInu/7qb5UTdu2/NtX5aUiTovE/wAS9K8MWrwaKkepXt1BtnlvoF2QbkTfEiPv/eo33bhfm21wOieGH1J4rnU/kdtrK7vtRov/AGX/AD8v3KfYaPBpSSy6num1BWXb5Xzu/wA/3ET/AGv7/wD47WtHYX3iCSKK7VYdPVllXTov4m2Iu93/AIm+VN396pFym7Dc2iKkGlRL9iaJobxNv7qVt/8AAlM0fTUmuP8AhHr798nkN9h/vSxfxxO/8Oz727/YrYs9KZUdYot7qvzbF+7/APE1u6r8LtTk8Of2rfSwaOkf+kWr3e9JZ2T+BIkTc3+9sVf9qr5OcuUoQ+I8KsP+JDq13od3tmtGfa+z/luu/wCR0/3fvf8A7FLqV8mmzXD2a73d1ZruVf8Aj8VP7ifwstd/8XbDTPEmh6Zr3h6xnS08pVnlll3Ss2z532IiKi7v/Q/9uuS8PTWd9bv5/wDqlZVnuIvv2rfwXESf3f7y/wD2FYjLGleGNV8TWrz28UFtbvKsr3Goyp5sv+35X8P++v8AcSvTfCWiWmgxXttaXizbm3N+/SXa3/APu/e/2q5qws9PubCJrPV/DrvF87SytcI7N/ff91trqtEh1ZGR7m8tL+yZWVbixvElTd/ubEdfu1rT+IUjTb79ROlSt9+meXXoHKReXTPLqx5dHl0uYfKVfJpjw1b8uneTUcxmZTw7KrzQ1uva1SmtvkraMiZHL3kNYl4lddeW1c5f2tXzEHPzU2H71TzQ/PTbaHe1c0jeJ0Gjw13Gjws+3Yu965rw9Z73Su6m1KLwxpu7bvlb7tcFSR1xN2z02VF/eqsNXk3W3/LX/wAdryd/Fur6rL8srJufaqRVu21hqENu8uo3Mdsi/K32i6VPKb/b/ut/s/e/2a5uY2jHnPSLfW9jfeWug0/xDB/Ftry+zfw89v8AP4602G7VvufYb+VPubv7qVsW1tA/yaf4l0K/l/55XEV1Zf8Aoa7f/H6y5onf9UrcvNynsFhqWn3OzZ8j/wCxXQW0zIu6CXeleC/8JDfaPdfZtX0Wezl3fLNaSrcROv8Av10uj+M9kyKs7fN/frOUec5T2q28Q7l8qWtCG8jm+ZWrzq21hbyJG3bHq7bakyfxVjygd35lHnIiuzsqInzM/wDdWufttY3/ACVLqV59s+z2iK3lXTbZ/l+RYk+Z0/4F93/vuo5QNvw9C8NjF5q7JZma4ZP7m93bZ/49XRx1jw3K/L81Wkv4v71RIs1rZKuwpWVDqSVdhv1b+JazA2LaGuj0rTXf5v8AgKpWDpsyvsrs4bmDStHuL6dv3VrA1wz/AN1UR99AH5//ALY3jD/hIfi1caVG2+00eBbVfm/5a/el/wDif+AV4PJWx4t16XxJ4j1XV5/+Pi/vJbht/wDeesSvpaUeWHKefL35BHT6ZRVkBT/LoRKfUAMp9FFABRTqfQAUeXRHT6AGeXT6KKAJaKKKsAplTeXTPLoAI6KESn+XQAR06iOn0AMp9Hl0eXUAFPo8uneXQA2nUeXRQA3y6dRRQAU+meXT/LoLCn+XRRQAU6Om06pAKbRTqoBtFFFADvMoR6fTPLrIsfT6KZVgPoooqACnVF5lP8ygB1HmUUUAPoplPqCgpklElNoAd5lFFFBIU2SiigBlFP8ALpklBQUUUR0Eh5dMdKfTKCgooptADqiopklABTZKZJRJQAUUzzKPMqwG0UUygAooooAidKZUslNoAZ5dFPplADJKbTqKsDzWpUSmR1NHXUcQR1KiUyOpqACnR0U+OggfTqbRQA6On0yOn1YD6dTadHQAU+Ojy6fQA6OiiOigB8dFMjp9AD6KZT6ACnR02nR0APoop9ABHRJQiU6gkKKKKAG06Om06OgomplFFBIU+iigA8umU+igBlFPooKCmU+mVABRRRQA+imUfxUAWLOzn1K6igtommllZYViT+Jv4K+xfAHwB0z4RfDy78Y+IbaO/wBVVV27/nSJn+4if99/ermv2PPgbP4hvk8S30DPbxbvsaP9z+68tfWv7S3g+Sb4E+I7PT4t729itwqbfnbynRv/AEFKcvdiZ+0j7SMT4F8W/FG7uL+V/P3/AO59xa5e58ZrqvyXkEdzu/56rvry7VdVle8f5qqw38u75t1cMap7sqMT0ubTdM1L54t1s/8AsNvSpdH8Btf3/wDpOqwWemf8t7vd5T7fvbE3/L5rLvVf4awvAeg69421dNM0DTLnWL1/+WVou/Z/v/3Vr7y+CP7C7QRRar8QrlbmX5WXRrRtsSf9dZf4/wDgNddOR4+InSpHhWvftgS+H/hpceEvDngm78N7PIXRZYpfNSWJHdZXd0+838W75l3ffb5K+Itev7uZr2WW5a582X/TIpfndW/3/wC7t+5/DX7GftDeJPgroPgZ/C/iW2sbi0gj2RWOmqiyxN/sN/C1fjt468Os3i24i0iee50/c6wXdyqpsj3fx/w/71KrTlGPMTh60anwnU+FfiJeXzy6PeW0sz7VazldN7qv8KPs/wDQv73/AI73mpTaV4Y0S41DxLc3NhK0Sy2GnpF89187q77v4fKZPmVvvK9cj/wlGjfDTw0kVjbf2l4t2xS2viGKd0SBdn+qS3ddrbWT5Jf4levOte17UvHPiG71DV7prm6v5Wbf5Xz+a/zfcT5fnb+7XPzcp3mx4w8Z6r8QtWS7ngtrO38pVS0sYvs9pb/cXen8K79vzf7X+3T9Et/syvFAn+z9r2ujyr8/ybP4V+f/AHqZpumysnlT+X9nX7sSfc/j/j/i+/XZ6JoM94/yr8i/Mzv8n/fdSBU0nw9v2fdr03wH8Pb7xbLcRadbRw29uu681O7byra1X+/K/wDD/ubN1egfA39m/Vfio7XPzab4ct/9fqzrt83/AGLff/6H/wDs1hftCeIYNH8by+BdDgW28OaHF50WnbnSK4Z4v+Ph/uM0u50+Zv8A4uvRp0Pd5pHFUxPvcsTYudS8J/D2y36Q0esamvy/2hLslSJv7kUSfLF/wLc3+5XkXiTxhfeIbqWWWeebzX3N5zb3avLNKm/srxQ8Cbobdv8AW71ZP3T/AHPv/wCy6f8AfFeh2Gn70Td/4/XfHGQjT5Yx5Tn+q+9zS94h0m5i0eWXz4vO0S6/4/4n+fyv9tE+7/lK4fxh4bufAerfbrNfO0xv3P8Af2q//LKvVrO2SH5dq7Kq36W0sCaJcxw/ZZFZYHlbYjL/ABxN/wAB+5/wCvBqe+epE8Lkl/4Rm/TUNPlZ9NuvvIjfxfxp/wABruPD3jD7HqWmMzRJFcSqsuxdjOr/AMdcr4k0RPDF/cWLy/adMuPlWbb/AA/3/wDeT+KsKzb+z2uIJn3yxMrRbG+8tYxkWfUr7/4qPLqvol5/aWg6ZffwXVqrf+yv/wCPI9Xa9XmOci8uneTUyJTvLpGQ1LWrUNmtCJWhbQs/3aXMacpElhE6/dqlc6V8/wB35K6KGw2f62nzJ5z/ACr8lZ+0DlOEudHb+7XP6lokvz/JXqf2NH+/Q+ipN/DR7cPZnhVzoku/7tFno7ebtr2W58JI/wA22s9PCWyX7tYyqF8hleEtDZ3T5a0PH/h5tto21vu13XhLw8u77td94k8BrqWiRM0XyfMtebKp7x0xifPMNhaeGPD93q/msn2eKJpZU/1q+a7qiJ/d3bPnb+Ffl/jrw3WPG2p+OLzTIrqWVLSFttnaW6/urWL+5ElfVtzojW1lLaTxedF5TW8sT/clif8A2P7yf+z/AN+vLNY+D62rfa/CuoQQxP8AN9kvvn/8f/8AQd1RKJ6eGqU4+7I5Xwr4k1TwbrSXehvbO8W5V2+U+75Pn3I/+5/9lXoHjn9p7xV8SNUtHfSLFP7Ni/s10is/3W3/AKas7vtbar/N8tO8E+JIPhv4auNF1H4d2msS3ErNLfPPE9w/yOqJv+fbsZkb5fvVw/iG8/ti6leLSrTwfo7su60t5fNll+5/H97+F2/ur8/y1Eacj3K2awtFRj8J23g/xVdv4VSC8l3o+pyta3D/AMUWz5/+A7v4a0k1tNyV5e/iRWkiitl2WlvF5UCf7P8Afqxba22771d8Ye6fJ1anPLmPdtB8SfKi7q7XTb/ev3q8K8Mak77Pmr1rw27zKlYyiRE9A02TfW3CnyVmaPb/AHK6uzs645G8TM2Sr9xmqvNeTw/8tf8AvurfifxJofgzYur6rbWcsq7orT55blv9yJPmrj9b+J2n20Tsun6oiK23zbjTJYk/9m20G/sp8vNynR/8JDPC3zNWhYeMNj/NuryS5+Mehq+2VlR/7nm//YVSufjT4es/m+ab/Yi+er9jKZz80T6S0fxhF/ermvj38drbw98MtV0WCdX1PVoltYod2zyov+Wr/wDfPy/8Dr5t1j4/ajMjxaVZwWH/AE1m+d/++K8u1LVbnWLqW5u7lrm4b/lrK/z100sJ/Mc0q0SJ/v8A3aZR5lNr0jiJfLo8uiig1COn0yOn0AFHl0U6gAjp9Mjp9QAU+mUeXQA+nR02paAGU+OmU+OgB9FFS1IDKPLo8un+XQAUUeXT/LoAZRT/AC6PLoAdRRRWoBRT6KyAZRT5KKAH0Uynx0FhRTqKoAptOooAb5dOoptSA7y6KPMojoAfRRR5lQA+iiirLCmSU+igCH+KpqZ5dPqiB1FFPrIsPLop9MkoAZJTalqKoAKKKKACinU2goKZJT5KZVgFFFPqACmUUUAMptFElBIymeXT46JKAIqZNT6ZJVRKIqZUtN8umAyin0UAQ0R0/wAumUAElNp0lNoAZJRT6ZQAUyiSirA83qaOmIlPrqOIdT6I6fQA6On0yOpo6CAop1FWAU9EojqWOgBvl06OiiOgB9PoooAKd5dNjp0dAD/Lp9FFABHR5dEdOoAbHVioaEegkfRRRQUPo8yimUEktFEdPoAKKI6KACiijy6AH0yn0UAFMp9FADKKKKgAoop/l0FDKK29B8Ja14kfbpmmXd//ANe8Tuif8D/hrov+FR6nZpv1XU9I0RP+n6/Tf/3wm9q0jEmUjgo67D4XeBpfH/irT9IiVtkrbp9j/wAO/wD/AGF/4HUs2ieDNKf/AEvxU14/9yxtf/Z3/wDiK+mP2GfCula943u9T0+Kf+z7Vd0T3e3f8n+5/tM//fFXykSqcseY+0Phf8PbXwL4X0/T4IlTyol3bF/2K7LUdOi1PT7i0kVfKlXb8y0+H5VSpWbCVxylzyPnJVZc3OfjH+0J8BNc8GfG678J6Hpk9+97Kz2KRL8ixfe+d/8AYr034Ofso/DyzvIpfiV8StNe727pdG0yd0iX/Ye4/wDif++q+x/2mNC0yxvtE8X32krrFlZy7dRsdvzXFv8Axf8AAk+R/wDtklWPHHwB+DPxj+G7X1tZaalpewebbazpjbJf99XT7/8AutVxp04+9KJ9D9aqYinHlkcvN8ePgl+zn4eex8Mf2e+3/l30ld7yt/tv/FXy18Yv2+/FfjyK4sdD/wCJDp8vy/um+evm34neA9W+EXjTUPDWoSreeU261u4vuXET/cdK4TVdY+x1r9YhDWIRwMfte8dRrHie51W4ae+uWuXb70srVyt545lsLW4gtGidJfvO679zJ/cridY8TSvK6q3/AACsrTZlmvk+0s+1m/g+/XDUxcpnoxoRgdPbWGoapb3F8ts1xasdssv39rf3/wD9n/vmuu0Szs79Ui0hfn2/vZpfvy/7H+7/AA/L/wADVK2dY8N6l8Fr+01HTrldb8KazAzWepov7q6ib78Uq/wt/C6//tVq6Ho7eJ9SS7+HdnO9wzbvsiLv+ys+9UdN/wDyybdt+b+LZv8A4N8wiaGloPgl0iS51B2T7u20hX5//sa+u/gh+yj9vtYtc8exfYNHX5oNE3bHl/uPK/8A7L/6B92n/so+DND8MavrGmeMbaW2+IGgss09pfMjp5T/AHLi3/vff+//ALaf30roPjf+0C1tu0/TmWFP96vo8Fg41fePnsbjKkZezidB8XPjZY+FdN/sPRVis7SJdqw267FRa+Ifid9m8Z6y+oXDSfbdu3zkb52X+5/u0/xJ4wl1i6eWWVndv46595nmerxlanCPs4l4LDyj78jn9H8KxWDP93YzLuf+Ntn3K7CFFhSqSbYV31matryWyffr5uVQ92MTVvNVitl+9XD+JNYXUonid/lrP1LxI9yz/NWE9y0zVjzFmJquvahcyJbXLM6Rfe/2v9utvTdHSG3sr7U4t6eV+4sUXY0sX993/u/f/wBqqlzZwXksTSqzov3tn8S16n4DsLH+3pdT8Q6Ut/pkcX790X/Ub/40X5PufJXPUqeyiexluXVMfU5YnQ/DOCKPwXZC33FGdm2t/wAsvkiZ4v8AgK/xf7ddZHXGprel2vii7Tw5bT2fhy/bzrG3m2P9nl/uO/8Atr/D/uf3K7CF/k/2N+2u6jU5qZwY3CSwtaVORYpyJTU+5ViOunmZwcpYs7be1bEKLCm1VrMtpNjpWgjt/s1zSkXyj5KlRPkplWET5KiUi4xCGGtC2tqihStWzT56xkbcrHw6bv8A4aP7B3/8sq6PSrNJvvVuppUSru21jKQHP+G9J8m4+7XsfhuwttS0m4tJ1X51+V3rz+Gz8m6RlrpdK1L7Hs+auORpEzPEPw6tLxn+VUl/9Cry3xP8K083zIvkl/vxfI9e5X+t+cn+3XBeJLmebftWrjUkHKfLXjn4b3jpL/pP/jteOal4eudHldfmdP4t7V9e69pU94j71ryrxP4P3o/y130pfzHNI8MS6rQ02Znbaa09Y8KtbSvtWjR9El81Plrs90xPQPBls77Plr3bwlYfIleY+A9Ef5Plr3vwlojfuvlrzakjoidLo9h8qP8A+gV5L8b/ANpCLwfey+FfD0sqaxu+zz31uvmvbts+eJP9r/a/hrvfjT4tn+Hvga7+wt9m1K6X7Fa3Cf8ALJtnzy/7W1a+B/8AhCde0edpUvLK8uGlaVnRt77v+BolYxienh/Z+0/efCeseIdJ8f8Ag3RNM8Rak8nh7SteZmi1GWXfc3XybneV/wDW/d+b+7/s1U0f4o/E/UtU+yfaZPKiaWb/AEuBPK+RE3/fT721krC8Q694/wBb0bT7O+vru/srdIms7S7uleKwaJ/k8pN7/wAPy1YudY1C/RP7QuftNxtiW6uHi8rzdifc+T7333+b/wCLp08PzyPfr5tClh/Z0zS8eeKovGF/bypBAn2WJrdLiLenmrv/AO+tu3+9/f8A9iuf+9R/Cn/fNPjr3Yx5InwNSfNLmCn0yn0GYU6iig1H0UU/zKgBkdS1FHUsdQAeXT0SmU+OgAop9Hl0AMo8yijy6AHx06Omx06gB9PjqGnx0AWKKZ5lHmUAPp9Mp9ABTqbRQBLR5dMjp/mUAHl0+iipAZRRT6AGUU+meXWpY+imU+siB1HmUUeXQWFFFFUAUUUVkAUUUVYBRT5KiqgJaKI6KksPMop9FADqKbRUEDqKKKCwooooAKKKb5lBQ7y6PLpqPTqACm06m1ABJTKfTJKsAp9Qx0+gAoplFQSNkpklPokoKGR0+SmR0SVsBE336ZJT6ZJQAyim0VADqikp9MkoAPMpjvRTaACiiigAplPkooAZTJKfRVgedR0eXRHTq6jiHolS02OnUAPRKKI6fVkB5dFOo8ugCaiiigB1PpkdPoAKf5dM8upaACOj+KiOn0APooplAD6d/DTaKACnUeXRQSPooooAfHRJRHRQA6Oiinx0AFP8unIlTJbb/wDfqAK/k1L5dep/Dr9n7xF488qXyGsLJv8AlrMvztX0r4L/AGTvDWjojXcC38v8X2j56s05T4XSGn+TX6haJ8JdDs1RYtMgRP8AYiSugT4M+Hr9f3+g203+/Aj0+UUvcPyd+zf3Vpjw1+pet/sc/DzxIj+b4cWzdv8AltYt5Tr/AN8V454//wCCdLeU0/hDxGqf9Omsr/7VT/4iszLngfCjp8lWNN02fUr23trOCe8u7j5YreKJnd2/2E/ir2P/AIZX+INt4wt9D1Pw5d6VuVm/tO7ZH09FT79w8qfL/wAA+9/s0fFb43eHf2b/AAr/AMI18K4PtniO6TybzxjcL/pNx/fS1/uxf7v/AI/96gXN/KZU3wQg8GWcV98RvEun+DLdl3Jpzt9ovnX/AK5J93/gT1Rm+Ivw58K6Xbz+GPD39sXbTssV9r0vm71RN3+q+7/En96vk/Xte1XxJf8A2vV7m5vL2V9zPK3my/8AA69I8GfAHxr4n0RNTvIovCvhpm3f2zrc/wBnil/3E+9L/wABRqyjU/lOn2f8x1fi39pbxHry+RPqHk26Ltit4m8pF/4Cleb/ANvaz4huPKtoJ7l2bauxdztXqtn4P+F3gPe1x/anjy92/fll+waf/wDJEv8A5Cqa4/aE1XR7V7Twumn+D7Rvl2eHrNLd3X/buP8AWt/wJ63977Q/d+yY+ifsx/E3XrVLu70FtE09v+XvW7qLTU/8mHTdX3//AME+fB8vgvQ9V0y5ubW+uLdV/wBIsZ/tFu+6WX7kq/e/+wr82NS8W6nrF09xczz3lw33pZZXd6++P+Ca3ip7m1l0ydv3qxS2/wDwJJfN/wDQbiintI48ZzeyPvhPuUTP8r0ysnxFrS6XZPK/92sYR55cp8rUlyxPIv2jfEkEPhO9tJW/1q/981+Zt58XdT+GN1e6RFPP/wAIvdS7p7SJ3/0WX/llcW/91k2/d+62za/302fUX7SHxLa8e7i835Pmr4P8YXn9q3Eu5vv/AC19BiaPsqMYnpZXzfaN74ieNv8AhOdO+1XcqvqFhtZX3b92/wDuf7Lrs/4Fs/v14Preqvc75d33m+Wuo025ltrqKLbvlh3LFE//AC1X+OL/AOJ/2v8AfrhdWj230iouxHbdH8275P4a+Qqn18TPk+Z6lhhab7is+371dV4L+Hup+ONZi0yxgaa7l/h3bET/AGpGbha/Q39kv9jb4b+G4n8Q+P8AUIPEOq2T/Npm3baQN/t7/wDW/wDoPz/x1VDDSqnPWxMcPH3jwn9lzwN41vPBGtr4o8MT3nwdlXdf3d2mz7O38Fxb/wB/b8m/b/D/ALtXvGHjPVf2abfWPCtneLf+HNRVprG4iX5It6bUuInT7zbfvK3y/wASV9YftCftY6XpWnXfh/w15CW/leV8kSbNv9zZ93bX5y+M7b+1Z988rPaN8sG9n/0Vv4ET/P8AHXsYjDyw9OJyYet9YkXPCHxk8SWOuafq51B2u7WVjBcXku/bv37reVvveU/z/wC61dt4q8eT+J2+0ybkllb5oX++rf3Hr5/uUn0q/lWeLZcfdnif+JX/AI//AB+ur0282SxPGzXNxt3Ls/5axf8AxS/xf7n+xXJRxdSlGUTqqUIzlzHcWzb1q79oWFawn1WKG383cuz+Gud1XxOz/KjVzSq850xjyHS6x4kWH7rVw9/qst427dVR5pbl/m+etCw0qW5b7tc4FJNz1pab4eudSuEiiiZ3b+BK77wx8MZ7lEnuf9Gt/wC+9ehWcOm+Fbd1tIlhfb80r/faoL5Tj9B+F0Gm2ctzqW1JWXaqfxpvrlfE+pam6afp2q3KzPFE0UFvbt5ry/3H/wDHv975Pu16A15q/jBZf7KXybRfll1O4+4n+4n8VS6J4V07Qbj7Yvm3+ppuZtRm/wDZP7tZSjznpYTG1sFzez+0conwu1Pwla6fqGqtF5TKsrWkU/z2u/7ju/8An79dxZzL5W75d7N/B9zd/sU/UtSttKguJb6VdjLt2P8Acb/Y2Vxmj+J54dXSC5WS2sriLdZo8u99v+3/AOyV00vc904K1SVafPI9Gi+6lWI6o2z71+WtCGuzmMSwn9+r0dVETcm2rcPz/NWRZYjq7DVSOr0dZyLLUKfPWtZp89ZUP3q1bb71c0gOt0Wuthh3xVxujvsau1s5keJK5pAUrxNmx6ZM+z5qsX7/ACVU/wBbb1EjSIPdVSufnWh321SubmmSZOpQp89cVrdgs2+ur1K8T+9XL6lcq++tYkyOB1Xw9FN/DVXSvCq/aPu12Dp5zVtaDpW+VPlrq9pyRMeU0/BPhn7ny17r4V0H7Nb+ay/drn/Bmg/Kny169YWC21vEn/Aq8yUzpjExLnwrbarYJZ31tBeW+/c8Vwu9Gb/crmtV+APhDWPNefSLS2/ifymaKvSLm5itk3tXk/xd+Ltt4G0N7tmV5f8AllF/eopc8pcsRHzT+0VD4e0PXLfw5odtbJb26faLp0i+fd/Am/8A77rx2StDXtYvNb1e71C7l869upd071n19DTjyROGUueQzy6fRRWxIUUU6gBtS0zy6fQAynx0eXT/AC6ACnR0eXRHWID6KKKACiiiriA+imU+rAKdHTfLp0dAD6fHTKKgB8dOpsdOrIAp9Hl0+qAKKdRQA2nUUR0AP8yiOiiOgAop9Mqyx9FFFADKf5dMp9ZAOoptOoAKKKb5lUAfxU6iigAp9FFSASUyn0yqLJo6KZHT6kAopnmU+gAoop1ABRRRUAFFFNoAJKZRJR5dagEdPoojrIodTadRUANoookqwGUzzKKbQA6myUeZR5lABRRRQAzy6ZT6PLqAGVFJUtNkqwIaiqWm+XQAUzy6lptAEMlFP8uigBlFFFABTadTaAGSUUSUVYHnlFFP8uuo4h8dSx1XqWOgB8dPqGnx1ZBLRTfLqWgB9Hl0yOn0AOp9Mp8dAD6dUVSx0APjoplP8ygB/mUUyn0AO8uiiigAp8dMojoJJvLo8umU+gB0dPpnl1MiNQAxEqwkNS21szuiorO7V7h8KP2YPEPjmW3udTibStM/i3r87L/7LUFxieS+G/Cup+KtRisdJs5Lm4b+5/7PX118Gf2UbHQfK1PxDtvL37ywuvyRV7X8OvhFoHw601LbTrOJP70u352au7hSJPlRanmZ0xpmTpvh6CziSKKJURf9mug0rQd7f7FLbJveut0u2RESrjIxrS9lElsNKhtk+7WkiIlNjqWsZSPnqkpTH0+meZR5lQZGdqNvbapDLp93ZxXNvNEyyxzRbomX+5/tV8tftIfsGeGPjBZ2lzocq6Dqdku21i/5dFXe7bPKX7q/N/DX1nJVWaTZW0Re3lS94/Jz4haD4Q/Yknis7H4fap4k8atuaLxJ4ntUexXZ9+W3RGdWZfvf3lrwe/8AHnxD8fs/iXUbxprfUZWWK4llT5W/uIn8NftF8RfAeg/EjQZdI8Q2MF/ZSrtZJURq+J/H/wCx/Y/DqV5dPXUL/wAP7maK0t2TfFvf+B3X/wAd+X/gdX7Gp9k9nDYunVj758Ww+Cb6/Z57udpnb7z10GifDdr+V4rGzkv5V+8kKvL/AOgV7HrGq+APCV+9j/ZWoalqaL/qk055XX/Y33H3f+ApWDr3xv1y8ge20jStP0G3/hTULzzZV/7ZJ93/AL4qOWZ6nNAi8PfBm73I921po8X8Uszea6r/ALib/wDx51rsP2aviFpnw++M15a2N5Lc29rLFdSu6qny/wCquPkTev3WT+99yvFPEniHXNY3z69rl3c7vvb4HiRv9xNnzVj/AA0f7N8XNEnggntre9WWyZ5f49yPs/8AZK2pw5ZHNXfPT5T903vEkhSRH3o33XSvH/jZ4naw0u4Tf/DWD+zr8WovFnw9/s25nX+1tGVbeVN3zNF/yyf/AL5+X/gFcL8e/EnnWtwlepgsP++PhK/x8p8ZfGnxO1/f3HzV4Jfzb99el/Eu8Z7yWvKbmb561xsuY+mwMeWJha4n35V+/wDK3/fH8FVdeddVt7TVFi8mXdsn/wB7/O//AL4q/fo03yp/F8tZVva/8Sm63SqiMrN97c+5XT5/9n5a+Vq/EfQwPa/A2sab4R0SK2ilW2u2VWab+9L/AH3rW8c/G7VrbWIbXT73ydO8pUnVGfdKu9/KlavE7nVd+kRSJ/dXdsqrpcy3MsrNu/48/KZ/9quiGJlHl5TKVGM/iPTby5n1K4dpWZ3/AL9P+x+dZPE38fy0aPbeTaxeb/dXdvqlr2trbJsVqK9eVX3pFUqUYROR1vR57jfF8r6hart2J9+6i+ff/n/f/wBisTTbuO3kdBLiGY74rgEI9vKBk/8Asqs3/AudtXn1i8+3/abaVkli+XYjf61X++lV9VtoYZYdQgTfp903zQ/c8qX+NE/u/wCxXBzGxq6rqT3lr5vkfY5U2rPb/wC1/fRP4VrMtreW5b7tbOk6WviRreeH/j7T5It/3LpV2fuv95d33f4l/wDH+/8AB/hXSobJ768labyvmli27Eg/3/8A4qkBzvhXwNd63Jsii+T+J3/hr1rQfBmmeG4klbbc3CfxuvyLVjRNb0+bTYltols0Zd0UXyfd/v8AyV5745+MUGjzy2OmN9s1D7rP/BFUGx2HjPx5p/hu133dyqSsv7qJPv1xNt4q0fW7pLnVtetPm+dbTc7on+/8vzN/47Xm2m3ja1Pez6qyXn2j5WiuP9a3+0j7Pl/z8tbV58KLq20uK+tl/tXRfvNdxLsubX/YlT7yf+PL/tUEHu9jfrqsX7jUINSRdqxJbsn3dn9xKr+ME1XQbeJls/ORtv8Ax7sj/e/8eX/vivFx4a07QdGtNXn1iIRXSszWVvP/AKWjb32Rf3fu7G3N92sWZ9X1rVHll1q5eVYlZf3vm7fk+5/3zQB6Rqs1joMSahrlys1xt/dRJ86f8AT+L/erznxJ4wu9evPtcStbRQsrLEn3/wDfeo/+Ef1LXrPdqF2z+VtWKW437m++2xPl+b/2X56d4h8JS2dnE1i7Tbf9fFt+9WkYSl75EpHrvgDxgut6dFvb96q/N/tV6HburrXyz8PfELaPqPlM2zf92vo7R79by1RkraMuaIHSo+yJquwpsRF/u1mwvudF/wBr/P8A7JWlDUlluOrsdUoauw1nIC2n8Fadr3rMhT5K0LXvWJZ0emv5bpXRQ3/kxferlbN6uzXNQBsXOpb/AJKfYTb0da5xLqtOwudkv36iUSi1efJvrmtV1Lyd/wA1burTfI7V5l4n1JkZ0opx5iZSGarryJv+auXvNeV3rN1K5lmrBmml82vSjTic0pHoGlXP2llr0vwfpvnSp8teVeEo2mdK998AWHnSxVwVvdN6Z6x4M0Tf5XyV1t46w7/7i0/w9Z/2Xokt2y/dX5f96vL/AIwfFTT/AIe+G3ubmXfdyttgtEb55dn+fvVwRjKcjcyvi18VLHwfpctzPL+9/wCWSbvvV8U+NvGeoeM9Xlvr6Vt/8MO7/VUeMPGGo+MNXl1DUm/0iVt0SJ9yJf7iVztfQ0KMaR51SpzB/FTnSmr9+nSVtIwCiiiOqAKI6KKZqPp8dMp/8NADqKbTqxAfRTKKAH0U+itgCOiiisQCiiitgHU+oqdWID6PLojp9WAR06OmyUI9RygS+ZT6h8yjzKAJqKZ5lM8ygCanR02OipAlpkdN8ynR0ATUyjzKKACn0yitSx6JTqb5lOqACmyUUzy6AH+ZRTPLo8yrAfTqbTqgAopvmUVIEtFMp9UWFPplFSA+iiiSgApnmUSUUAHmU+mUVAEtN8ymUUAPkplElHmVYD6JKh8yn1BQ/wAyjzKZRUAP8ymUUySrAKb5dFFADKZT5KZQBMj0x3p9MoAPMp/mVDT46gBlNkp0lNqwGUeXT/LqGgAptOkpslADPMpklFFABRRRVgFFFNoAZRT6hoA8/p8dMp9dRxD6ljqKpasAjqXy6ijqWoICn0ynx1YD46d5lRR0+gB1PjqKOrEdADKfHRJRHQA6iiigkfHT6ZRQA+jzKKJKAHU+mU9EoKHolORK2PDfhLV/FV0lto+lXOpS/wBy3i317n4J/ZC1e/8AKn8S6vY6Db/xxbvNl/8AHPlWpA+fIbb/AGa9e+G/7N/irx41vP8AY203T2+9d3y7Pl/2E+81fVvgD4OfCv4deVL5sF5qC/8AL3d/vX/+xr1uw8Z+B4fl/tNf+ANtrb2YuaJ5T8Lv2ZvDHgDyrmeL+1dTT/l4uP8A2RK9jhSKFNsSqiJWrpviTwZef6q+gf8A7a10FtYaNfr/AKNKr/7jVjKIfWKcDj/Mo8yuum8J2z/6pmrMufDEqfdbfUcrOmOLpSMdJmSrcOpTw/clZKhm02eH761X3sn3qj3oGvuVTo7PxFdr97a6VsWevK/+t+SuE+0qlP8A7VRP4qtSjL4jhqYSMj0uHUIpvustS+cv9+vLP+EkWH+OpofHiQ/fb5K2jTjP4TyqmGlA9Keaqs1ytcZD4/gm/wCWq1K/iqB0/wBatbxw0jzKkJGhqVzsSuN1vUont5Ypfnib5WSrupa9Ft+9XnXirxIiK/zV69Gj/Mcnvni/xp+Gltqqy3NjPLbNtbcif+zo/wArL/ndXyP4nsLvwqn/ABOfEM6RN/zy228X/APKX5v91a+wPFXifer/AL2vEfGdhZ62ksVzErxS/eR13pW1bDR5fdPYw1aXwyPm/UviB4Y0tJfsMTXNx/fii/8AZ3/+IrO8J/EZ77x74WeWC3trcajE2/azS/f/AL33aT4hfCK50TzbnSka5tP4ov41ryWG8ltdQiuYvkeOXzF/2a+WrVKlKfLI+gpxjOB+hWleNrn4M/FXT9VeVU0zVIFt5Uh+5/n/ANmr0L4o+J01KwllVt6MvyvXyV458Wtqum7Ubf8AduIv/Qq6vwx8Qv7e8Hpayy75bdVX/gP8FfTYatHm5T5zFYTm/eHCeObnfdS/NXnVy9dr4tm3yvXCXL1wYuR6OFiVZpN9V7N1S9ltpdux2Zd7/wAKun/xLVK336x9efyb1P4N0StXzdQ9uJY8PbZoJbaX+H5WR663QdEitoovNlV0Vtypt2bv9+vPdNvGS883/nr96u4ttV2RJ81Y05FnUX+q/Y7d/m+dq4y8vGvJXpl5fvcvV7R9Ka5lT5aJSAl0fTfJ/fun3a0JtKVPtbSxbNMulX7ZFt+eL+5cJ/s1L4502ex8L/uoGeKWXbK6fwr/APtVvfBzwrrU0qQarZq8VrKrQO/z+av9z/aX7lY8zLG+CdBTwBZW+q6vfedKzt9lt0bfviRNvybf4vnf/drr9e0e78W3vmr/AMSGK6VvIdPvuu/791/s/L96jxh4Y0zwfrL/AGvamj3Cy/Y7h97vpcuz5/k/jVv/AIj+P5q4rxB4+mWDzDuSJfla0Zt7yt/Dvf8Ai/gf/e/23qgIfGlzP4S/dPbLD96ZZYZd6Kzun72L/Z+/XL23g+K/ZXtolubSXazbG/er/wADrk9U8Qajq2p/2lO8k0sW1Wf7yL/cXbXX+G/En2W4SDSryKzu2Zd0Vwv+jz/P9z/pl/n5qnmYHW+HvhXc6lfp9m/0+JV+VNu3/vuvSPG3w31D4daumveDL65udJT5fsm50u4lT+/8/wA3+7/d+/UXg/WE1JrexgibR9Tum3NYvLsSfZ80Wx/usv8AF8v9/wD3Gqv8VPiLFpK2/h+CeX/hJb9Iopb528pILd9/yb/+B/e2fLQWeT+J/Gf9veIYrvXNI0t/4m+z77fd8j/I6Js+bd96tbwNbaZqX2uXVdKbSkuk3RPp/wB+6iTZ/o6Rfd+byn+fZu3f366d7DwZ4bliaCLUNYu0g826vr6J7dJ5fu/J/E0XyP8AKzrWb4n1Vdbuomn0q2s5ViVVSGz+zxJF/sJufd/vf7FbU48xjIZq2pRalq93PBY/2bZbm+y6cjb0tV/55I//ALNWfJRRXpRjyHHKRzmveEkuZft1n8l2vzMifxV3fgDWJ4YkguVZN39+sqrFtN5L7v46iVMuNQ9d0253z/w/dWtiF64zwvqqzRIlddbPXHI7ImlC6yVoQ/PWfDWhbJWBZet/u1pW0NUrZGrVs32bN6/98VkBehR0WmXk2xa+a/idJ8Wte+ImrDQ72/03R7V9tqun36xRfcT73z/M1Msf2iNc8G3FroPjzR7lrryldr1IliuG3/xbD8rL/u7avlYczPoqG/V/4q1bCbe6V5r4b8YaR4tie50XVYL+JfvJ9yVf+AfeWu30S887Z81EohzM6a/Tzoq8n8W2bfbf9ivYoUSaKuX8VeGPt8W+JfnqKfuESPN4dKV0+eL/AL7qlf8AhiOb+HZVfRPDzJr1w99Ls1Dc3mo7bP8Avj/vmute2lhd9recn+781bc0g5Rvg/RPszJvWvor4b6VvliXbXj/AIVhimZNlfS3wf0f7ZcRfKz/ADVw1pG0Ym18VPFWn/D3wglzqUqw2kC/aJ//AGRP+BN/6BX5tfEjx/qHxC8UXer6i2z+GC3Rt6Wq/wACJX0b+3/483+N7TwvbSs6WsS3V5En977sSf8AfO9v+BpXyO/yfL9+vSwlPljzHHWn73KG/dTaKK9E5QoplP8AMqAHUR0UR1ZqFFFFAD0en1DHU1ABTo6bTvMqAH0R0ynx1ABRRRWwBHT6I6KACmU+nUARR0+neXTaAHR0/wAymR0+gB/mUUyn0AOjptFFYgFOop9AAj0Uzy6f5dWA+nR03Z8lOqwCjzKKPLqAH+ZRTKPMoLH0+OmU+gAp1NoqCApnl0+ipAKKZRWpY+iOiisgHUVFHT6XKLnHU+meZR5lMY+OiSmUSUFh5lHmU2igCWmUeZTaCB1HmUUUFh5lN8yiSmUAS0+mR0VBQ+iovMo8ygB3mUU2igAoplMoAfJTKKbJQA7zKPMptOoAKfHUUdOqCQptOqKSrKDzKZRTaAB3okoplABTJKfTKAG0U7y6b5dWAUUyigApklFNkoA4Gpo6rx1YjrqOIKlqKpU+5VgEdS+ZUVFBBL5lP8ymIlPoAfTvLpsdOoAf5dFMooAmooooJHUUU+tQH+XRTKKAH0Uyruj6PP4h1KKxtFV5Zfu/+z1kA/RNHu9evYrTToGubiX7qJXseg/DHw54PiS58UXP9pXv/PjE37pf99/4qh+02Pw30h7Sx+e7l/193t+eX/7GvPde8VT6lM+yVn/vvRKXIbRiey3/AMb/AOx7L7HpEUGm2i/dit1RP/QK4q/+M2o3O/8A0mV/+BV5ZNM3/LWVnrMvNYS2X5awlWOn2Z6Xc/E7UXbe07bP96qT/FeeH/l8/wDHq8M8Q+M/sy/M3z/3K4K/8SX1+77p2RG/gSsZYmQ/ZxPri2+N/wBmlT/ia+S/+3LsruPDH7SGr2bo9pr0n/f3elfn5vqSGZoXVlZkdf7tKOLkT7CMj9Z/Bn7aWuWHlJeSxXkVe8eDP2uvDmvbIrtvsbN/fr8RdI+I2vaO6eVftKn9y4+evUPCf7QUW9U1KJrN/wDnrF8y12QxUJ/EcVTBRl8J+4mj+NNI8SRb7O8jmT/fq3c2Ftdfw1+V/gP42XdmsVzpWq74v9iX5K+kPh3+17JD5UGr/c/v13R9nL4TzZUa1L4T6lv9E/55NXO39hPDv3pV3wj8VNF8YW6NaXcbvt+5XR3KR3K/LtqJYaJdPMJQ92Z5jco1YV+jf3mr0jVtBR/m+5XJalpUsLP8vyVxVKcqWx69KtSxETibma5tfus1Uv8AhJ7y2/ibZW7eabL5srfLs/hSsW803C/dqqeMlAKmGjIr3Pjmd12u1cf4h8TtMj/NWxqWl/K/y1xOt6bLHvr0qeOPNlgonNaxqrTb33Vx+pXLTVu6lDKr1zt12rsjiec5pUeQwdQ/fLtZfkrxr4ifCWLUme+0hVhu/vNF/DL/ALle4XMO+se5tmrGtTjVjyyNqdSUTxK2uZZNFt0lVklt1+zyo/8Asf8A2OyjwfrbabeNAzf3ov8A4ivRde8NwalFK6r5Mu3/AL6ryLVbCfQdR/eqyfw1wcsqUzp92rE6rXpvO31yty/z1q3N551vvb79YUz1tXlzk048hC7/AD1l+Mk/d6fL/eiZa0v4qPEFuLjR9Mlk/wBUlz5T/wC61eFW+E9GmcjZv+6f/Z+at62vPOhWsR4W02+2fw/wv/eq7Z/63b/B/DXFE6To9NtmuXSvUPCWifKvyfPXJeFdK3uny17L4b01U2fLRKQRNvStEi8ra0W+ugR7bw3YXE+1YUVfm/v/AP7VMs4fJi3f3a8M+OvxRdGTTLGX5IvmbZ/e/v1BZy/xL+J0uva8ituR1+X/AGIov7iJXO3nhifWPKu7Fmmlb5lRPn3fxfJ/8RRo+jxeJtL2uyvcL910X51b/bq3p633hLWEsb5f9H+ZVf8A5ZS/w7//ABz7395KsgyfCumz3N0kSxbIpW8r/gVel/8ACmYtVgeWJWhdf44tn/oFaXhuHTvEl0k63zaVqH3f7R2b9/8AsXEX/s38X+3/AAepw+JIPB9k8XiHw9PDequ6LU9Bn/dbv7+z7i/+O/x0AeQXHgbxr8ONM3RFNX0p4vP8r7+z/gDbGX/e/wByuL1KbQdYd7u4l1CHUpYvOaHd9oTd/An97/a3V2nxa+Jmm61fDTfD+q3tzYyWsX2qa7VIom/2E2fw/N8zfLubfVPwB4PttVuv7S1OJbl1+fe/z7ok/g/u/Mv8Wz5fk/v/ACAB4DTxVoumxLobahf2t78v2dFfypZd+77m7978v+xV6/mvLm6eW+WX7bL/AK3fv/8AZ6+j/gJqU/h7xDF4hubOCFFXytMt3i2eVF/fdP8AgT/e+avQf2lvgJafFHQX8f8Ag6Bf7YVd2p6dEv8Ar/8AbT/a/wDQq2pVIxl7xNSPunxJ5lHmUx0ZP++ttN8yvUOElp6PUPmUeZQQdH4b1L7NdJ89eoabcedEleKW02yXfXpHhvUt8SVyVInbTkd3bPWrbPWFZvWxbPXJI6Tbte9aULpDE8rtsVV3M71j2z1b1J9+nfZv+fqVbf8A3l+8/wD46r1gBn6bbM9qksq7JbjdcN/ss/zbP+A/d/4BXC/tAfCdfHHhSyvrb9ze6czbXRf4X/8AQq9Us4d6IzVvW1nFdRPFLEroy7WR/wC7W/MB+bbWeqeE79/M+02eoQ/NFd27srv/AHdn/wAVXpvgP9p7XtBbyNXgj1uJdu243JFc/wDff+f96voLx58Fory3lX7NFeWjNuX5d/8Alq8E8T/AGeHf/Zku9/8An0u//ZJf/iv++qrlMj6N8B/tG+DPEjRWz6h9ju2Xd5V2qROv/ffyt/wGvWEvLHVfltLuC5/65N/7J96vzF8QeEtV8PSN9vs7mz/hVJvnR/8Acf7rUQ+Ktf0GJE0/VbuziVm2eVO+z+D+Gp5SuY/RjXvD1nf/AD3EHnOv3XdfuVzL6D9j+SCeWFP+mrb0r5d+GPxW8ca1rVlp3/CUNbWm39/cX0SXHlL/AH0Xbu/4DXqXxO8fr4hv3tNIWeHSov3SvcSu8t1/01l/h/4Cta06XOTKpynof/CfWPhuV/P1CymdW/gl3vWwn7Xtz4bt9uh2zTXH9+X5Iv8Age+vmT+Git/q0ftGHtpGx4k8T33i3Xr3WtVuftmp3srTTyv/ABM9ZVFFbmA+iiimahHRRTqgyG06m06rNQoptS+XQAR0+mR0+sQCiOiigB1PplPoAZT46KKAJY6bRRWwBHTqb5lEdADqKKKAH0UzzKPMrEB9PplFAD6I6ZT46AHUSUUVsA+On0yOigB9O8yoqfUAO8yjzKbQiVADqV/uUlFADY6lplPjqywp9FFQQMoooqywooorIgKfTKKADzKPMplPoAfRRRQAUUUzzKCx9OpvmUeZQASUzzKHemeZVATUUzzKKAH0yjzKPMqSx/mUeZUPmU+gAd6fTKZQA+imUUFD6ZTfMp3mVABTZKPMplWA+iinUANookooAPMqF3p9RSUAS1FUtMqAG0yiigAkplElFAB5lNokpnmUAFM8yn0yrAHem06Sm0Aefx1YjqvHTvMrqOIsU+OokepasgKf5dMjp9ADvMo8ymx06gCaOnVFHUtABJRRRQBNRTKKCR9O8ym0UAOoptOoAK9Y8H2EXg/wu99P/wAft4u7f/dX+5Xn/gzR/wC3tetIH+eLczS/7qf5/wDH67Px5rDPK8S/c/uU/wC8XGJzniTWJdSunZn37/vVz802ynzTbFrHubmuSR3jLy8/2q4/xDrH2aJ33VrX958j15z4nv2ubjyv4a5ZS5QMa8uXvLh5ZW+Zqgp6JTK4ywooooAKKeqO9PS2Z605ZAXNJ1u+0S48+xvJLOX++jfer1vwf8dijRQ69F8v/P1bp8v/AAJf/ia8b+xy/wAK0nkyx/w1tGU4EfEfbfgr4nXNt9nvtI1Lzom/uNur6g+F37V2/wAq01n/AHfOf79fkzoPiLUfDd159hctbP8AxL/A3+8te0+DPjBba80UF9tsL/8Ah+b903+5/dr1aON+ycFbCRqn7G6D4503xJapJbTxOjLWnc20Vyu35Xr81PAHxg1XwfOm2dprdfvJX1x8NPj9Y+IbVN0q769eMqdU8WWGqYf3onpGq6Ps37V31y95pu9t+2u9h1i21W3TYyvvrNvLNWevIxeDlD3onr4TG+192R5/eaVv/hrl9V0Her/JXqE1nWTf6bvrxPach7HKeFa34b+/ha4TWPDzIzvtr6I1XRN+/wCWuP1Xwxv3fLXo0q5xypHz/c2bQ1m3UP3/AJK9d1jwf990WuUv/DDJ/DXfHEnDKieZXls1c14k8PW2uW+ydfnX7r/xpXqF/ojfP8lczqWlMnz7a6faRn8Rny8h4bremy6O2xl+Tb9/+9XPzTfPXsuvaPFfW7xTrvSvJPEOiT6JdO7fPb/wvUVPhLiZ/mVb1VPtXgvUP+neWKX/ANlrP8ytWwX7To2twf3rPd/3xXlVo+6dtP4znbaD+3tM8hf+Pq3XdF/t/wB5aqWHz7Jf44v4P9mqel3j2cyyr/Cy1095CvnxavbfPby/69P7jPXmxOs9a8DW6XNvFKlesaJbbK8q+Fcypbvbbt+z51f+8r16q9+um2Us7/wLUSLiY/xR8eQeDPD0r/flddqIjV8j3N/PrF1LPL++uJPvV1Xxg8YSeJ/ETxK3+jwfLs/2q5HT7mWzvFuIJ2huF+6+7/2agJHZfD2+aG/t4GvPsFwv+ou9v3G/hR/9lq9q+wWPipYtG1eCCwu/ur5Tfurr/prFL/wD/vlP9ivKtE8B3Pi24intIltpZV+be3yRbfvvv/u/7P3v4at+FfH1zocMun6rAt/ptuv3tu5U3f8As3+1VkHZax4RufA8lx50EmpafB8q6nEv+kWf8PzxfxfL93+9/erKh8eXmlac66Nq93NpkrfutOmVL2KLf8vz+bs2tt/i2V1uieM9OaPbp3iG2e3ZfmsdWV/3C/3IpfvL/d/hrNvPh74c8Q6okqIqS3G1pU0/UYrpG/74X5P+BUAc54Yk0ya9+3ah4ctEu2lbc9o1xvbY/wAyKnm7f7n92vUPAFzp9zBaRNpkGlRQ/vVt0fe87fe3ypv2t9//AGV/365fTfhvpmmy7U0PUry43fc1DfEn8HybIvu/x/eda7Wz2afF5UX2SFNv+qsYkSL/AL73O0v/AAJ6C4ndpqTvdPIzfP8A71ewfCL4kS6JfxRStvt2+Vkf7jL/AHK+d7a/ro9E1VobhWVqg1Ot/ac/Zp+037+L/CES/Yr9ftEtun97+Ovkq/02ewuHgniaGVf4HWv0t+C3i2DxPpb6HeMro/3d/wDA1cZ8ZP2b7HXnllSDybj++i11Uq385zyon5+0V3Xj/wCEOr+BrhvNgaa3/hdK4WvRjLnOGUB1dR4Vv/3m2uVq7ptz9juklokKMj23TZt8aVt2b1heFXivLWJlb5K6JLZkavNkd8TWtvvVLc/vr63i/wCeS7v++32p/wCgy/8AfdRWf3kT+Orumw/abx5f7zt/3ynyp/6Bu/4HWMSzdsLb5Eres7aqNha1twzbF2rUSkUW7ZFRNr7dn9ysnVfCWlar96JUq8jvJVqz02W5o5izz+8+Ev2lJfszRzRN8vlSrXC+IP2YdMvIpbu70O2hWJdzTRS+Uif98V9G3NtY6Pavc3LfIq/Nv+5Xyp8ZvjTL4wuJdM0iVrPSom+aWJdjyt/sf7NdNLmmc9Tlieb6xpXh7w276f4cg/0dG3S3Dtvdm/3vkbb9+s13/hWmb/7q7KZXqxjyRPNlLnJo6KPMopCDzKlqvT/MqSyWimUVkA+n0yigB/mUeZTKfVAOR6fUUdOoNQp8dFFQA+iiitgCjzKZT/LoAljoplFYgP8AMp9Q1NQAUR0UUAOptFMoAlopvmUVtECWimUeZQBNRTEejzKxAloptFbAOjo8yiigB9FFFQAU9HplEdQA+imeZT6ACnR1F5lPR6sCWimeZR5lZAPopnmU+OgB9MokpnmUAPplHmUUAFFNorUsd5lFFPoAKKKKyAZT6ZJRVAFFElNoAdRRRQAUSU2SmVJY+nVFT/MoAdRTfMo8ygAp1NooKCijzKZQAUUUygB9P8ymeZTI6AJqZ5lEdRN9+gB3mU2mUeZQA/zKPMqGjzKgB8lFReZTvMoAJKJKb5lHmUAM8ymU+mUAFFFNqwCimUygDgo6ljqKOpY66jiHx0/zKZHRVkEqPT6ijqWOgB8dS1FTkegB9PpnmUI9BI+iOiigodT46ZT6gkfTqaibq7rwN8FvGPxC2No2gzzWjt/x/Sr5UTf7jv8Ae/4DuoA4ejy6+uPB/wDwTx8T6wqS61q8dn/0ytIHf/x99n/oFeweG/8Agnd4V09E/tCe91J/4vtd5sT/AMhIlWI+L/hvYfYNEvdTdf3s3+jxf7v3n/8AHn/8crnfEN5uundq/T2w/ZF8HaVYpbQafZeUv3Ypt8v/AKHT/wDhmzwrpv3NB03/AH0tU/8AiKg3hOJ+TNzcq9Yt4/yV+xEPwi8OWf3NMtP+/FOf4aeHv4tMtH/7YLWUonUfihrF4iRP83/j1eeXO65lllr92NS+CvgzVYnW88L6NeJ/cuLGJq838W/sN/CLxbFKreFbTTbh/wDlrpkr2u3/AIAj7f8AxyuOpE15T8afufLUX8VfoT8V/wDglzd28Et54A15rn/qHat9/wD4DKi/+hJ/wKvjfxh8HfEnw31K407xZpF3o93Ev7qF4v8AX/7aP91l/wBpd1c3KBwkNm833V+T+/V2G2toW/e/PtqxeTeSvlRqqIv9ysd3rT3Ykm3BrsNi/wC4giT/AIDvq9a/EC8tPuR2r/7E1ujf+y1yPNFL20o/CHLE7lfiJDM+Lzw7pFx/tpE8Tf8AjjJVa41/R7vLfYprRujbH81PyPP/AI9XH80bjWn1iQcsTqkj02/+7PH/AMD+R6fN4VleLzbZldP9ht9c7ZxCeVVZvvV7BffAfW9K8IWXiWwvFe0uIPO+9sda7qOFqYqPPCJz1MRDDy96RieE/iFqHhhktNTWS5tF+VX/AI4q9v8AC3jN41t77TLnfE3zb4q+YLjxHeRTNFdpHc7f+eq1reGfGL6JdedYyNDu+/byt8ktYxqezkacvOfo/wDCv46s6pHO2x6+hdE8Zwa3boyMr1+ZnhXxbFqUSXdjL5MsX+ti3fOtfRfwu+Km/ZFK+yVf/H69inifax5ZHm1MNGEuaJ9h/wDHyu+q723y1g+FfE8WpQo+5fmrsERZl3V4WLo8kuY9ajLnjynO3Om7/wCGse80RX3/AC12r2tV3s1rz4zOiUTzK/8ADaPv+WuX1Lwqr/w17Rc6Ur/w1iXmib/4K29uY8p4FqXhP7/y1xmseEm+f5a+jb/w9v3/AC1y+peGN+/5a6Y4kxlSPlrW/DzIz/LXCa3o6zRPFLFvib72+vqjXvB6TI/7qvKvE/gltz7V+Su+nX5jmlT5D5U8Q+G5dKleeL57f/0Gjwu6vfpE/wBy4gaFq9W8Q+G5Yd6OvyV5zf6D/ZuoxXNsv7pZfmT+7RUjzRHE8uUG2kljf/dNb/hjW/sbNbT7XtJfvI/+f87ayteh8nWb1V6ea1Qw7tqMn3q8c7j2DwreN4ev0tFbzk/11nL/AM91/jSt34hePlh0R/Kb7y/LsavN/DesQarappV5L9mZfmguH/5ZN/8AE1ieLrm5e6ME6lNvzFR9xs/xLRIOY56aZ5pXd/mZq0rWw+0MiI2x2rJX79dN4e23N+it/FUxA6jRNV8VeErK6TTLySbT7pfJZIfnil/30qbQ9S8O2Fhdtren3NxfSwboF/55N/u/7fyfN/Dv3fO616P4G8GLeWcXnsyRSttZ0++q/wB+rdn8Pba8iuIp5ba/lW8W186W1/5av/B/4/t/4BVAfPmoW7ST/uvK/et5qpCz/Lv/AIPnr0PSraXR9L3LFA9xceVEsLr+9ii2ff3p/e2VoePPBNt4SsNP1G2+S4uGVWi+d9v8VdB4AS0v/FX2a+8t7eVYl8qxbf8AL9nl+5v/ALjKn/fdEQOl+GkzXjWUX9n/AG9GaWWex83yol/1uzfsX5fli3bmqVLzYqbm+fbuqbwH4Y1Dwr4D8QeOG8+5uN7aRZ7Pnf8AexPv3p/Ftg3/ADbP464l9Y3/AL3d8j0SNoyO7tr+tazv9jo26vPLPWP9qtiz1WsZFHvXw68Wto+pW86Nsda+3vCOpW3jzwvFc/flVf3tfmv4e1j50+b7lfVH7N/xO/s3V1tp5f3T/wAFRI1PSvHnwutNbtZYpYFf/gNfF/xj/Zyn0e4lu9Mi2fxMlfpxeabFeW6SxfPEy71evP8Axh4Gi1K3fdFWlKtKBnKnzn5BXNtLZ3HkTrsdW+5TK+sP2gf2e32y6hp8GyVfm+RfvV8qzW0ttK8EqskqttZK9enU5zypR5DqPBPi1tEukgnb/R2/j/u19AabNBqtmksbLs/vpXyp/sfw12Hgn4hX3hKVN3+k2X8SPUVKfOXTkfQGyW23bPkuFXav+9v2p/486V0Gj6asOxEX5EVVT/drl/D3jnRvGE9p9kuVSVm3SxTNsddif/FMn/fFep6Vo6bU+8/+3Xmy9w7IkNtC1adtYM7fKtadnZwQr86SO/8Au1d85/K/dRLD/wCh1kalSHSoofmnarFzeRWEDy7vJiVfvvVXWNYsfD1nLfaneRQwxfellb5Fr5U+Mfx2ufGcsumaRK1to/8AFL/HL/8AY100qXOZSlyFj43/ABsl8Wyy6RpUrJo8XyzzJ/y1/wDsa8c3s33v+A03f99P4NtM8yvXhGMDglLnJfMpvmUyn1RmOoo8yjzKAH0UzzKf5lAD6PMpnmUeZQBLHRTY6KAHU+OoqKk1LFFMjoqAJfMo8ym+ZRVgSx0eZTI6KoB/mUeZTKKkCxRTfMo8ysQHUVF5lPrYB3mUI9Np0dQA/wAyimUVYBU1Q0+gB/mUUyOn0AOjp9RR07zKAH+ZR5lMojoAmopkdPoAd5lFNoqAHU/zKZRUAPoplHmUAFPplFWBNRTPMo8ysgH0I9MoqiyZ/uUyjzKKCAo8yiSmVYD6KI6KCwp0dNp0dZAPpnmUUUEBJRTaK1LCmeZT6ZUAHmU/zKZ5dFWA/wAymeZRTKgB9PplMkqQH0zzKI6f5dBYR0+mR0UFBRRTKACiim0AOopslFADvMpslFMkoAKZRRQSFNkp1NoAZT/MoplUAzzKPMo8ujy6koKbJTqJKAG0UUUAMkqLzKdRQBwUdSx1FHT66jiCnfw02nUEE0dSx1Xjp6PVgS+ZT46hp8dAEtPjqLzKI6CSWjzKZR5lAD9/9yuj8GeD9V8bazFpWjWLXl3Kvy7P4V/vu/8ADTPA3gnU/HmvW+maZF+9l+87/wCqiX+N3b/Zr9Cv2b/hTo3hJrfTbOLzki/e3l3L9+6b/wCJ/uLWsY8wSnyxMX9n79hjStJtbTVvFTRare/eVHX90v8AuI/3v95v++a+wNF8Pab4eiSOxs44f9vb81PS8VF2/cpn9pr/AHlquQ8ipi5S+E1fOpvnVkvqSf3qrvqX+1VKmc3POZsPeIlVZtSiT+7WDf6r5K/erkr/AMQs7/eqanLh480jvw1GdU7u6ubab722sm5hi/hkrjU1Vnf5Wq7DeSv/ABV5UsXE96lhuT7Rqv8A71EdVUmqwj7q4KlXnO6MSwif3Pk/3K5r4kfDHw98VPDN7o3iPTINSsp1/u/vUb++j/wt/tLXTx1YRN61x80i+U/Gr9rP9kLXP2edX+12fmax4MuGxb6icF4n/wCeUoXhW/8AQtua+c4dLubiVUWJvm+b5/lr+gzxV4Q0rxhol7pGtWMF5pl7F5U8Uq18D/Hv4ewfs5W8ukaZbQaV4fv/ANzBLp9qn2mWL+OW4upUfayf3V27t6fc3/J30+WfxHNU5oH5/XHgfVLVFaSBYmcb1Td95axLmzns32zxMj/7dfT/AItm8HPpKT6RFr82p2/7m6uNWvrVLaVf7+z7+7/Z3tt+SvNLxNK8QLLAFVHT5WiZkd0/3H/iolEInklFa3iDw/Lod1sb54m+69ZNYgT2j7Zk+tfbk03/ABjhpT7v+XOviO3/ANen1r7M165+x/s26T/15/8As9fbcP1OWFQ+ZzmHN7P1PjvVJPNunb/aqmq1Nc/PM9S2yfJXy9X36sj6CPuwNjwxr19ol4k8DfOte9eEvGC36xXdtLslT/0L+5Xz/YJ8j1saJrEuiXnmxN8n8Sf3q6oR5ImMpe8foN8KPid5yojNsdfvJX1H4S8SRalbo2779fmN4M8WsjW93A3/ANlX1n8JfiQtysX735Kup+9jyyLj7h9YeTvRKieGqPh7WE1K1R91b3l189Ujyy5T0oyjKJnvbb1qpNZ99tbfl0x4ayDlOUvNN3/wVi3mj7/4K72a23/w1nzWG+q5w5Ty/UvDyun3a4rW/BnnK/7qvcrnSt/8NY95oav/AA1capj7M+T/ABb8Ot6O3lV4l4q8GS2bP8rV956x4VWZX/dV5T4z+HS3Kv8Auq76eJOaVI+AvGHgf7Y7z2y/vU/g/vVwTxrbRPDKuyVN23/ar618beAJbCVpVWvHPE/gyDUvmZfJuF/jraVOMveiRGXL8R5V8tzK7q2x1+ar0l891axQXy74v+WUv8a1W1LQbvSrjZKrf79VbaaeFty/98Vxmws1i0LbvvxfwypW/wCG7NPtG9Pn2/3KyYZmSR2Rdn+xt3I3/Aa07CaBNkqyNYS/3/vpQWfQug+JLnRNEt/KlaHau7yX/gq94b8T+HLm1uIrz7Slw07TRSp/v7vk/wC+K8ch8c3NiqQaisGpWW3ayI+/5f8A0Ku70HQ/DXjmHZ4V8RrpWt/xaZq3yRS/c+4/977/APB/coLiWPjxeaPNoOmS6U86bp/3qTM7/wB/+P8A74rh/A2tf8I94t0TUZ9qIu6Jndd6ff2u/wD49Wt8Vodes4otD8T6F/Y+p2vzb4/l8/53ben8LL838L/Ls2150bho4ZFb5Lq2lWVNi/e/v/N/FWXN752Sw8o0+Y+9P2b/AB4vh6/0pZbaO/f+2L/7LDKyIiy/Z3VN/wDe3bnXb/3xXsXxE/ZB+Gf7R3hH/hKvhTexeE/FTRedc6I//Hvu/jR7f70Tbv7vy/7NfCvw08VT3mg63aWKzzah5EWpWvlN8/mxfLKi/wAP+qllb/gFXdN8W+O/gy/2mx1ee/0KL91Bq2mXW/bv+5sli+63/TJv++a6pR5jzjmvG3hHXvhb4ou/D3ijTJ9H1W1b5oZfuMv99H/iWq9hrCPsZWru/ip+0JffFTwN9m8T21p4kiil3WHiFIPs99Zy792yV0Xay7d/8H9z5q8R+2PpVxtdt8UvzRP/AHq55RNYyPW9K1vy2T569Q8H+Km02/t51l2bW+avnTStbd/4677w3rCTfumb73y0Gp+tHwK8bReM/DMUUrb5VX5a72801HR0Za+HP2S/ic1nexQSy/Orf+PJX3xvW/tYrmL7kq7q46nuyNInlXjDwZFfxPvXfX5//tRfBCXwxevrljA32dv9aiLX6kX9gsy/dryz4l/Dq28VaNd2k8Sukq7fu11UKnKY1KfMfj06UV3Hxa+Htz8OfF97pksTJErboH/vLXD17UZnl/ASwzPDKj7vnX+Ou48PfGPxZ4Y/489TndP7kv71P/Hq4KiiUYzKjM91039rTxPbJ/pOn6Xef7bwSo//AI49WLn9r3xPMqLbaLols/8Az1eKV/8A2evBdzUeZUewiX7WR0Xi3x/rnja48/XNVlv3/hi3bIl/3ErC8ymeZTfMraMeQiXvFjzKPMqHzKf5lUZj/Mp3mVFT6AHeZR5lNjooNSWn1DT/ADKAJfMo8yoqfQBKj0eZTI6KAJqKYj0UASx0eZTY6dUgP8ynx1DT6AH06oqKAH+ZR5lMp6PQA7zKI6bTo6gB/wDFR5lReZTvMrUCbzKEemUypAmp1RUI9AEtFN8ynUAPp9Q0R0ATUUUygCWim+ZR5lADken+ZUUdOoAf5lPqGjzKAJqPMpnmUUAP8yimUUAP/ioplPoAKKKKgscj0/zKip1Y8oucPMp6PTKfHVkj6dUXmUeZUgPopnmUeZQBLTXejzKZWoD6KZ5lP8ysgBvv0UUUAMkojp9Q1RY+SmUU2gB3mU3zKZRUgS+ZT6r1L5lABT/MplNoAc70eZTaZQakvmUU2meZUAS02iirAJKZHRRQA+meXRRQAym06m0EhRRRQUHl0UUygBlFFFABTfMod6hoAfRTKPMoAJKbRTJKAOEjp9RU6Ouo88moplFBZLU3mVX8ynVZBMj07zKip9ADqmjqGn0EktTWFnPqV1FbWytNdyyrFEiffZv4EqvX0B8AfA39lWf/AAlF8qpcS7obHevyRL917hv/AB9U/wCBt/cpxjzyA9N+GPgy2+F3hf7J+7m1O4+a+lT7jN/BEn+yn/jzV6b4J+IqeGLzz5W/+yryrUtb+Z3/AOWS1yl/4tbdtiXe3995URP++3r0uaNEylT9qfVd/wDH6V3/AHC/991mf8L71NH3bYH/ANivn3+zfF81mksFtp9mjLuWW7uv/iK5TxV/wtbwrFbzrFptzE3zLD9hdPNX/Yd/lb/gL1zSzGhD3S/7Kly83KfaGiftA2Nzsi1CD7Nu/wCWyfOlegWHie21WJJ7adZov76V+Y+iftG2P2/+z/ENs2iXG7bv/wCWW7/b3fMv/j3+9Xvvw6+KMujzpKk/nWUu3dsbcjL/AH676VejiPhPNrYOcT6j17W/kdN1cv8AbqwrzxCt+qSq+9H+ZaLa837K+czCp+85T2sFHlpnSvqqWFq87/w1p6JqralYJKy7H/i/grn7Ob+H+D+5WxYOkK7Yl2Lu3V4h6h0sL1oQ1iW01bFq++oLNCGppryCztbie5nWztI1Zmmdtm3Z992eoYa5r4neG7nxb8Ptd0ex8t726g/cJN9x2R92x/8AZfZt/wCB1BqbeieJ9G8W2D3Oh6rbaxafdZ7eXfXM/GP4Y2fxR8AXugTrAlwy+bZ3dxAkv2W42PsfY/8AD8/zf7LvXgv7Pej+L/B/xStNMn0zVIdPiiuFvJbuCVP3WxNnz7drfN8qbXb/AMfevrp/40/g27ar4DI/AL4heE/Evh7xzrejazBcvrFhctDdb97vuSuVuIbnSbjyp45LeVP4ZV2MtfsF+1p4eufBktp490W2ge3uP3WtWPlJ/pmxNyb/AOLdtR/++Ilr8+PixrFlrljb6tCsE2hXUv8Ax7/M8tg3/PHc/wA2123srL/t/wB2u2PvROeXuHlml6kviaxlsb7a13t/dS92+WuPuLNraZ4n++r7a9F0S80/SpfNgs4HT+F3iR3X/vuu102azv4t0EUCP/0yiRK1jT5iDwm0tJnnXZFI/wDuLX1J401KKf4A6Np9tKr3a2y77dG+dfn/ALlYP7+FfkllT/gVZl+9zt+WVv8AvqvWweI+pxly/aOLEYf6w4uX2TxiTQdQ+81nOn/AalezlT5WiZNv+zXoV59p+f8AetWBeJL8+5mrgjynUYNn8m/dQ70Xm9P46ynuWRvvVr7blI9mdl4S8VNo91tlb909fQPgbxm2lXUUqN/o7fer5J+0NXoHgDxl5Miafct8n/LJ3/8AQKj2sZl8p+ofwf8AiLFfxRLur6CsLlby3SVa/M/4XeP5dBvYovNbyv8Alk+6vu74UeM4tbtYk8371c2JjzRLpy5T01Ep/l0J9ypa8s9Ar+TUT2taHl0zyaAMqazqjNY/7NdA9rUT2tAHJXOm7/4a5zWPDazI/wAtekTWa/3azLqwR1+7QZ8p84eNvh6t4r/u6+afH/w9ezld1Wv0A1rQVmV/lrxzx54DS4t5f3VddOtynNKmfn/r2jo++K5i+T/drh7zwwlnL58C74v/AEGvpj4heAHtpZW2/drxfUrGWzl216Xu1YnN70Dn9KS0ufv7Ueujt9EsXRPNiV4t3zfLWJc2EF425t1tKv8AGlFtrGo6DIvnos1v93zk+5XHUpygbRkTeA/BmmeILCa5uV/1s7bf93/Y/wC+q0vEPwcazbz9GvGfb923l+//AMAauS8GeM/7EWK2n3eUjffro/EPxFvr+X7NpTs8X3WlRaxNjs/A/wAX9+lv4M+JmlS6xo/3Ynl/4+bVvuq9vL/e/wBn7rVj/Gj4NN4JnTUNIvf7Y8NXSs9jrKLs83/plKv8Eq/3awdK+FvjvW7J76Lw1q9/af8ALXyrOXbt/wB/bXpPwt8ZW+i/bvBPi+C9k8I6sFSe11BdlxYt/BMn+0v97+Kg2p15U/dPJ/hprV1o+vIscjJ5cvzIn93+P/0L/wAfrstQ1a++HXia41PRrmX+zNR3LK/leakS/Pvilif5W+/u2slYXxI8D3nw38bXunXO2ZLXymiu4v8AVX9k/wByVf8Axz/KV3VnrFjZrZag0EF/aXSr5tvcfPFLE/8Ay8fJ/wAtU+7/AL2xv79bxl9k5pHEagq6nqVxeaNBFpWq3AZv7Mt3b7Ffxf8ATLf93/rk3/AP7lci94uoLLA0TQxbmZIn+/E1e9fFH4XaZYeHNP8AEHhy5W88Nao3zPu3S6TcfwJK/wDz1f8AjVf4dn+8/ivirTZYf9Jd997EyrO//PVX/wBVL/3zsrMDP03UntpXil/1qvXcaDrGyVPmrzLWbd47W3vk+6zbW/8AZa0tB1jfs+aoNoyPqj4Q+LW0TxbE27ZFLtb/ANlf/wBk/wC+6/Vv4OeIV8Q+C4vn3vF8tfiz4Y1jyWsrnd/qpf8A0P8Aylfqd+x54k/tXw5LAzb/AJVasahcT6IdKydSsPOX7tbElROlcpcj4n/bV+C3/CQ+F5dc06D/AE2w+Zti/fX+Ovz0mTb/ALlfuD4q8PQa3p1xbSqrxXC7a/JH9of4XT/DH4janpjRbLKVvtFr/u/3K9nDVPsnBUpnk9FHl0yu84h/mUzzKbRQBL5lFReZTvMqzUm8yjzKh8yiOqAm8ypar1L5lAD6KZ5lHmUATeZR5lQ0+gCXzKf5lReZR5lAEqPUvmVF5lFAEtPqvUvmUAP8yjzKPMpnmUAP8ypar1NUgOo8ym0UAS0yjzKbVAS+ZT0eoafUgP8AMoqGn1QD6dHUVFSBL5lFReZT/MoAl8yjzKZ5lHmUATeZRHTKfQA6jzKbRQBLRUVOoAfT46ZRQBLTaZT6ACpaio8ygA8yneZTaKAHeZT6Z5lHmUAPo8ymeZRQBN5lFQ+ZT6AH06OovMo8yucB/mUeZTPMp9VygOoqLzKf5lWWS0VFR5lZEDqfUXmU7zKAH+ZTPMpvmUUAO8yim0UAOkptDvTPMrUsfTKPMooAKf5lQ+ZR5lAE3mUUUyoLH+ZRTKKkB9M8ujzKPMoAfTPMo8ymUAP8yimU3zKCiWmeZR5lNoAd5lNooqAGUUUyrAf5lMd6bRJQAeZR5lMooAPLpklFNd6ACmeZRTKAH+ZTHeim0AcPTo6ip8ddRxEtFMjp9ABHUtNp1WA+imR0+ggf5lOqKn0EnVfDrwk3jbxRaWPzJb7t08yfwxJ9/wD+J/3nr6gv7xEt0ggVba0t1VdifcVUT5E/4DXm/wACtBXSvC93q7L+9v22xf8AXun/AMW2/wD74St7xbqv2OweJJVSVm2b92yuqP7qHNII+9LlK+parbXiXct5qEelaVZKrXl9Ku9Iv7iIn8Ur/wAK/wDoCV0/w58deIr2zhuvhl4X0Dwfp7Ptg8X+NIlvdTutn/PvFtfb/uRRN/ttXiXhiax8bakmtarB9p8H6RKy2Ni7OiXlx/HLL/443/fpar6x8WtV1K+ln0y8ns93yy3yfJcT7P8Ab/hX+4q/KteLia/u81Q3qV6dD3T6rvPi1490SJ18R/HL7TcfLut/7C023i+58/yXDxM3/fFcbrHxRjS4eK8i0K8lvZdy3Gnq9vaX7f8ATWL7sUv/AE1V6+NvEOsSo166rJc7UXdM/wA9YHhvxO3hvUdly0/9j3X+i6jbu/8AC/3ZU/2l+8rf7FeZKMcR8PunRg8XL4j2b9oL4a6f4y0e58WeGvNhuLFl/tPTLht9zZ7/APlr/tRfw7v9yvNPgr8XLnwffW+ianMz6TM37p3b/j1dv4/92uv0fxzfaVrL/aWiudQsFa3lR/uXVu/yyxP/ALNeR/E/w3D4V8TXdtaXBntHCXlk7r8728ibk3/7Wxk3f7W+pwlapD3ZfFE9LF0oyjGpH4ZH6SeBteS801Il/g/8d/2K7uzvPuV8n/su+M5db8F2Usr/AD2rNay7/wC9FsZP/HW/9Dr6YsLn7ld2KfNLmPNo+77p2tnc1u2c1cfYXPy10FnN8lecdZ11hN81dVo9g1592uFsJvmSvWPA22bZWcjeIx9ElhX7tV3haGvUH01Xi+7XM69omxXZKjmGclT/AOGonTY1CPSA5n4qaD/wknw712xTb5r2rSxPt/5axfMn/jyJX45/G3wrDpMbaxoU6/8ACOat++8lG3/ZZf4k+f5v4H2t/wABr9tJl3W7ptr8X/ip+z98Q9H8R+ItPtvD2pTaZaX1xFFL5XyyxI7qj/7VdVORjI+fbbUJbZ66rw94ka2l3RNsesTV/Cer6DI6X2n3NsinazvE2z86yIZnhfetdPMzA+rfhX4el+J11FaWn/H3L/B/er3Cw/Yq8R6kqfK3/fNfI/wN+It14I8ZaZqtszJEkq1+9vwf8Q6X488B6VrlmsT/AGqLc+xf+Wv8dY1qkofCET857b/gnprl5975P+A1M3/BM3Wrlf8AWr/3zX6oJDFH/CtSoi1j7aRfKfhp+0h+w94l+C2jJqs6+dp7/KzovyLXx/qVg1ncOjLX9Hv7RPg2z8efCfW9MuY1f90zr/vLX4FfGbwqvhvxLqFtt+7L8tbU6nOQeVUI+x99SvDUX8VWB7R8NfGH9sWv2G5l2XEf8f8Ae/26+u/gD8S5bC9itLmX96rV+dWm6lLpOoRXMDN+6avpXwN4t+329lqFs371PvIn8f8Af/z/ALddkZc8eUk/XLw9eRa3ptveRNv+0L8/+yyferQ+zMleJfso/EKLxPpb6U0u95fmg3/89a+k/wCzfOi3bWrx6keSR1xOZ8unpDVu8tvJapbC286szQo+S9NeGuj/ALN+SqM1gyUAYrw1C9rvrWe2aoXhoA528sN61yOvaIs0T/LXo01t8lY9/Z7/AOGpMj5f8f8AgZLmKX5a+X/iJ8PXhllZVr9CPEOgpMj/AC14j458Brco37qu+hX5DKpTPz/v9Nlt5XR1qK3dkavePHPwxZGfbFXkt/4els7h9y17EJRmcfwGSngzTNYl3fZlR9v3E+TfVv8A4QP+yp0azlnh+7t+/WxokLLKny17L4T02K/iRZYm3p80UqNseJv76P8Aw1yVIxNoyPOvDHi3xL4eVPs2r3ds/wDz1t53T/0Cug17xbqvjCyt/wC3NXu9Va3+aKW4b7Q8X+5K67lr1W5+K+p/CKD/AIrP4ZeHfiX4U2qiay+mRJdwL/cldE/8e/i/8drd0H9sz9nF7rfd/BnT7Pc3zfZ9Mt//AIuuXmNj5i+NDav420vT9QnuZLz7FB/ovm7P3S7/AJ7f7ifw/NXm/hnxJOmkPpcsUcNusu6B0iTei7/nT/d3f8Cr7m8Z/tY/s7a34Z1DStK+GUENxcRNEs32OKJ4N6ff3/P9yvknSbDT7/wv9mvvLmSLc0VxCvzrv+b/ANCq4yAyv7budK037NbbktJWXz7R23pu/gdP++np2pWa3+nRLE29FtWhZ3+fev3kf/vqtjQfhdqviG4S20WC7v7jb/qYleXd/ubN/wDer6b+EX7Der/ZU1Xx/L/wjHh9mXdaTbHu7r/YSL+H/wBC/wBmjmYHxf4m8Ny6b8IIdTuYmhe91FYoN/8AFsR9/wD6EleZabefZrhG/hr7t/bG8PaZrdvaWPh6xjs9H0OL7LZ28P8ACv8AH/vMzV8H6hbNZ3TxN/BUcxB674Vv/OsJVX7/AJW5f+AfN/7JX6bfsDax9stZf7nlV+Unw91L7iM/+zX6V/8ABNy4a5t7v+5Eu2pl8JsfoBv3UVCj1XudVtNN8pby8gtvMbavmts3VzG5bdN6bK+Z/wBrT9n7/ha+gxT2MSpqtrL+6m/2f40r6btpopkSVfusu5f4KhvLZJl+7vq4y5DOXvn41eNv2e/HHgbe13pElzb/APPWKvNJrZoXdXVkf+46/PX7nP4bsdYtXSWBX/vb0rxT4r/sf+D/AB/E8raetnd/w3Fuux67oYn+Y5pUf5D8lHSm19NfFr9ifxZ4D8270pW1vT/7if61Vr51v9NnsLiW3uYGtpV+8jrseu+M+c45R5DPpnmVK8OyovLraJmS0+oqPMqjUloplFAD6fHUMdTUAHmUeZTKKAJUen1FHTqAJvMp3mVFR5lAEvmU/wAyokeneZQBN5lFMooAfHUvmVFRQBL5lHmVFR/FQBL5lHmUyigCbzKPMqGigCaneZUXmUeZQBL5lHmVFRUgS0+oqPMoAsR0UxHp/mUAO8yn+ZUXmUeZQBL5lHmUyjzKAH0eZTPMo8ygCxRUXmUeZQBLR5lReZT/ADKAJaKZ5lN8ygCWimeZR5lAD6KZRQA+n1DR5lAFim+ZTPMpnmUATeZTvMqv5lP8ygCWjzKb5lFADqKKb5lQWO8yjzKbRQBLR5lReZTvMoAf5lFMoqAH0UUypAfRTKbQQOooptUWS0ym+ZR5lSBLTPMo8yjzKoA8yjzKb5lFBYeZR5lHmUypAfR5lMooAf5lFMpnmUFE1FM8yjzKAB3o8ymUUAFFFNoAKKKZJQAUyjzKKACm0UUAMpklElNd6AGUU/zKY70EnCeZU0dV6lrqOQlo8yoqKALHmU/zKhoqwJo6dTY6dQQPqWFGklRFXfVeuj8AW32zxlo8W3ejXkW5P9lNjUAfTem2CaD4Xt7RNv8Aoqrb7/8AcT7/AP7NXivxr8RHTtDu8SfNMv2aP/el37//ACEsn/fde5XP/Hjbr9/+9XyJ8ddSlvL3TbZt3zTtKyf8ATZ/6E9PGS5KfKa4WPvSkdBqWsf2DpeiaHB8kUUC/akRtm9ndN/z/wC8zt/3x/crE+4u1fuL92q/ie88nxBbxMrJui81fl+987/+y0PZ3LxP8uxP9tq+YxEpSqHj1Y++RPqtjo+l332yJn+1LtVP70tcV4k02Sz2LO3nPtVfk/2vmV/8/wB+ug8baO1za2X79YYtzfO/3F+esr7BLqEmn2a7n3eVFE838Sp/H/u/fremejQjyx5i1repNDrMTr/z42rNv/27dK5LxJctNFpu92d0iZfn/u73ra8Q3kVzrOpzxf6rcsUX+6nyp/6DXNa9NvniiR9/lrXNH+NzH0nw4flPpT9juZ28P+I4z91bqJl/79P/APYV9g2E33K+V/2UdHbTfh5Lcyr/AMf98zf8BTYv/wAd/wC+K+ltNufkTmvSrfCjzYncWE33K6Cwm+SuMsLqujs5q802OysJvuV6h4Dv/JlSvHbC6ru/CupeTKnzVnI2ie/21+vlfeqvqtys1vtrl7bW/wDR0+eornVd6feqOU0Mq/2/aHqpT7mbe1Qx0gLH8NfHX7RvwH8S634j8S65plnPNZXEvmxPFvlfdsTf8n+9v/gr7DR66jwrf2cOjXEVzt+WVvkdfvfxU+bkMj8GvFmk61cX2p6e0TQ31pE00sUf7r7Rbp99127PuL95f/iHrx/UrF9NuOfnRvmR/wC9X69ft2/A3SJtOt/iJ4OWC28QaNKtxKkS/wCt2P8A3P8A0L+9X5x/GjwbptrrFvcaJF5Olaxa/wBpWMW7f5W/f5tv/wBspYpV/wB2u2MozjzGUo8h5/4LYXl1Ppi8zXCbrY/9NV7f8CG78dtfpf8AsDftUW3hLwvd6BrjN9kVf3Hzf6pk+XZ/n+5X5WaZfy6TqNtdwt+9gkWRfqOa9j0Hxb/Y+t3FzZ/ubS9X7RFEjfd3/wAFVKPPHlIP2qm/au8NIu6O8/8AItZt5+114ehT5bln/wCBV+SL/FG7+75rf99VVm+Jd46f69v++q4/Ygfp74t/a80i5067totzuytt3y1+Wn7Q+pW2q+JrueD7krbqLn4hXj/8tW/76rzfxbqrX8ru7VtTp8gHLyVSb79Xf71UpK2AP4a7b4b+J20XVIlkbZa3H7ln/ut/DXGQp9+rMjL9lTb97zGx/wB8pWkfdA+//wBnv4hN4V8VWU/m7EaX5v8AYr9WPD1/Br1hb3cW3ZdRed/ut/GlfhD8H/Gb3EFuzt+9i/dNX67fsi/EJfFXgH7NLLvuLL5vvfw/x1hiI/aLpnpvie2+zO71j6bqqJcbGrs/GFnutXavH9SvGsLquOJqey2DxXVuu2nzaar/AMNcD4S8WpuSJ2r0i0v4ryL5HrM1MC5035axprbZXfTWyOlYWpWGygDlHhqjc2e+t6aHZVF0qwOVv9N3o9cZr3h5blH+WvUJrPfWVeaVvoA+bPFXgNblX+WvH/EnwoW53t5VfZuseG1mX7tcbqvg9Xb/AFS11U6nIYSpHxvZ/CuWG6/1XyV6l4S8Evaon7qvWH8Eqj7/AC1/75rb0rw9s+V462lXlMj2ZleGNE2JtdVdGXayOu9GWuZ8T/sheGNSuH1nw94X0i5uN26XRr6LZFL/ANcnTZ5Tf7P3f9z71e3aPoips+Wuws7H5K4+Y25T5P0fR/hdoMr22r/CDTbDU4vlliuFfev/AI9XZWHir4YaVvlsfhz4Ztpf776dvr3bxV4D0jxzZpBq9n5zp/qruL5LmL/cf/2Vq8c8W/AHVfD2+507/icaf/fiX96n++n/AMTV85PKW5P2hHsLXyNItoNNi/hh06zWL/0PfXnniTx/rXiRpWaWVNy7Wd5XeVl/ub2/h/2aZ/YjJ/DT/wCzWj/ho5xHn+t+G/7SsJYGX79fEXxs+H8vhvV5ZVi+Rmr9Fbmw+X7leBftG+Bl1LRnniX51+ainL3iJHxV4PuHh1hI/wC/X62/8E2fDEth8N7vV5V2fbbpvK/3Uevys+HvgfUvFvxN0jw9pUTzXt7dLHFsX+9/F/u1+8vwZ+Htt8MfAGieHrb7tlarCz/3m/jrapL3TSJ3yPtqG502zub23uZ4Fe7t1ZYpn/h37N//AKClP/iomSeayuFtGWG72t5TyrvRW/3K4jYtwv8AvPu/xfx0XOt6dbX9vp0+oW0N9dNtgt5ZVSWX5N3yJ/F9168kTxD4zm8L+IF/tC0ufEfhm8aWe3tNO8qK/t/9aiIju7Lvi+Xcr/eT/ZrM+J2j+Hprjw18XdP0CPxDe2v2f/S/NdHSyf7lwn+5uRv+BvWpkewJN9gv3iX5E3blrWhuVePY/wA9Yl+kV/apfWzK6bfldP4los7n5U3NVmpq3mlQ38To6q9fP/xv/ZC8NfEu1luVtls9T/huIl+evoCG5q2kyP8AfrWE5QFKPMfjV8Y/2fvEvwi1GVL62a50/d8t9Evyf8Dryea2av3Q8YeA9K8YabLbX1tFMkq/cda/Pz9of9iG+8PNcav4Siaa0+81j/8AEV3065wVKPKfFW1qK1dS02ewupYJ4GhuIvlaJ/v1mOld8ZnONp1NooAdR5lFNqgHI9PqKnR0APp6PTKI6AJfMoptHmUAS0UzzKfQA/zKdUVP8ygB3mU/zKiooAl8yjzKZHR5lAD6f5lM8yigCXzKPMpvmUeZQA6im0VIDqfUVOoAmoqHzKf5lAD6dHUXmU+gCWiovMo8ygCxJTKZ5lN8ygCXzKPMqLzKPMoAseZR5lQ0eZQBY8yjzKi8yjzKALHmUx3qLzKf5lADvMp/mVX8yn+ZQBL5lHmVF5lHmUAS+ZR5lReZR5lAEvmUVF5lO8ygB9P8yofMp/mUAP8AMp3mVF5lHmUAWEej+KokeneZUATUeZTPMpnmVkWPp9Q+ZR5lagTeZR5lQ+ZRUATeZR5lQ+ZR5lSBNTPMpnmUeZQA/wAyjzKZ5lN8ytQJfMopnmU3zKgCXzKKZ5lHmVID6KZ5lHmVRY+mUU37tSA6im+ZR5lABRTKKAH0UzzKPMoKH0Uyh3oJH+ZR5lMpnmUFD/MplElN8ygB0lN8yimUAHmUeZRTKACmyU6opKAB/uVFTqbJQScP5dOjqJHp9dRyDqfTKI6AJqKZT6AHeZT/ADKip1BA/wAyu1+ESfafHmmf7DN/6BXD+ZXcfBl9nj7TP+usv/oqtY/GB9MbN9rKny/LFXxr8XU/4n2lM33PKX/0BK+1dKdUvLff9xnVWr5K/aE8PS6JrnkOux7Jmh/8f+T/AMdTfUZj8MTfCfymP4ehgv7e3nndnuLJW2p9/wD2X/8AQUb/AIHWhN959rb65TR9SaHfKi70Zf3qJ/6H/wDF1oTXlmkW6C+8lGX7nyN/6H92vnalPn944cVRl7Q03uooUdn+REWufub/AOwSS3n3Ljbtg/6Zb6opfrNvZFluW/vzfIi1laleff3NS+A2wWFlze8Z95N5OxV/h+Zqz9H02fxJr0VnArPLPL8qVFczNcs6L87tXvPwD8A/2Xa/8JLqMf8AFst0f+KX+/8A8B/9C2V0Yahzyue3iKn8p7v4M0eDw3oOmaLB/wAuUC27f7bfed/8/wB+vRbC6rzrRLn5t1dlpt19yuit8Ry0/hO402b7ldNZzVxOmzV01hN9yuCRsdlYTfNXUaPc7Jk+auKsJvmrpdNm+asjU9Gs9VbanzVd+3765Sxdq2IXaoNTT86jzKqI9TR1kBY8yvD/AI3/ABsi+HWtRWLz7Hlg+0f+P7f/AGSvavMr81f2/PEl1N8fbTT7WfYtvosW5P8AaeWVv/iK0px5jOXuHYeM/wBpNNVtbu289nSVWX56+OvHOpNf3mlWqbfKjurhotn92VIvk/8AHX/76eq1zf3m5/Nn/wDHqxYXlvNe01X+f5mb/wAcrpjHkObmOP1WzawvniZWT/frpfD8zvp1u277u6Kjx+kX21PmXzdv8FdB8I/DE/iezuIoot7LL/f2fwVsBUeZqa8zV6k/wf1F13fZv++50qu/wc1P/nhH/wB/6APLXmasTVd1et6l8K76wieVoo9i/wDTeuE1XQWmjd4E37aAOMj+49Uq1Vh++jVlN9+oAmtPvt/uNTP4at6Um6SU/wB2Jv8A0Gq0Pzq9AHU/DrW20rXUT/llcfL/AMCr9L/2EviL/Zvi1NMll/dT/I1flbYSSQzxTr/yybdX2B+z94wbQfFGiXyt/wAtYmq/jjyhE/ai8T7Zo2377r8rV4T4zh8meX+/vr17wZr0Wt6I8qN/rYvN/wDZa8p+JHyX8qV5X2zoOHs9YezuPvV6d4L8bfcilavEby52SvVjStba2lRt1bcoH13puqreRJ81W5rZZkryHwB4t87ylZq9gsJkuYk+aspGpzWpWGzf8tZTw12t/Zq6VztzbbKkDEeGmPa1p+TR5NWBiTaUs38NYl5pVilxaWctzHDe3kDXEEL/AHH2Ptf5/wDgX3a7jya5rxz4DsfHPhy70i8aS2dm+0Wd9bvsltZ/4JYn/hZPn/8AH/79AHHzf8I9tu2i1rT7l7W1a6nS3ukl8qL++6J82379ZXgnxJpXjZX/ALOWSG4t/KZreVdj+VL81vL/ALSyr8y/8D/uV5P4G8DT/DPUfC+p6v4fg8Kvb3114d1F32JbajFcS/uvKRE3Mu7yvvbdq/f+7XYeGfBPiPwreJaaRp7XOp+C5/sEsW7Y+qaG3723RN/ytKi/Kv8AtRP/AH61Mj2CzsF/u1sW1nsosEiubKKeLd5Uq7l3q6P/AOP1pQpWRqEMNWUh+bcvyPSIlTUAc54h8AaN4nd2u7FYbv8A5+7f5H/+yrgtY+A9zC7tpmoRXKf88bj5Hr2Kn0AfNV/8H/Eqfd0hpv8ArlKn/wAXXE+MP2afGfja1+wxaZHpqS/K1xdzoiJ/4+7f+OV9l0UGR82/s3/sT+GvgDqF7r3mf234rvPkbUZYtiWqv/BEv8K/7f8AFX0lsRF+Wn0U5S5jTlGU9fv0yikM5G8ttX/4Wb/acGlSfYvsP9n3TzTxJFOu/ckqffbdE3mrtbb996s+FfBP/CPeHJdAnuY7zR4XuIbWF0+dLeX7iP8A7vzr/u7K6iOmPcxJKkDSqkrfKqO33v8AcoAr+GNEtvDeiWmkWzTvaWsCwr9ol812/wB9/wCKq77baXb/AN81zWvfFe20GXxAsGkXd/caHta8i3JF8ro7I6b3+Zfkf/vh/wC5XW380Gq6Xb31nKs1uy7ldG+8taRAZDeLWnbXK1yX2nY1WrbUvmrQDsIZqmubODUrfbKq/NWDZ36vWxbzfxVZZ8u/tG/sc6V8QoZdR0yJbDWF+ZZol+/X50/EL4Z6z8OtZl0zWbNraVX+Wbb8ktfuNvS5XY33K8p+M3wE0D4qaHLbahZq7OvyyovzpXXSrfzHFUon4uzQ7Kr17r8eP2b9e+DmoytLBJeaIzfurtF+7/v14pcw7K7+bnOCUSr5lHmUeXTKsZLRTaKsB0lEdFFUA/zKKZRQA+pfMqv5lP8AMoAloR6bRHQBL5lHmUyigB/mUeZTKKAJvMo8ymUUAS+ZR5lNoR6AJfMo8yovMooAsUeZUKPRQBN5lDvUPmUeZQBN5lO8yovMo8ypAl8yjzKi8yjzKAJfMo8yovMo8ygCXzKPMqKigCx5lHmVF5lHmVAEvmU/zKr+ZTvMqyybzKd5lV/Mo8yoIJvMo8yofMo8yrAm8yneZVfzKf5lAEvmUeZUXmUeZQBL5lP8yq/mUeZQBY8yjzKi8yjzKAJfMp/mVX8yjzKgC15lHmVX8yjzKALfmUeZVTzKf5lZFkvmU/zKr+ZR5lagWPMo8yq/mUeZQBY8ymeZTfMpnmUAS+ZR5lReZT/MoAd5lHmU3zKZ5lAFjzKPMqLzKZ5lZAWPMo8yovMo8ygCXzKPMplNqgJfMpnmUUUFhRR5lHmVZAeZT/MqKigB1NoplAEvmUeZTaKgB3mU2imVJY+mSUzzKJKAH1F5lHmUUFB5lHmUyigB9M8ymeZRQAO9ReZRJTKCThalR6iorqOQsR07zKi8ynx0GoI9O8ym0UGRKj0+mR0eZTIH12Hwrm8nxxpTf9N9v/faVxnmV1Hw63x69bz71/dTxMv+f+AVa+ID6lmfZvSua/aH+HL/ABC8Df8ACX6fF5zxKsWponztFLs2o/8Au7a3bx/uNR4e8c33gy/ee28ua0uF8q8tLhd8Vwv9x0rsqRjVhyyMveh70T4H8680e9eKVW3r/BWi/jC0df39tKjv/GlfY/jP4P8Aw3+KO+70PUIvCuoSfe0zVl/0b/tlLXnWpfsT6nu32n9m3MS/xxajFsb/AL7dK8WWAqR+E744ynP4j5qufElt8iwQSu/+3VF4b7WJfnXYjfwItfScf7M9joru+teKNC0pV/5ZW8/2qX/viBH/APZatongfwM3/EosZdbvV+9d6nEiJ/wC3R3/APHnb/dojl8vtFyxUfsnBfDX4KKbeLXPEjfY9E3fKn/LW6/2E/ztr0ebxCt/cRRQRLbWUXywRJ9yJf7lclrfi2716682edn/AIf+A1Y0R/3td3LGlHlic0ZSlLmkeoaJN9yu40p/lSvOtEf7mK73Sn+VK8eodkTs9Nf7ldRYP9yuPsH+ZK6qxrgkbHV6a/z10um/frl9O/grq9K+8lZGp2eiWzzbK6CbTWtqd4GsPOdPlrrvEmmoluny1jzGpxMdTUOmxqH+5TAY77Fd6/Jr9sy8bXv2k/FssEvyW/2ey/74t0/9mr9Yrx1SD+GvyH+Mc2meIfir4w1fz7lPtGrXTK6L/tvsrro7GFQ89m+HOvbfN2rs+9vdqz9B0d18VeVO3/HrAzSun8NdFf6wsNk6LfXcyf3HasrRNYtNB0+4ubmVXu7qXcybt7qtdBicZ4wtnTW5Vr0H4K65beGbG4urlv8AWM22uPv9StvELXE/lbLj5mXZ/wCz13WiWfh6HQbKCe5VJVi/e/71AHpCfFTTP+e//jtMf4o6e/8Ay81569n4aT5vP/8AHWqjcvoKf6rc/wDwCjlYcx13iHx/FqVu8UUu/dXDw3Ox3/uVUury0T5olqlNqsW3bVxiBnpo8uq3svkbUTd/HXNTWMu6WVEZ4k2sz/3a3316WwieK2uWtkdvn2VmvqTPFLb/ANpSfZ3bc0W35GqZRAbpa7bPVZz/AARbP++mqots6WaPt/hatW2h8nw027791Oq/8BrQ8SWen2dqi2zL/qlX5P4mpAcok22LZtr3D4Y6qyWFlLu+5try+Hwl50Xmpcr5X3vnX567vwSn2bS9m77rffq6fxAfsL+z348+2eDdNdpd/wDC3+66VL8S9VWa9levn39m/wAW/wDFH2kXm/dVa9F8TeIlud/zVwyj75vEx7y8+aq8Nzsese51De1Mhv8A/aqyT0vwxrzWdwjbq+jfAHiRb+1iV2+evkfSdQ9K9Y+HXid7a4i3N8lYSNIn0w/75ayry230aJqq3lqnzVoTJvTNcxoc09n81O+x1p/Z/mqb7L70AYn2X3pjw1sPDVeZKoDl9Y8N6Zrf2T+0dMtNS+y+asX2uBJdium1/v1dtoVsLVIIFWGJV2qifw1e+zNJ/sVE6bP+WX/jtWBWf5/vUIlPmdbaLdcyxWyf33+SuS8Z/E7w14GsrSfVdTjRL1t0Txb3/db9ryvs/wCWS/xN/DQB1tPom2o6bf8AVN935t9FABTqbRQBLT6ZRQA+iimUAMkojod6KAMLxtr0/hWDT9T3Rf2Yt5Fb3ieU7y/vXSKJ0ff/AM9XT+Bq8y8Z+Fb7QdWfTHvLvW9VuJW13wzfXzPK8F/En72y3/3ZV37V/u/aP7iV6x4q8PW3irw5e6Rdtc7Lpfllt9iPF/Emzf8ALuVk3Uy88K6VqWrxarqNtJc3tvKtxB9old0glRHVHRN+1W2s/wAy/wB+gyOHmvIvGH9heOPDViut/aoG0rWNJSWJJVif76Pv2L5tvL/C235ZZf8AYrrfh7putaV4b/szV7a2ht7X9zZ+Vc+a/kb32JL8qbGRfKX5Xb7ldHCiJHsWJUR/m+RasP8AIn/odagcPrCfY7r/AGG+as9Lyt3xIsF5pv2y2njmi+b54m3pXCpefNQanZWGpbGrprDUt+z5680tr/5q3rDUtlWWejwzfxVeSbf9+uRsNS37PnretrnfVlmZ428B6Z4z0uW0vraO5imXayOtfm1+0t+x/qHw9urjWvDls1zo7Nua3T/ll/uV+pEM2/79Udb0G21q1eKeJXR1+ZHX71a06nIctSnzH4OzW3z1Rkr74/al/Yzbdd+I/CcGy4+9PYp9xq+F9S02WzuJYJ4mhuIm2yo/yOtelGXOedKPIZVPokplWQHmUeZTKPMrYCxTfMpnmUeZQA/zKKZ5lHmVQEvmUeZUXmUeZQBL5lP8yq/mU/zKAJfMp/mVX8ynI9SBN5lOR6r+ZT/MoAseZR5lReZR5lAEvmUeZUXmUeZQBL5lP8yq/mU7zKAJvMo8yoaPMoAm8yjzKh8yjzKCx/mUeZTPMpvmVBnykvmUeZUTvR5lAcpL5lHmVF5lHmVYcpY8yjzKr+ZR5lQXylrzKPMqr5lO8ygZY86jzKr+ZR5lAFjzqPOqv5lN8ygC15lHnVX8yjzKALfnUeZVTzKf5lAFjzKf5lV/Mo8ygCXzKPMqv5lHmUAW/Mo8yqnmUeZQBb86nedVXzKPMoILXmUedVfzKf5lAFjzKf5lVPMo86gC35lHmVX8yjzqyAseZR5lV/Mo86gsteZTfMqHzKPMoAseZR5lV/Mo8ygCx5lHmVX8yhHoAsI9P8yq/mUeZQBY8yjzKr+ZT/MoAl8yjzKi8yjzKCyXzKPMqLzKZ5lBBY8yjzKi8yjzKCyXzKZ5lN8yjzKCB3mUeZTfMo8ygsd51N8yjzKZQA+jzKZ5lElABRTPMo8ygAokoooAKKb5lHmUAMkplDvUVBBw/mUeZUVSx11ED6dHTadHQBNTPMo8yigyHo9O8yoqfQQO8yuj8B3MUOqXHm/xxNt3/wCf7rvXNU6F2hlRlamB9d7/ADLC3b+8tc/qs3zPWnol59v8L6fOn8UW7/2b/wBmrH1X+Ku8qJzl+/3/APbrEuH8ln8raiVs3/36wbxKfMZygY95cyum3dWJc7pJPmbfW3cpWVMlKUiOUqJ8tdHoj/MlYPl1p6U+2VK5qnwm9M9N0F/uV32lP8qV5p4euN+yvQ9Hm+WvEqHdE7Sw+8ldZY/w1x+mv8yV1umyb645G0TrdO/grrtE+eVK4/TdiKjSyKiVu2fjbw5ojI19qsabf4EZKwKPoXwBbfukfbXUeJ0/0WvGvCX7Rnw+s/3H2yXev8fno9ehv480HxhYb9J1BZn/AOeT/frn5ZGnMc7N96oZKfN96oXf56o0Oa+JHiSLwr4N1vV5f9VZWctw3/AEdq/ES8fV7qWWWfUJH3Nu37nr9W/25PE6+Hv2e/FC+a0L3qxWSun+3L8//ju+vyXTRIvtT2ssrf7Lp/Ev8FehRp+6ctSXvFeaH5H8+eSZ/wDerJ8ne1W9V0d7OXbE2+sx0eOrlHkIOmtrlIYkito5E/vP/epzal9j+V/k/wB+uaR7n7qtJ/31RNDL/wAtd2+rjIg6B/EKp/FVd/ENYjwt5X3Kio9pIOU1Ztbd6qvqUr1XdN/3aZUc0yx80zP96nQp/s79/wAq01E+f5vuVu+GLBLm/e5l/wCPW1+Zv/ZaALevP/Zv9mWK7d9qu5t/96sm7ubnVV82ZlRIvuvtpL/VlutRmuQm95G/jrOe5luW+ZqAN6HxZLBbpC+2VFXanyr8td14PuZbzRHll+d2ZmryTy69Y8Bo/wDwjif7W6tqXxESPrD4A+KPs2gxRb/u163f+IfO/ir5M+GPiFtNTyt1esQ+Ld6feqKlP3i4yPRX1L5qsQ39edQ+Id/8VatnrG/+OseUOY9O02/+5Xa+G9V+zSp81eRaVqu/Z81dho+pbHSuaUTU+qvAHirfEiu1eoW1z5y18peDPEX2W4i+evoDwl4hW8t0+b56xlEs7hEp/l1DbTb1qwiVzANeH5Kz7mHZ81bHl1n3ifJVxA8p+MHjm++Hs2han5622hfbl/tGVLXzX8r5/N3Pv+VUX97/AHtsT1514z8Q+LdHntJYNX1C5e1nvbe8sUgTfPatL/o9wmxfvRRb/u/e8qvaPG3g+x8c6J/Zt808MXmq2+3ZEdv4XT5/4WV3Vv8AZeszR/DEGj29v9h0pbZ7OBbC2+13TyutrvRtn8f+3W0ZAeS+FU1XxDpeu6L4jvG1vw/q0Dy6FfXbb/NlTer/AD/3dyxXEW7+F3/uVj6V4b0h7/U/EK2a2Gj6SrahPo0UHm7GlieLUrJE2/3kil2r96X/AH69aTwBK+naZY3l9Allpd811YxaZZpbpFFs2xROj7/uq7r8u3d8n/A7Fh8PdDsNUt9Tigk/tCJpZmmSd0SWWX/WytEjbWZ9n9yjmK5Sl4e8YWOiXnh/wvpzNeeH9RsVuNH1BJXl+VPm8p3/AOuXzI38So/9z5+4+69Ymg+FdG8MK6aRpGn6UjNuZLG1SLc3/AK1vMpFkvmUeZTKa71AFjzKd5lV/Op/mUAP8yjzKZTPMqwHu9PR6ru/z06F6AL0dYN94/0HTdRfTvty3OpruX+zrf8Ae3LMibnRET+LayNt/u/NW2j1wnj/AMKy+IftEVpFs1Kynt9Zs5XV0iaVN8Toz/7cS7X/ANmWgDN8bfEXX9H8R+H20y2g/sK9li82WZd8su90XytjtF5X3/vNu+Z0+VKxPiY8X/CaaVqtirPeyvFDLp99avL5rI6LLFFu/wBVP5E+75fvLF/Gleh3ngnTPGGm6V/b9i3m28Eqtafanfb5qbWR5U+98vy10SWyJK+yL/lruaV/4m2bd/8A3yiLT5jI4/w3ol9o+k3Gi3NnB9ktf9Rd2+1Eli/gTan8Sr8rf3tiN/G+zz28m+x38sL/AH1bZXvEyfK9fPPjab7N4ovUT+9VxNTTtr+tuzv64GzvPuVt2d/WgHoem6ls/irqtN1Lfs+avMrC/wDkrd03UtjJ81BZ6nbTI9W0euR0rWN+zc1dHDNvWrLH6lpsWpROrLXxj+1R+x/B4tiuNc0CJbbWFXc6Iv8Ara+2EemXlml5FtZfkqoy5DCVPnPwa8Q+Hrzw9qNxY6hbNbXsTbWR6xXRt1fqb+1F+ydY/EWyl1DT4lttYiX91Mi/fr81/GHg/U/B+s3GmarbNbXUXy/P/FXqwlznlyjyHKU2rEybaryVtGRA6jzKi8yjzKsCXzKb5lM8yjzKAH+ZR5lQ+ZT/ADKAJfMo8ym+ZR5lAEvmUI9ReZR5lAFjzKHeofMo8ygCbzKPMpnmUyoLLHmUeZUXmUeZQBL5lHmVF5lHmUAS+ZT/ADKr+ZT0egCXzKPMqLzKPMoAl8yjzKi8yjzKAJXemeZTfMpnmUAS+ZR5lReZR5lAEvmUeZUXmUUAS+ZR5lReZR5lAFjzKf5lV/Mo8ygCWiovMo8ygCWimeZR5lAD6f5lQ+ZTfMoAseZR5lQ+ZR5lAE3mUeZUPmUeZQBN5lHmUzzKPMoAl8yjzKi8yjzKAJfMo8yovMo8ygCx5lHmVX8yn+ZQQWPMpnmUzzKPMoAf5lHmUzzKb5lAFjzKPMqv5lHmUFlrzKPOqLzKPMoAl86n+ZVfzKEegCx5lP8AMqp5lHmVkBb8yjzKr+ZR51AFjzKPMqv51HnUAWPMo8yq/nUeZQWWPMp3mVV8yneZQQTeZTvMqv5lHmUFljzKPMqLzKPMoAl8yjzKr+ZR5lAFjzKKi8yn+ZQAUUzzKPMoAf5lM8ymU2gBzvR5lNooIHU2jzKZ5lAHBUUyiuggsR0/zKhp9AEtHmVFQj0GRLT/ADKZRVAP8yimUUwPpj4aXn2z4faZ/sxbf++Hdf8A2WptR/jrn/gzeed4Idf+eU8q/wDs3/s9dBfV2/ZIOZvKx7rtWxeJWVcpQBiXKVn3KVsTJVKaGoJMzyamh+Rqx/EmsT6bdRWlsu+V1aV/7+3/AGKteHtV/tWzdn++rbW2L96o5o/CaRO70G8+ZK9I0S8+RK8i0ebbKldL/wAJhBpVq8ruvyr992+SvMr0zrjI9osNSgtl82WVURa5zxh+0Jovg+3+S8j3/wAPzfe/4BXy346+PV9fyS2mmSfJ93zW+5/wBa47SrCXW4nu55ZLm4b7zzNvrh5Ym3Mex69+1R4l8W3UtposTbP78zf+yp/8XXH6rqvxB1KyluZ9cnh8pd2y0/df+PpXA6Ju8N+LUil+RVl2t/u19J2dhBNa/wB/ctKMAPLfgt4Y+JXxk8UXej+GPEdy+rwWzXS293fy/vdmzcqfe+b5q3PCX7SHj/4S+JRp3iFpkltX2S7xtdfw+61eh/sYaVqfgn9qjTJYtPuZtPZrqynuEgd4ol2bkd3T/gFe6ftWfsh6v8WLzXbzw5p3nX6XjalplxvREl8/5ri3d3Zf+Wu9t3+3USLPX/gD+0xp/wAVtJit7ieNNTRd3y/cnX++le1vc713L9yvzA+Hf7L/AMfvhjqNleQeE/tC2srMyW+o2r/L/d+WX7v36+7PBnjbVbDSLeLxRouoaJL5S73u4HRN39zf93/x+ueUTaJ86/8ABS/xUqaD4X8Oeb891eS3TJ/sxJtT/wAelf8A74r4J2edFE/35bX5Zf8Abi/gf/gP/wARX0r+354qXW/jdFY7ldNL06JWT/affL/7MlfNsMzQuk6bfNVtuzb8jf30evUox9046nxFGZ1S4ieX5/m/8do1LTVS6+T+Kr+saaiW63ML/wCit/f+9A39x/8AP/s22B3W8t7eXd8+3Y1Mkrw2f7p6q3NstbGxEs6yZn+elIoz5kZPmWn39mkNqjPB5bsu5dlEz702Vp+KnSG62xfcirMDmUf+FqIYVffubYlN3+c3zVahtl2/Ncxp/v1kWPhtpbyRIIl3u33UrU1u8i02w/su2ZXf/lvKn8VV5NWg0uF4tP3PK33rh/8A2WsR23/Mfmb+KgCOprZN6vTPLq3Zw/upWqAJUs973f8AfVd1eq+CbPZ4Zsvl+dlZv/H68+s7Hzpr1mkVIlVVbetez+HrCK202yiiX5Fi/wDZK6aZEijbPPYS70resPFssPySVqppUUy/drPv/DaP92unmDlN2w8VK/8AFXTab4h37Pmrx+awubBvlrQ03Xmhfa3yVEogfQWj62j/AMVdxo+q9fmr560HxJ9z5q9D0HxDv2fPXJUpl8x77oOsbHT5q9i8DeKvJZFdvkr5l0XW/ufNXpfhvW9jIN9cUom8T690HW1uYk+euotrlXr588GeLduxGavWdH1tLmJPmrnkbHao9Ur37r/WqyX/AMv3qiuLzetZ8rMjPmqvJUrvuqKSqNSlM+xqh3NXG+J/ivpXhu91VdTtrmG307UYNNa4T59zSxJKj/7vzou7+9XL6r8crmGLR2XQ/sCXt9Lps9xdy7/ssuzdbuuz/WxSq+7cv8KPWkYgetfNtof5a+d11XxD8dfD6SQSy2FxpOsLZanaWM7xRS2rvFvuFTcm7b8/y/N9yVa9Y+Gmqtc6RqukXmq/2rqejXzWs9w6ojsr/vYndE/6ZSpSA7DzKf5lV0epagA8yno9RSUxHoAto9M8yjzKikoAl8ynx1XjqWF6sC2j1YR6oo9WEegCxT6r+ZT0egAuX2I9fMnj+/X/AITDUE/26+k9Sm2QO3+zXxv4z15ZvGWqtu/5b7a0iB0FteVq2d5/tVw9nqSuifNW7bXlaAd3Z39bdnf1wlnf/wC1W7YXlAHfWGpbWT5q7LR9Y3oiNXlVteVu2GqtC9BZ63bXO9E+arqPXFaJrauiKz11dneLMu7dVlli5hW5Xa33K+Yf2mf2XdP+J2lyzwRLDqcS/upUWvqNHpk0K3MW1l+SqjLkMJR5j8KPHPgPVfAety6Vq8DQ3ETfK+35GrkZkr9eP2kP2adN+KGjS/uNl6q/urhF+fdX5dfEj4b6v8OvEEulavbNDKv+ql2/JKtelCpzHmyp8hwklMqxMm2q9dJkNookpnmUAPopnmUeZQBL5lNo8ymeZQWP8yneZUVFAEvmUeZUXmUeZQQWEen+ZVTzKf5lBZY8ymeZUXmUeZQBL5lP8yq/mUeZQBY8yhHqv5lO8ygCx5lHmVX8yno9AEvmU3zKZ5lM8ygCx5lN8ymeZR5lAD/Mo8ymeZR5lAD/ADKPMpnmUzzKAJvMpyPVfzKf5lAD/Mo8ymeZQ70AS+ZR5lReZR5lAFjzKPMqv5lHmUAWPMoqv5lPR6AJfMo8yovMo8ygCXzKPMqv5lHmUAW/MpnmVF5lHmUAS+ZT/MqHzKPMoAm8yjzKr+ZR5lAFjzKPMqHzKPMoAseZR5lReZR5lZEEvmUI9ReZR5lBZYd6PMqLzKPOqgJfMo8yq/mUeZVgWPMo8yovMo8ygCXzKPMqLzKPMoAl8yjzKi8ymeZQBY8yjzKr+ZR5lAFjzKf5lV/MojoAteZQj1X8yjzqyAseZR5lV/Mo8ygCx5lP86q/mUeZQWWPOo8yqm/56m8ygCXzKf5lV/Mo8ygCx5lMR6i8yhHoAseZTPMqLzKPMoIHeZR5lN8ymeZVAS+ZTfMpnmUzzKAOHp9RI9O8ytiCbzKdUXmUeZQBL5lP8yq8dP8AMoAl8yn+ZVenI9AE3mUeZUNPqjI9o+BV5/xKNVtv7ssUy/8AA/l/9kru7yvIfgnf/ZvENxbM3/Hxa/L/ALy7G/8Ai69av/vPXXH4QMC8rMuUrTuu1Zk1AGbMlVHT5K0JqryUC5Tl/EPhX+2JYpYp/JlVdrPt37qfo+jrolr5Cys7szM1bVzJsX5Kwtb1u20e1ee5l2f+ht/uVhKUY+8VGMibUteg0S3eSdtiLXCalJqHjzUkt4pWhiaLdFCn+59965fxJ4kufENwjv8AJbp/qoU/hr2X4P8AwK8dfEHVNC1DStNazsooov8ATtQ/dWz/AD/wf3v+A150pe1kdMY8h4P9jlhungnVkdflbf8AwtXq3wT8DeJ/GeqPY6Hod3qSbl3Swr+6T/ff7q19v+Ff2JPBn9sy6/4nZvEOpytva3T91b/98J9//gT/ADf3a+i/D3h7T/DdnFZ6ZYwWFrF8sUUUSLs/3ErP2ZfMfGnhj/gnd/wk9/FqvjPXm01G2/6Dpi73/wCBSv8A+yo1fVfgz4CeBPBNrbxWmix3ksS7fOvt9w7/APff3f8Aviu4T5B8q1Kj1HKbRLFskVsqLBAsKL93ZWgkzVnw1ehSuaRRdhd/73/j1W037flaq8KVaRKyLPJfjH+zZ4K+MFrLLrWiwW2qt/zE7FfKuf8Avtfvfwfe3V+an7QP7NmufArXP37Nf6PK3+i6gi7N3+w/91q/Y3Zurz/4tfDfT/iF4Z1DSNTtlmtLqLbs/uf7af3WropVOQyqRPxdtpms5fNiVXSX5ZYpfuSr/t1iX9/aJO3lSz2z/wASP86V6R8S/h1d/DTxpqvh67/1trL8su35JYn+4/8A3zXnWvaV5372JfnWu+UeaPNE44kL6q/kbfNV0/2GrPmvKqpDsil/vVXrk5jYuwzf6Qjt9xGWrGsO0107fwPuqkqf8S52/i3VY+0/abdGb76VmWZ7wtC3zU6abeqLU0376LY331/jqo6bGqAGUUU+gC5F5/kPtg3rt+/t/hqe22paxKzfeareipG11FFf3bQ2rLt/dSr92sy8RpLp1jXem75dlWB2Gg6baP8AvZW852b+Nvkr2XR4dkUS7f4a8C8DaW+peJrSL+CJvNb/AIBX0bpVtvrePwkGhCnyUP8ALV1Lb5abNbVZsZk1tFMnzLWJf6Ir/MldG8Oyq7pVc5HKcpD59hL/ALFddoPiD7m5qz5rNX+8tVPsz27b1pkHtfhvxD9z5q9Q8Pa3u2fNXzToOsMuxGr1Dw3rX3Pnrz6kS4n0n4e1vZs+avVvDHirZsTdXzZ4e1v7nzV6RoOsfc+euOUTpifRVh4h86L71Xv7S3/xV5Jo+sfKnzV1Ftqu9PvVmaHZpdb6ck1c/DeYX71XkuqAOE8VeCf+Eh8b+KNOu/PTR/EeixbpYUbZFdWsr7H3/d3bZUZfn/5ZVj+EodQ8K6do9z/wjV7qWtefFb6jEipEi3VvE6vcI7/eifzflbf91/8AfWvWPO3rTPMoMjktN+HraD8Q5fEemah9jt7iJobyx8jek673ZPn/AIdsrO27+7K61oeG/B9n4Y1G4u7a51K8u7qBop7i7l3+aqSu0W//AHfNdF/2fv762/Mo8yoNR33afVfzKf5lADneot/z0x5qb5lAF1H+SmeZUW/5KZ5lAFjzKej1UR6m8yrAuo9S+ZWb51S+d8lAGh5lPR/nrP8AOp3nbKAM/wAZ6wulaHe3LN8kUTNXwfc6215qVxO335Z2avpD9pnxt/Y/hL7DFL+9vW2/e/hr5HS62V204+6B3dnqv+1XR2Gqo/8AFXl9tf8A+3W7Yals2fNUSiZHqtnf/croLC//ANqvMtN1j7nzV0tjqv8AtVJqejWd/W1Z3lcFZ39btnf0AdxZ3+xk+aux0TXNmze1eY21589bdnf7JPvUFnsthfrcp96tBHry/R9YaHZXbabra3Py7qANeZFuYtr/AHK+f/2h/wBnLSvipoNxBPAv2jbuiuE++rV9AI+6muiXK7W+5WsZchnKPMfhv8Ufhdq/wx8Qy6RqsDJtb9xcbfklWvP5oa/ZX9oT9njSPip4fuLa5gX7Rt/dTIvzq1flV8V/hXq/wu8Q3GkarA2xW/cXG35JVr0qdXnPNlHkPN5KZViaHZVeSukyGeZR5lNooAd5lFNo8ygB3mUeZTfMooAd5lHmVFR5lAEvmU/zKr+ZT/MoLHeZR5lN8ymeZQBL5lHmVX8yn+ZQBL5lHmVF5lHmUEFjzKPMqLzKPMoLLHmUeZUPmUeZQBN5lHmVD5lHmUATeZR5lQ+ZT/MqAH+ZRTPMpnmVIE1HmVD5lHmVqBN5lHmVD5lHmUATUUzzKPMoAf5lO8yovMo8ygCXzKPMqLzKPMoAl8yjzKr+ZR5lAE3mU6q/mU/zKAH+ZTvMqLzKPMoAl8yjzKi8yjzKCyXzKPMqLzKPMoAl8yn+ZVfzKPMoILHmUeZVfzKPMqALHmUeZVfzKej0AWPMo8yq/mU7zKkCbzKPMqHzKPMoAm8yneZVfzKb5lAFrzKb5lQ+dR5lagTeZR5lQ+ZR5lAD6f5lQ+ZR5lAFjzKPMqv5lP8AMoAl8yjzKi8yjzKyAl86jzKr+ZR5lalljzKPMqr5lO8ygCx5lP8AMqp5lP8AMrICx5lP8yqnmU/zKALHmUeZVfzKPMoAseZR5lQ+dR5lBBN5lHmVD5lHmVQE3mUzzKZTfMqQOJp9Mp9dBA9Hp3mVFRQBbplM8yjzKAJqPMpiPR5lAD/Mp3mVF5lHmUAdB4M1X+x/E2n3Lf6pZdrf7r/f/wDQq+gLyZHr5iR/nr23wr4h/tvw/byv/rYl8mX/AHkraMjI1bl6z5qmuZt9UZpvlq+Y1IpnWOqU01SzPvfFcp428Vf8I9bpFAqzXtx/qov7v+3XNKXKVyjfE/iq20SL5/31w33Yk++1QeBfgP4y+Mt5FqEyvp2lP/q7u5RvmX/pkn8f/oP+1XrfwE/ZrXVLu38SeL7bz55G82K3uV3qv++v8Tf7H3f/AEFfuHwT4MVZYoLaL97tVWf77f8AA3pwoyq/EHNyHiXwd/Y58J+BniuZdP8A7Y1Vf+XvUE83b/uJ91f/AEL/AGq+ndH8JeTFtRfvfervdB8EwWEHzr89a01hFbJ8q12xoI4ZYuJxP9g+TF92s+aHY1dneQ/JXGal8kuyprU4wiVhq0qsivHU0dQolW4UrwZSPciWIUq7bJ89V4Uq9ClcchlqGr0KVUhq7ClSBYRKWa2Wa3df71ORKsInyVRqfn5/wUC+FapNpXi2CLZt/wBFunT+6/zJ/wCPb/8AvuviW503en/slfsR8fvAEXxC+Hmq6UyrvZW2u/8AC2/5H/4C2xv+AV+UOsaJPpt1cW08TQ3ETMrI/wDDXq4SXPHlPMrx5JHkmt6DskeWJf8AeSuddGtpfnX5K9T1Kz+/XI6rpSfO22rqUf5SI1Dl4Ztm9G+61L/qX3RN/u1Pc2exqq7HjevNlHkNgeZnb5qZT02v95aPLqCxlSpD8+yhPk+bbWhbaW8yvPK3k26fel/+Jq+VgVYbbzl3N8kS/eemfc+dGq9NdfaZVgtYmRFb5UrTXS7e+W0gtW8y/aVYf9iVf7//ALLRysg674Q6K6+fqDr80n7tP8/5+7XuOj2fyVyng/RIrGzt4IvuRLtX/ar0bTbPyYkrp+CJcQ+z/LVea2rV8uonSsyzEmhqk8NbU0NUpoa1AynhqF4a0HhqJ4aAKkMPkturq9Bv2hdKwkSrtn8j1nIg9g8N6x9z569N0HVfufPXg+g3jpsr0jQdV+589ccolnuej6l9z5q7Cwv9+yvItF1L7nzV3WlX33a5pGp6NZ3nyJWxDc1xmm3nyJW7bXNZmpvJNUvmVmJNUyTVAFrf89N8yq/nUzzqsC35lM8yq/nUzzqgCw703zKrvNTPMoAu+dQ71VR6Y81AFtHp3nVn/avaj7V7UAaHnVY86sf7V7VN9q9qsDS86q95frDE/wA1UprzZXnnxg8cr4S8H3t3u/esu1UqogfOvx48c/8ACT+OriJW/wBHsv3K/wC9XnP2r2rKe/a8upZ5W3yytuZ6sJNvr1PgMi8lyyVdhv2SsnzKek1QB2Gm6t9z866vStYHmfery+G82VtWGq7GrGUTU9e0/Vu9dRYal33V5DYax/tV12m6x8ifNUgem2d//tVt215/tV55Yarv2fNXR21/UAd1Z3/+1W9pWqtDLurgbO/rWs7/AOb71AHsWj69Fc7Fdq2/9uvItN1VoW3769A0HxAtyiRS1BZ0D7Zk2y/crwz9oT9nvSvip4cuLaeBftG391Kn31avc3RXTfF9yoX2OuyX7lXGXIZyjzH4b/FT4Y6r8MfEdxo+qxN8r/urj+CVa89mTY+a/Yj9pn9nXTviv4auE8pUvV+eKVE+fdX5Q+PPBOp+BvEF3pGqxNDcW7Ntd/uMv9+vXpVec82pT5DjZKZ5lSzJ89V66TImpnmUUyo5gH+ZR5lReZR5lWWO8yjzKb5lHmUEA707zKbJR/DQWHmUUzzKPMoAenzvQ77ahmmdPm/utQ77/nWvYo5dKrR9pE4JYiMJcpNv3UeZVfzKPOry5Q5Jcp1xmWPMp3mVX8yjzKzGWPMo8yovMo8yg2LHmUeZVfzKPMoAt+ZTPMqv5lHmVBBY8yjzKi8yjzKAJfMp9Q+ZR5lAD/Mo8ymeZR5lAE1FQ+ZT/MqwH06ovMp/mUAO8yim0R1ABR5lMkpnmVYE3mUeZTKKAH+ZR5lMooAl8yjzKio8ygCXzKb5lM8yjzKCx/mU7zKi8yjzKCCXzKPMqLzKPMoAf5lO8yq/mU/zKAJfMo8ym0VBZL5lHmVF5lHmVZBLR5lMooAfRTKbUFjqf5lM8yjzKADzKf5lM8ym0AS+ZR5lRUeZQBL5lHmVF5lHmUAS0VF5lHmUAO8yjzKb5lHmUAO8yn+ZVfzKPMoAseZT/Mqv5lHmUAWPMo8yq/mUeZQBY8yneZVen+ZUkEvmUeZVejzKCyx5lN8yq/mUeZQBy9O8yovMp8ddBiS0eZTPMo8ygB9HmUzzKfQA9Hp1RUeZQBLRUXmU9HoAlrqPA2qtYat5H/LK6+XZ/tfwVynmVNZ3jW15FOv34mVqAPcLz5H2/cf/AG6z5nrqLm2i1W1RnVXR4t61ympaPLDv8qWX/gDV0yiKMiu710fwx+HNtrnjRfE+pqs1lp0Swwwsv/LT+9/49XH/AGO5eXakrf3dle++D7PZFZaZF/x7r/H/AHv8tWUY/wAwSme4fDrRJ9SuLeKBf3rf7PyRLX1R4J8GQeHrBF275W+ZnrhPgX4MTTdLS5lXfLL8++vaIY/4a9D4Y2PBxNf7MRrw/JVS5hrV8uq80dRGZ5fMc1fw/K9ef6x8k9elaknyvXmXiR9txWmI/hntZfL3ivC9XoaybZ60IXr5WofVxNOGrcNUYa0Ia5BluGr8P3aoQ1oQ0ojiXYasR1XhqxHVmhV1K2S5t3Xaroy/x18E/tA/C3w0/iq7/tFNQ0q7uP3rajYxfak/35bX5G/4FFu/3d9foG6b1r5C/bY8Kyw6fZa/bbka3n8pnT7+1/8A7JU/77rbDT5Khy1o88T451X4D3l+7/8ACPa9oniRP7lpfJb3P/gPcbG/8crhfEnwc8Y6C3/Ew8NapbJ/fms32f8AfdehXmsXN4uy5WC8T/p4gR//AEOqttqs+mu/2Fp9Nf8Av6ffXFv/AOgOle9zRPK5ZQPBNS0GeGV1lttj/wC3vrn7nw9Pv2qq/wDA6+m7nxP4huV2N4h1t0/uS6m8v/oe+sm5m1W8/wBfquoP/vzp/wCyLWMqcZG0ZSPnJNEuf4oqsPo8EPyMzO9e13Pg+C83+f5827+/dPWZc/CvSrn5liZH/wCur1zexNuc8fT7NbfM3+kv/cT7lQalqk9+yea33F2qifcVa9Kv/gtv+a0vGT/YlWuUvvhXr1m/7q2+0p/fiaueVOUS+aBz9i/k75F/1rfKuxq9b+HXg9rOJNRuV2StEqqn+z/fqv4J+FDWFx9s1Xa8qfdt0/h/369d0fSvm+ZP9qqjHkA0NB0ryUT5K6hIar2dt5OxK0ESolI2iROlV3SrrpTHSsyjNmhqjNDWtMlV3hqyTEeGovJrVeGonhoAo+TVu2Sjy6sQpQBpaa+xq7nRLnZsrh7NK6rSm+5WUgPTtEv/ALnz13uj3/y15Jo9zXd6PefKlccjU9Q0q8+RK6WzvK890q8+SuosLysAOyhuamSasSG5+SrENzUGpq+dR51Z/nU/zqALvmU3zqr+dTEegCw81CPUT/NRHQBY3/JVd5qc71Xf5qAB5qPOqu336a336sC151PeaqnmUeZQA+5vPlr40/al+J0WpeKIvD8E/wC6svml2f3q+kPi148g8B+D9T1qeVUS3ibbvr8ste8Z32t+Jr3WZ2/0u6l81q7cNT5jCpLkPXbO/wB9acM1edeHvEkV/EnzfPXZWd4r/wAVdkohGRvI9So9Z8My1bR6zEWkerENzses9HqbzKks3rO//ep89dVpuq/c+evPIZtladnfslRKIHrunar/ALVdRZ6r/tV5FpusfInzV1unar/tVkanqdnqWF+9WxZ3leeafqX8G6ujsL//AGqgDvbO/resNS2VwNnfpW3Z3/3KgD1jQfE+zYsrfJXWo8V5F5kT14vZ39dhoPiBoXRWb5KyA7CZFmV1lWvkz9sP9maD4keH5dT0yBU1i1Vmif8AvV9bJMt5D5sVV7y2S5t3SVVda6KdTkM5R5z8Cdb0qfSry4tLmNobu3ba0T/wtWPNX3R+3t+zx/YN6/jPSIP9Hb/j8RE/8fr4auUr2qcueJ50o8hF5lFFMqyB9M8yiigsKKZ5lHmUEE1FQ+ZR5lBY+mU3zKKAB/n3/wC7Tbeb5Xjb+GnfL/FWJqWq/YLr9037377f7NfUZdmNPC0/3h5WIw0qsvdNt02NUPmVb8PeJFv7DZO0Gz+J5f4aZc23yNKjLsZm27PuV42LxFPEVOamezDAzw9GNSX2iJHp/mVX8yjzK4BFjzKKr+ZTvMoAmjo8yofMp/mUAP8AMp1RU+ggd5lHmVFR5lAEvmUeZUXmUeZQBL5lHmU3zKdQA/zKPMpnmUeZVgTeZR5lQ+ZRQBY8yiovMo8ygCXzKbR5lHmUAFO8yovMp9ADvMo8ym0eZUAO8yjzKbRQWFOptFBA6im0eZVgFHmUUUAFOptHmUAO8yjzKbRQBLRTPMoqAH+ZRTKPMoLH+ZR5lMooAHen+ZTKKAH+ZRTKKAH+ZRTKPMoAKbTqbQAeZR5lMooAl8yjzKip/mUADvTo6io8ygCxTKip9AEtMo8ym+ZQBL5lHmVF5lHmVIEvmUeZUXmUzzKAJab5lM8yigDnKfTKK6DEfRRRUAPo8ymUUAP8yneZUVPoAd5lHmU2igCXzKej1D5lFWB9EeA7xNS8KaZL9/8AdeS3/APl/wDZat31sv8Adrkvg5qHnaDd2zfft593/AXT/wCxeu4vE+/XfH4DIwYbNEv7eXb9xq9o+BWnvqt/v/55fK1ePzPsfcn3q9+/Z1hWGXUG/wCmqtUQ+Mmfwn3R4GhSHSIlT+FdtdhClcP4DuUmsIl/2a7hPuVtW+I+YqbktV5qlqKauaJxmFqvyK1eU+Km2XVerax91q8k8YPsuq7K38I9zLfiKVtNWlbPXP201bFtNXytQ+wib1s9aEL1j2z1pWz1yDNOGtCGs+GraPSiaRNKGrcNUoXq1DVjLFeT/tG+Ev8AhLfhbrtoq75Vi3Rf733v/QtlesR1m63Zrf2F3A/3JVZf/HKn7YpRPyEm+/8A3P8AYqu6V2HxR8Nt4V8c63pm3YlveSqv+795P/HXrlHSvahLnPOKvl1KiUOlPjqwHIlTbVoSHf8AxKn8TO/3FWqk0zQ3VuiO00Uq/f8AK2VHMBY+Wjyd9PRKtQw0cxQW1n8/3a6Gwtti1Us4f9mtVPlrmlIuMS3ClWKro9So9YGo+SmeXT6dQBXdKrvDV7y6Y6UAZjw1E8NaDw1E8NAGf5NWEhqXyalRKAH2yfPXQWNY8KfPW3Z1JZ0ulP8AKldnpU33K4nTfuV12lP8qVzSA7rSrmurs5q4fSnrqLB6xkB1dtN8tWoZqx7Z60IXrMDQSZqmR6oo9WEeoNS35lPR6ro9OR6ALe/5Kej1Cj0/ctAD5KhkoeZf7y1Vmv4k/iWrAdJUTv8APVR9YgT/AJarUTarA/8AFQBoeZTJptkTvVJbyJ/4q5z4heM7bwf4ZvdTuZVSK1iZvnqoxA+R/wBuf4o/adSsvB1nP+6t/wDSLzZ/44lfH7zfP96t7x54tufGfijUNaud3m3s7S/O33V/gSuXeavdpR5InmylzF22v5bOTzYmr0Xwx4zS5RFlb568qeanw3LwtvVquURRkfRthfrNW3DNvX71eI+FfG33Irltj/369O0rWIplRlauaUTp5mdRHTkes22m8z+KrqTVmaljzKlSbZVXzKd5lSBsWd/sro9K1X5k+auKSartnebGqJAesabrH+1XUabqW/8AiryTTtV/2q67StV+X79YyNT1Kw1L5a3ra8WvN9N1T5U+auis9S+581ZAegW15/tVvWF/9z568/s7/wD2q2rPUtn8VAHr3hjxD5LJEzfI1dbM6v8ANF9xq8UsNW8l9yNWnqXxmtPCunOss6/7lZAbHxd8N2niTwbqdpfRLNbyxMrI9fiJ450pfD3ivVdMjb91a3TRL/uo9ffHx1/bYtbPTbiz0+X7Zdsu1Ykb7v8Av1+e+t6rPrer3d9ctvuLiVpWr1sNGRxVpGf5lHmUU2u85B3mUU2rthomoaqyLZ2M9z/1yioLKVFdxpvwT8a6ls8rw9cpv/v/ACV0Ft+zH49uUT/iVKn/AAKo5xcp5PRXsD/steOkT/jxirB1X4A+NtKR2l0VnRP+eVHOHKee0Voal4f1DR5XW+sZ7Z1/vq9Z8lWMZUX9gwa3ceXK2zYvnM6fe2/db/vj5P8Ax+pasabc/YLy3udvnJBLuaL/AJ6xP99P++auHL9ozl/dPqv9hnXtB0HXrjw5qeh6bM+//Wy2sTvcK77fmdk3Ns/9nSuc/bn+Fdj8N/i/cS6RbR2eia5axarZxW67Iot/yyoif7ybv+B1574S1tvh18SdC1WKffb286xS3H3EaJ/+Wv8A3y+6vsL9t7w2nxC/Z90TxfAvnXfh26VZX2/8u8/yt/5FWL/vuu+tGHL/AITnp1Z81j856KG+/TK807B9PqHzKfQA/wAyneZUVPoAd5lHmU2igCWimeZRQAUU3zKdQA+n1DRQBNRTKfQAU6m0VYDqPMptOoAf5lFMo8ygAp/mUym1AEvmUUyjzKAH0eZR5lFAB5lFMko8ypAfRTPMooAf5lFFFABT6ZRVAPoplFBYU/zKZRQA/wAyjzKZRQA+imeZR5lAD/Mo8ymUUAP8ymUUUAHmUeZRRQQHmUeZTPMooLH0eZRTKACn1FRQBLRUXmUeZQA6jzKbRQBL5lM8yoqfQBL5lCPTKf5lABRTPMooIDzKPMptFSWc/TqbR5ldBiOp/mUyioAPMo8yiigB8dPqGjzKAJqKh8yn+ZQA+iiigD0D4N6l9m8Qy2zt8l1F/wCPJ/l69gvPuV87+Fb/APs3xDp8+/7sq7v+B/8A7dfRUz+dEkq/xLurspy90yMK/mZGfaq7K94+Al/v053X+Jfmrwe/T79em/ArVfJurizZv9pauHxikfeHwr1XzrdF3V6xC/yV82/C3XPs10i7/v19C2Fz50CNXZUh9o+axMeWRp+ZUMz0eZUUz1zRicBj6q/yvXj/AI2f/SK9V1ib5Xrxfxtef6Q9dNeP7o9XL/iM+2ua2LOauStrmt2zmr5KofZxOrtpq2LN65ezmrdsJq5jaJ01v92rEdUbab5amR97UGhoQ1dhqpbJV5EoAlR6H+dXojooLPz6/bP8Mf2P8S01FF2Rajaq2/8A2k+X/wBB2V8819wftyeG1vPB+n6uq/NYXW1n/wBl/l/9C2V8P16dH4TzZBTadTf4q6CAeFblXRvni27Wif8AipljYNbfPLc3Nz/d+0Nv2L/cqwnybKsR1kUPRKtWyVEiVdhSlIC9D8lWPO+Sq6Iz7P7j1zniH4heGPDDOt9q8f2hf+Xe3/ey/wDjn3f+BVzSOqJ1qTL/AHqmSb/arxy5/aH0WF/9G0jVLlP777Iv/i6Yn7RunK3zeHtQRP8Arujf+yVlzRL5T3BHqZHryTTfj94Tv22yy3emy/8ATxE+z/xxnr0PRPEmn61b+dY30F5F/fhl30zM3aPLohdZKloEV3SovJrQ2bqPJqQMx4aEh+er3k07yXoAbDDWlZpUUMNaFtDUcwGxY/w11Gm/dSucsEro9N+6lYyLOr01/uV1Fg9cppr/AHK6Ozf7lc0gOitnrQhmrHSZUTe1cr4z+K+g+CbP7Tqep2lhF/D9ob7/APuJ99qQHpCXVOe82fxrXyF4n/bh0O23xaNbahqr/wALoqW8X/fb/N/45XmWvftjeLNVkf7Dp+n2Ct917jfcOn/sv/jlaezkPmP0AfxPYw/euV3/ANxPnqjqXxC0zSoHnnnWGJf+WtwyRJ/4/X5pax8b/H/iHelz4l1BEb+C0ZbVP/IVclc/a9Vl8288+8lb+O4Z5W/8frb2JPMfoxr37WngDQd63PifTd6/wWKvdP8A+Ob6851v9vbw5DvXTtN1/VX/AL6QJbp/4+9fGsOlXL/ci2J/sLVqHw9dv/yyar9nEz5me969+3p4jud66V4Ogtv7r6jqLv8A+OJsrzLxV+2f8Vpo3lhbRNNT+5b2rv8A+jd9c4nhK8m/5ZNXYW37P2pax4cTU2i/dNL5SptrTliBx+k/tP8AxU1adPN8QL8zfMiWNun/ALLXqHh74/eNU2ebqCzJ/txbK4fxP8Jb7wNo1xqssH7qJd3z150nxCuYflWBf+B1UKfOXzch94fDf4/NrEsUGpr5Mv8Af3V5J+2N8b4tVWLwlplyrp/rrx0b/vhK+Z5vidrjptiuVtk/6ZLXNTX8s1xLPLK00svzM71tGhyS5jGVQc772pvmVD5lHmV2HOP8yjzKZR5lAE3mV0Xh7xhPprosrfJXL+ZR5lHKWe/aD4tgv4k2tXUWt+jr96vmTTdVn02VGiavRfDHj9JtkU7bHrmlE1jM9jSarCPXL2GtxXKpsatWG831lym8TT8ypUmqkk2+n+dWZJtWeobD96ugsdV/2q4VJvnq7bahs/io5Sz1jTdY+5XUWGsJ8nzV4/Yaxs/iro7PXlT7zVzcoHrVnqqf3qvTeJ7bTYvNll2LXz54y+OWkeCbB5Z7ld/8KV8xeM/2ltZ8c6h9miZrDTN33Eb52o9mLmPsPx/+1FFYebY+Ht15d/d37vkWuJ8E+Lf+E2uNTXxZfXPm7POgihbZE3+xsrxrwkkVzZpLE2/dXcWFtsZGVtjrV8qEUfHn7MGvw+FdQ8W6ZBJc6fFK26J12Pt3/fr56mhZGdG+/wD3K/Vv4N/FHT/Fvw5vfDWp+Xbahb2rfP8A8/S/7f8AtV+e/wAdfA0XhjxNcX1nt/s+6lbbs/hrahU+zI5pRPJ/+A16L8Ovgb4h+IskTQW32ayf/l4da6P4IfCKDxPdJqeqr/okXzJFtr7N8MJbabZxW1pAsMS/KqJXTKoEaZ518Pf2RfC+gpFPqf8AxMrj/prXuXh74e+HtHiRLTTIE2/3FSm2c2966jR4fO2VjzSmdPLGJas9HttvyWypWtDoML/8slrV03R3dE+Wt2HRNlb/AFeUzH20IHKp4Ytn+9EtE3gOxuf+WX/jtdqmlVKlhUSpzgbRlCR4f4w/Z+0jxJbypPbRzbv7618q/Fr9if7N5tzou6F/vbNvyV+kH2T/AGaqX+gxXkOx4lrHmlAqVM/Dzxh8Pda8GXjQahZsiL/HtrnYX8mXdX6+/FH4A6Z4wtZd9tG7sv8Adr4K+M37K+p+EbiW50yBniX5tm2uilU5jklT5Dxy2T+1fDkUX35bdvsrf3/70X/s6/8AAK+/f2YNVg+OvwK1Dwvqc6/8THTJdKnd/wDllLs2o/8A6KavgLw/Zz22pXGmSxMj3UTKqP8A89U+ZP8AgXyOv/A6+kP2J/Ga+HvihqGgtLst9S/0q1T/AGv40T/gP/oFe38UDzvgmfKWt6PcaHql7Y3cTW17bytbzxP9+KVPldP++qx6+oP2+fh1/wAIZ8eNQ1OCL/iX+JrVdXgdF+TzZfluP/IqO3/A6+X5K847Ap3mU2ikA7zKKbTqAHo9FEdFAD6KZT6ACjzKZ5lFAD/Mp1NooLJaKZRQQPp/mVD5lFBZNTKPMpnmUAPp9MooAfRTKPMqSB9OqLzKf5lBY6jzKi8yigCXzKb5lMooIH0fxUyigCWm0UUFjqKKKCAoptFBYeZTqiooAlopvmU6gAooptADqKbRQA7zKb5lElFBBLTKKPMqixtOpvmUeZQAeZR5lFM8ygB9FFFADKKKKACn+ZTKKAH0UyigB9FMooAJKKKfUgMoplFAGLRRRWpiO8yim0UAOp9RU7zKACim+ZTo6ACn0yn1YBRRRQA9PkbetfRvhXUv7V8P2k/96LdXzfXtHwf1L7ToMts3/LJq2pmR1F4nz1ofD3Vf7K8V2TbvkZvKqpcpWartbXCSp/C26txyPsrwrrH2a6iZGr6b8H62t5YRfN/DXxV4S1v7fpdpOn8S1778LvFXyJA7fPXfT9+PKePjKfun0B9o+Woppqybe/R4k+am3N/8v36UafvHgmT4hv8AyYn+avBfFur+dqDrvr03xtraw28vzfw18+alqvnX7/71PF+5T5T3Mtj9o6OzufmSujsJq4GwvPuV1Fhc79lfHVD6mJ2dnc10FhdVxlhdVvWdzXMbxOwtrn5K0LN97Vzlnc1t6bN81BsdbpsO9K03tvlqjo7q6Vsv9ypLMmSmVM336hoA8q/aQ8O/8JD8LPEdoqb38hpl/wB5PmT/AMeSvzMb79frX4wtvtmk3cW3ejRV+UXifTW0fxHqen/8+t1Lb/8AfDutd2GkcVQz/v8Ay07+Km/KtMSZE3+buSuwxLcdWI6z33NF95kf/Yq7bPvt0b/Z+/UgXYU37KfqWsWOg6dcXOoTxQxQRfM7/wC3/AlRPfwabZy3lzKsNvEu7e9eWXC3PxE1aPUNTgl/s9f+PHTEbbvX++1YSkdMYx+KRX1zxx4l+I8r2ehxTWmlfcd0+V5f99/4f93/ANDrK034Y2ys6z6h50v8SaZbNcP/AMCd9irXqVt4eRLdIrnb5SfdtLddkS//ABVa1tDsTyvK8mL+FEWo9n/MX7T+U83T4aaV/Fp2pTf9ddRt4v8A2SmN8MdGf72lavD/ALcV9by16h5KP/DUP2OL+4tHs4l/WZHkV/8ACvSJP9VrF7pv/YW0x0iX/gcW/wD9ArMj+Ffi3QZWv9CZtQEXzfaNEn811/3kT51/4Ete5pYKn+qZkqlN4btppUle2VLhfu3Fo3lSpUezL9tGfxRPPvCf7QOreHpVtPENs1yqvta4Rdkq/wDAfut/47XvngzxhpHi3TUudMvI7lE+Vk3fOv8Avp95a881XR7nWIni1CK08Tp/CmpxbLtf+3hPm/76rhbz4e22m6ilzoOp3vhXU/4YtRb5f+AXEX/syL/vVHvRD2cZfDI+pUXzNlSvbNXz1Y/GzxT4DkitPGeitcxP9zU7fbvZf7yfwN/wHbXq3g/4teFfFTp9h1qBLhv+Xe7doJf++X+9/wAB3VBEoyidb9l96l+y+9XUSnpDUGZUhtquww1MkNWIUqQJbNNldBY1iQ7U+/VfUvG2maCnzy75f7ifPUAejWD/ACVq/wBpRQp80qpXzL4h+NOtP5sWnrHZxf33+d68p1rxnr1/qKPqOq3N5b/3HbYiN/uUvZj5j6Y+N/x7XwNpP2TSGXVddut3kInzoq/33/8AZV/ir5HuvDfiXxtqkup6rLPf3sv3pbj/AD8v+4tdho+q/ZmTau//AGK7Ww1V32NtVK6eXkMzzfTfg5dv/rGb/gFdNZ/ByBPvRM/++1elaC7X9lcXKxM9vattluPuRL/wOtZ3VNu7/wBC31nzSK5Tzmz+GNpD/wAsF/75rWtvAFon/LBa7JHXbRU85nys5pPB9on/ACyWrCeG7ZPuRLWw7/PT/Lo5yjPs/DbTOksUDfZFl2tKi/Ju/uV9S/DfwTBc6Dp8E6/IqtcMj/7f/wC3Xz54V16+s9Gi0adYnt1l+XZ/F8/3/wD0D/vivsjwPpX2DQbRG+R1Vd3/AHwlEjSJ8i/t/vZ+FfhjZadBtS41G6WL/gKfM9fnS336+u/+CiPj9fEnxYt9Btpd9vokH73Z/wA9X+Z//HdlfITvXpYaPJE46nxDKKZ5lHmVuZD6KZ5lFAD6PMpnmUeZVAP8yjzKZ5lFAD/Mp6TfNv8AuVDRUgdNoni270fZu+eKvSNB8eW1/s3MqPXiPmVMkzo29GpcprGR9K22sK/3JaupfK6/er5103xbfWGzbLvSugs/ijPGv72D/visZUzb2h7V9sWpkvNleP8A/C112f6hqqXPxRnm/wBUuyp9mX7Q9ovPFVtpVv5s86olcf4z+IWozaNK+mTrD8vy15lf6wmsKjXLM9V5ra+8h4LS53o38D/w1hKJHMw8H6rB4wvZdM1qXfLcfdldq5/xN4SvPB+rvbT/AHPvRP8A3qP+EP1XQZVvv40fdvSvXXS2+KXgvc21NTt0/wDHkqAOc+GPip9NuEglb901e3W1+syoyNXzPYWcthePBKux1ba1d/onjC502LyJfnT+GgD2aHxV/Zr/AOt2f7leuv8ADrRde8OaPc6hc21zp+qWMt7ePu/1Gx9uz/e/+Ir4/m8SS3Mv3q2LP4mX0Om/2ely3lbvmR5fkqOUD3j4ewqjXFtY7vsSN+6d/v7a9e0d/JVFrzH4dW32Pw/bt/HL8zV6Bps1WbRO702b5tlei+FYVm2NXk+lTfOjV6j4PvF3JXZQj7xjU+E9a0qzRIkrYS2SsrR7lHiWtpHr2vhPla1SXMN8lKheH56u+ZXBfEL4waH4As5Wnnimu1Xd5W75F/36563wnbgqk+Y7OGzd6GvNIs22XOoW0L/3HlRK/N/41f8ABRTfdXFj4eWfXpd+3/R/3Vov/A/4v++P+BV86ar+058VPEl1+7lj02Jvup/d/wC+2evElzTPoeY/ab7f4avN6f2rbb/+u6VieJPhdpXie1f/AFVzEy/xtX5SfD3xh8ZNeZJU8S2kPzf8vDbEdf8AgC17boPx48f/AA3lil8VafJZxStti1axl32zf8DT5f8AgNY8siT0P4wfsT2mpSpqGgXK6brFvOtxBNKv7rzUfcm/ZXxFrCX3wT+LtpN5TQ3Gk3zKqf7KP9yv0g8E/tLW3iSKKLVdroyrtu4vv/8AA0/ir5y/b/8AhjbXkWmeOtK2vb3rfZ7p0/56onyP/wADVf8AyEleth60vhkclan9o7X9tLwlbfFr9mPRPGumL5134XnWZnRfv2U+xX/8e8pv92vzMmRkZ6/UD9hXxPY/Fb4S6x4D1x1mtJ7OXSrqF/8AnlKm1P8Ax19v/AEr85/iL4MvvAHjTXfDmpqyahpN5LZT/wC0yPt3/wC633v+B1rKPJI56fw+8clRQ/zvtX7zttVEr2Dwf+yp8SPGFql3aeGpYbeX7r6jKtvu3/7Dtu2/7X3f9qsZSOjlPIqK6Xxt8Ote+G+uXGjeJdKn0rVotrfZ5lTYy/30dH+auaq+YY6im0UEEtHmUzzKKAH0Uyn+ZQWEdPplFAD/ADKPMoplAEtFReZT6AHUU2igB1FFFABRRTakgdT/ADKip1ABRRRQAUeZRRQA+imU2gCXzKfTKfQAUzzKKKCw8yn0zzKPMoIH0yn0UFhR5lFMoAf5lFQ+ZT/MoAfRTKZQBNR5lMooIH+ZTKKZQWPoplFQA+iin1qAyjzKKKADzKKKKACiiigAooooAZ5lPoooAZRRRQA2ipfLpnl1IGLRTPMo8ytTEKf5lM8yjzKAH0UzzKfQAUUUyoAf5lO8yoqfQA7zKKbRQBLXe/CG/wDsfiF4Gb5LiL/x6uC/hrV8MX/9la9ZT7vkWVa3iZH0HcpWVMnzvWwz+dFu/vVkzJ89dwHqfwl1x3017Z2+eJ69l8Ma29hdI+6vmXwBqX9m+I0j/glX/wAer3CzudmytqEjnqR5j6d8PeKluLVPm+etO81tfKf5q8H8N+J/JVEZq6ibxJvg+9Xse78R89Uockip8RvEP+jt81eLzX/+kM+7+Kul8baxv3/PXnX2z95XlY2XOezg48sTuNNvPuV1em3n+1Xmmm3/AM33q63SryvmKh7sT0Owuq6Czua4rTbzfXRWdzla4zY7Czm+RK3rCb5q5GzuflSt6wm+auc1PQtEm+5XQb/l+9XFaPebK6WG53rQdBNJUMlDvTZKsCprCb7V/wDdr8x/j3pX9lfFfxHFt+9Osy/8DRP/AGbfX6d3/wA9q9fnf+1ppv2P4qyy7fkuLVf/ABx3row/xHLWPEZl+TfTfvN/sVLJTK9U5CL7B8v9/ZWn9yJU/upVdHrM8Va22iaM9zB893LtigT+9K/+f/HKxl7prEx/EE0vjTXk0aD59MsG3T/9NZf7j/7K11dhYRaXFsT55f4n/vVmeEtEXQ9ISD78v3pX/vN/HW8ieX8tRy8ocw5fv0+mR1LHTLCin0fLUAHl1LHTY6ljoAfsim+8tO+zecrxSqtzE3/LKWhE3VYRKyAyk8KwPE9tp8q2yS/NLY3C77aX/fR/l/4EtcL4q+CGmXG+48uTw3L/AM9U3XFi/wD7Vi/8er1dNrptlVZl/uPWnYXMsOxIp96f8+9x86f99/eqZRNo1JRPmq68JfEH4aWsVzb6nqFnpjP+4u7G6820l/4Gjbd3+z96rulfHL4kabJtbV4LxP8Ap5s0/wDiN1fTdnpWnI0tzYyy+GL24XbO8S+baTr/AHJUf90y/wC9VHxD8GfDmpfv9V09fCVw3zf2toyvdae3/XW3/wBbB/vLuX/ZrGRt7sjy/Qfj941udi3Njozp/sRSo/8A6HXpGiePNe1vZ/o1tD/uK9Nf4D3fhuK3vLlY7zSZW/canp8q3FpL/uSp/wCgttau10Hw3FZxIscWyoMCvDYXd4ifaZ2f/YqlqvhXerfJXoVnpVXptE3xfdrHnA+afEmiNZu9cbeW3nK6OvyV9G+MPB6TRO+yvEte0SWwuHRl+StoyIOU028azuktpW+T/lk//slegaPctNb7d3z7a8/1Ww8yKtDwj4niSf7JeN5Nx/C7/wAdWB7L4V0rTNS03w5fSwR38tvtVorj/VL9xZUdPuq25X+Zv7+77la2pXMUOrvFFAttFb2yxLEmxNq75WX7ny/dZP8A9uvJ7zxt4es5Hl/tOW2lfb5qWM8qJK3+2ifxfLWZN8Y9HhXyoF1Cbb/zxX/4uoJPbYbxae9/F/z1WvBP+Fuz3PyWei3s3+3LebP/ABxEoh8Q+KtYf9xpVlZ/7bq8r/8Aj70cpR7m+t20P3pV/wCAVn6l420+wi3SzrCn9+ZkRK+X/ij4n8WeG7y00+XVZYXli81kiVIv/QK4/wAN6PrnjzxDa2Nstzqt7eS/Z4k3O7s1HKVzH3x+zlqUHxM8ebbF2udP05vOuZkifyv9hN9fafjDxVbfDnwRqer3zqlpp1q1w3+9s+5/7LXmP7LXwHtvgn4DtNO2q+p3H+kX0v8AeZ//AIj5K8i/4KHfFr+zfCtl4Q0+X57qX/Sn3fe2bGf/ANk/77/2Knl5pcpX2T4C8eeJ7vxh4q1vWbtt93eXTTSv/tO9crN96p7p/wCD+7VSSvWgcEgoptFUSOpvmUUUAHmUeZRRVAHmUeZRRQAUUUVIBTqbR5lUA6jzKPMooAf5lFMooAsJN8ladnfsnzLLsrHo8yolErnOjufEl8kWxpVmRqh8PeJLSwld/tPkyy/eRK5933Vj6xpsv/Hyq/J/FXNUjyFxkdxf63YvL5izruqL/hKrRF2L87VwVmnnW7rRpt41jdb9u/8AvJXMWdhNrd9eb/sts3+/UNnDfJf28tzP/wAtfuU2w1LUNSTZArbHrdsPDcsL+fdM29asD7T8EzbNEtf92u102avL/A+q79EtPm/5ZLXcWF//ALVB0xO4sLzY/wB6u48N635MqV5VbXny1sWGsbP4q6aEuSRjU+E+lfDHiFZkRWeu7h1Jdn3q+ZPD3i37Ns+aug8YfFL+zfD6QRS/vZV+bZ/dr6TljKlzHzFajKdTlNX45ftCWngvSLv7LcqkUS/vbj/2RK+B9e1XU/j9qV7Lrmrz+G/CVu235/v3jf3N/wD6F/Cv92vO/wBpL43yeJPEn9nQXW+xtZXVkT/lq/3Xb/gP8P8Auf7VVtY+JE9z4e0K2tW2aLF8yW6fIitsRf8AvrbXg1KntJWPbo0vZR5Ts7PwN4e1iW3g0yBbOLytsVjYt/pO7+/LL97/ANBX/ZSul+Jf7CvijR/h9F4u0y2bVbTa0s6Wk/8ApNr/AL6fdb/a2/NXl/gD4hXng/XrK5sb77HLDdfaJX3f63/f/u/3f+B16B8b/wBre7h+HkXhDw5r19eXF6u7UX+dEiV9/wC6T/a27FeuOUpHSfKvhjxxr3gDWf8ARL5nSJvmR23xS19bfDv48J4g0l5Bt+z3C/Z59MlXfC//AEyZPu/Ps/8AHPkr4/8AC/hO58Wam1qs+y7mb9xEibt7P9z/AHVrX8B/2n4Y8TRLLbXL2UjeRc+Uu/ev9+o5WXzM+uv3WmpLquhrJ/Y6/NPaO297P/bT+9F/49XrGg+LbT4hfD7WPA+p3MX2LVoNtnNM3+ouv+WT7/8AbbYteL+GZtRsLj/RN14/lMyywr+6ni+66f7Lf7LVof2Hd2HiHSv+Efs/tKX8rLFp27Zsl2bni+f7u/a+z/a/36uMuQJRM39kvxhL8K/jcmnXnmwxXU/2WdH+TbLv2/8AjjV6b/wUF/Z11fxV8WPCXiPwvbLNL4vX7BdP8iJFdQJ/rXf/AGoP/Sd68S+Nk0+lePtP8T28TWz6iyzTvt2bbpP9b/wLb83+87199a3bS/tJ/sv3cGkSsniO1iXUtMdG+dL2L96mz/f+eL/gdelU96PNE874Kp5b+z9+x/4e+EsFpqWoLBrfiVfma7li+SD/AK5J91P9773+5X1BprxW0HlKrIir8v8Acr5Z+A/7TNt4z0FINXVrbU4ov4/k3N/c/wDQ/wDvivaPFXxC0zR/A13featz8vnS2/8AG9unzS/99r+6T/alSvElzcx6p8q/t/6lovjPVL2+3RW194f+wW9nsX/Wyz+bLcRf7Xy+U3975H/v18L3KfO+z+9XvfxatfGXj/7RrU3hbxNDZGd7/wC2vZyvb3TN8ybd+xF273b/ALa/xV45c6Vv3skqu/3mR1dH/wDH676fwnLI5+irE1t5P8S1XrpMgooooLCnR02igCWmUfw0UAP8yjzKZRQQPopnmU/zKCwp9M8yn0EBRRRQWHmU6m0VJAUUU6gsb5lOopvmUEBRRRQAeZRRTqACiiigAooptAEvmUUUUAFMptHmUFjqKPMooAKKKKCBtOptFBY6iiiggKKKKACin0+gsZT6KKACiiioAKKKKAGU+nbN1TJYTzfdiagor0eXWrD4bvpvuxNWrZ+ANRm+8tLnA5KivSLP4Vzv96tuz+EqJ95aYcp4/sZ/4Wo8lv7rV7xbfDG2T70VXU+G9n/zyWgOU+etv+xTK+g5vhjaP/yyWs+5+EVs33VoDlPmmiiiug5xtS1FUtADPLp8dReZTvMqAJqZRRQAUUUUAFPplPoAKlR/m3VFTo6ZkfR3hi8XVfD9lP8A3oqLlPnrmfg/qX2nRHtm+/by/wDjr/5euuvE+SvRjL3QM+2mazvIp0/hbdXuWj3/ANssIpd33l3V4PMnz16d8PdS+06L5Tffi+WrgKR6FZ37Qv8AerY/txvK+9XKpN9ypftHy13xkcUoFfxJf+dXGTXOx63tYm3765S8m2PXNU980pm7YXnzpXXaXf8A+1XmlnffPXUaPf8A3K8StE9GnI9T0q8rrdNuflrzTStQ+589ddpV58iV5UjsiegWFz8tdBYXVcPYXPyJXS6bc1zSNoncaVNXUW1z8lcZoj+dKipXZw2EqRJ8tM0LaTVL5lUvu1Kj1ZY+8/493r4R/bPsPJ8W6Pc/89YGX/x+vuuZ/kr4y/bYs/3WhXX92WVa1ofEYVD5UkplDvTY69U4x38Ncvc/8Tvxzb2y/wDHvpcXnbP+mr/crpneuf8ABKfab/xBc/3rryf++E/+yrGXxFxOth+6ny7KljptOq5EE0dOjqKOpY6yLH0O6otFD2sU33130FlSH77pBPH5v9z79W4bzZK6TrsdVVqLa8Z5dv2bZF/t1Enz3UrKvz7duz5/u0AaUO113q3yVYjqlN5ULfOvk7m/1qfxVbtnd3RdyzRbf4Pv1kBoQ1aRKihRX+61XUSoLL2leb95Gb733K6rR7y5sH3WzeS+7ds2/um/4B/D/wABrmtKtvnRv73/AMXXYWdm1TIDQ0eb+x797zRbxvCWq3Hyy+Uvm6fef7EsT/K//jrV2H2zQ7nb/wAJRpS+Cbttu3VtM/0jSp2/20+9BXKPbK8CKyb4murfcjr8jfvUrsNLhnsPksZf3T/8u83+q/3P9muaRRrah4DvtHt0udsd/p7fMuoWLebbt/wP+H/gVVPsfy0/SvN8MXT3Ph68l8K3bfet0XzdPuP+Afw/8Brqv+Et0jUNkXi3Q10G4f5f7T09v9El/wCB/d/76RWrI1PPdV0pZon+WvL/ABn4JW8V28qvpq8+Gct/E8+jX0F/E33Uf5H/APif/H64LXvA2r2e9bnTJ0T+/wCV8n/fdKMjPlPjrxD4PubOV9q/JXGX/huWRvnir671LwTLNI++Bv8AvmsxPhW9y/yafI/+5FXTzD5T5StvBMty3ywf+O11Wj/C6WZ03wV9R6V8ENVmZPI0C7/33idK7vRP2e9cm2b7OKz/AOusv/xFRKoLlPmHRPhdFCiO0H/jlddYeDFtkTatfUum/s8RQp/p2of8At4v/Z66Oz+FPhfR33NbfbH/AL93Lv8A/HEqOaQcp+avjz9nvxn8Zfi88Hh7QJ5rKzgit2vpv3Vqnybvvv8Af27/ALq19n/szfshaH8CrVNQvmXVfFFwv7278r5Ldf7kX+z/ALX8Ve5vqukaVsggaDev/LK3Xe//AABEpiPqesI/kQLo9k33ru++eX/gCf8AxX/fNXzl8pb1XVWhX+z9P+e9k+6//PJf+er/AOylflp+2f4qi1X406hp1tL51lo0C2qu7f62X/Wyv/wNnr9JfEGsWmiaJqC6ezfZ1XdfancN89x/sV+OvjzxE3ifxhrurv8A8v8AdS3H/fdbYaPvGNSXunLzfeqv5lOkpteqcgeZRTKfUgFFM8yn0EBTKfTKACiiigAqWoqf5lUA6iiipAKKKKACjzKKKoAp9MooAfWxptsl/YSwNWJV7R7z7HdJu+49RKJUTl5LCWxuJV/g+61O0qa2+0fv/krvtY0Rbz/SYl+RvvVx+peFZ0fzbZd6/wBxK4JR5DY6Cz8TwWa7bG2aZ6qX/jbUfN2Ovkv/ALFYWiax/ZsmyeL5N1S63fxX1wjxVAH1H8K/FS3/AIctNjfOi7Wr1Kx1X5PvV8m/BzxI+mzvYz7kRvnXfXvVhrHyferU2jI9TttY+X71acOq9q83ttYetKHWP9qtIlyPTrPW9n8dcT8V/G09todxPEzea3+jxJu+fc/y70/z/cqBNV+XYjVgzeHoPiF4/stGubz7Hp9lE11O6NF+9b+CJPNlRdz/AO//AH66eaXLynHKMT5b+LMmm6SlvoFnaWiXsG2W6vtr/aJbh/vo7t/c+7/33Vfwz4bi8WX1xpuk6ZqWpasi/uIdMRn3bv76fe+X/ZevonXvhF4Vh1JPEOtSyI7SqtrpMM6IqxOn35ZUX5dqp8y7/wDZ3P8AerT+IXjPwn4b07Sl8J6ZZQ29reLFfQ2++WK6XzXaJ3R/9mJF2b/46uGH/mMfbfynmWifs0/EjUoreC2nXRLJlX5L7U/nX+/+6i3yr/3xXqUP7EL6rLbyxWN9NKrfv5U3/Z/+AfO7N/wLbXayftpa9bWsVppmn2mmoqqv+iQJFtqr/wANl+N0jSKC7/h/jl316kcDh/tSPIli8X9mJp+Hv2LV+0JPqd94ihTd/qtOgS1dV/2ERdq/99rXdaV+yp4A0RU83wr4y1jav3HurdP/AGrXlX/DYvjz7z6gzo1Zk37V3j24bdLeNsreODwv2pGP1jHfyn1HbeFfAXhLSLt7n4aeINN09Yv3t9caxEiRKn8f+tSvlT4nfEvw9prfZPD1nrNz4g1KzbytMiXZ5Fu+xkTf/wAtd+3c6slcv4/+PHizxbpcVjqFzczWizqzJ99GVPm2VF+zf8UdD0T4oeKtc1/z5vt6ta2uoo3z2q793yff+X5Ei/3f9+vHxdOjSly0z2MLKtOPNUHw6xB4n0S98D+IblXu1lWbTteu98Tzsm/Y+113KrL97d/sf3K+iP2CfivL4furjwrq+6G402f7PLE/31Xf/wCytv8A/HK9SsPD3hz4o+GrSKW20TWEuNyrb3cSbGX+DY/8Lfw/fX/0Na5fW/2Y5dE8TWXiXwheT6be26/Z207UJfNinX7qJ5vzsv8AwLd9yuanWjH3ZHRUp854P+1p8PYvgb8ffEE9j59to+uf8T+wdPuJE7/6Wn/AW/e/7K/79YXxR8YavqX7PtprNtfNN9v1a30WJ/v7beKJ5X3J9/55fKb/ALZV9Afth2d38Rfgvp93Lp8qeLfBt1509j5Tyyz2D/urj/eifanzfd2pXP8Awp+GkHxI/ZY1O209bl9Y02WLWtJt/wDWyv5CJvR9n3maJtv+89ckjePwnz14Y/al8VaDq1utnLe+G9qxWSw2/myxSxb3+eXzX+bYsvy/7ifLX0x4Y8MfD79o3w8+oeL9Vu7/AFi6lluJ7i4W32Iz/Nst7i3iSVWX5FXduX7/AMteQ694e0PxtoPkXMss2kt924T57m3b+CVH/wBv/Pz15b8OvHN98JfFUUE7edbyy/M+7ZFP8/3/APe/vf8A2dZlDP2jf2Zta+BuvRKzNf6Ff7pdO1Hb8k8X/wAUn8f/AH0leJPD/Etfr54Nu/C37Q/wxuPAOuHzrG4iVrG6/wCWtnLs/dOr/wC9/wDE/cevzL+NPwo1b4RePNY8OavB5N3ZTsu9F+SVfvI6f7LK25f9+umnU5jGUTy+ipZk2Pmoq6iQoopnmVQD6KKKAHUUUUEBRTadQWFP8ymR0UAPooooAfRTKPMqQH+ZTqi8yn0AFFFFBAUUUygB9OqLzKf5lADqKb5lHmUAFFHmUUAOjoptOoLG0U6m0AFOptFAEvmUym06gAp9Mp9QAUUVKltJN9xWoKIqfVuHRLub7sDVpWfgnU7n/lk1AGFRXe2HwovpvvLXQWHwcb/lrQHKeRVLDZzzfciavfbD4SwQ/eVa27b4dWNt/CtBfKfO9t4bvpvuwNWrbeANRufvLX0RbeFbSH/llV5NKgh/5ZLQHKeCWfwpnm+/XQWHwfX+NK9jS3Vf4ad5NBfKzzez+FdnD99VrbtvAdjD/Ctdb5NHk0ByswofDdpD/wAsquppsCfciWtP7L70eTUGnKUkt1X+Fad5NW/Jp/k0Bymf5NHl1oeTTPJpcwcpS8mneTV7yad5NHMHKfA9NoorpPNCnR02OnUAFPplPoAZRTadQA/zKKZRQA+iiigyH0UUUAegfBzUvs2vS2zt8lxFuT/P/A69duUr538K3/8AZviDT5/4FlVW/wDQa+i5Pni3V2U/hAx7xK3fAGpfY9Z8jd8kq/8Aj1Y94lV7Ob7BdW8/8cUtbkHtu/5Ka81VLO5W5tYpV/iWh3+euuMjKUSvfv5lcvfV0dy9c5qP8dRIgzIbnY9dBpV589ck83ly1oabc/NXBXidlGR6ro9/8qfPXZ6VefIleVaPf/L9+u40q8+5Xj1InfE9K025+Wuo026+5Xnum3n3PmrqtKvPuVxyibxPTvDGoJDdJur1q21KC5sETZXgulalFbMjSyqif7b16VonxF8J21r5V9qcaP8A7EqVzyKibE2zfTUesl/Gfhq8l/0bXLZ/9/5KemsW1zBK1tcxTOn9xt3/AKBVmhoTP8lfKX7Y1t9p8JWk/wDzyvP/AIuvffA2t6vrGnXEuuWf2O4Rtqpt2bl/v14l+1jDv+H178v+quomrWl8ZnU+E+J5KZHQ70I9ewcIyZ/3T1j/AA9+fTrt/wC9dS/+hpWtcv8Aun/3ax/hz/yB5f8ArvP/AOh1l9s2j8J1sdPqGnx1ZmSo9WI6rx1NHWJZLHViOq8dWI6CyWOn/YIG81/+ev3qfHVhEoAhfTVubhGb59tXrawXzUbayfN/33/v1LDDWhbQ0AD6PFfxJ96i58MX1xa/K3/fFbFnDWxDDsXd/s1hKR10a0qZF4e01ks7JWX/AJZV1thbb5UqpoNh/otvv+/5S/8AsldNZ2exkrmlIzkV3tti2+z/AJ+rf/0aldhDbbKxJrb97ZfL/wAvVv8A+ja61IayJGw/3WXen9x6tW1t9mR/sjfZt33otu+L/vinw2296t2bwXMrxRSrM6ytE2z+Fk+/UGplQ6VBpsvm2LXPh6X+/Y/Nbv8A78T/AHf+A7a6jSfFXie2XZ5un6wi/wAcU/lO/wDwB9//AKHTtHRZvmX50+b+H+58tbCWcH8UCv8A760FhD451N/9f4cnT/b/ANHf/wBq1bTxtffw6LP/AOQk/wDZ6ZHbQL/yyWmXPlWdrLOkG/ylZtifxUC5iabxPrz/AOo0yDZ/fmutn/oCPTt+uXK7pb62tk/uWkG9/wDvtq5258T3iWXm+RG8u6WJre3/AHsu5E3f7H8P+xV3TZm1K9uN1zc+VFErb9vlIyun3P8AgH/s9WM0H01N2251y9eVn+48vlfN/wBstlVJobHypXi0We8Vdu176XfE/wA/z/f3tVXSkb7LqvlLBDd3DfuHT53dU+VHff8Ae+Za0obb7T/x8u022Lyp4pYvkZn2fOif/E1YFtLxbC1ia2sW3/3Il2f/ALK1VmhvtSXdfSqif88ov/i613+RNjNv2/LVK8fZFUAfO/7XXjn/AIQ/4R6rFA3kvcRfZ4tn95/l/wDsq/L+5f56+wP2/PHP9oa9pXh6Jvkt1a6l/wDQUr43d69TDx908+pL3iKSimSUVuc4+meZRRQAUSUUUAFFFFABRHRRVAPopnmU+gAooooAdRRTaAHUUU2gAooo8ugsKdTfLp1BBs6PrzWf7qX54q37fyJn822l+T+JK4enpcywt8tRKPOVznd3Ph7T9U/4+bFf99Ku6J4A0aF/N+zb3/264e28T31t91t6Vq23jyWH/Wqyf8CrmlTNuY9GTwvY7kbyNjr910+/W7bO8Py1wWleOYrl0Tza62x1hZkT/wCJpFnRw37VdttV/wBqotE0HU9b2fZtPnm3/dfb8ldwnwT8Q22nJqF8ttYW7ttSW4l+Rm/uI6featI8wSlExLDUt7pXCX/xLnsG1WxtGiSXUZWVpbv50iVE/ubXb5/k+Zf79ezeIvgP4jsfg8/jyzvrJ9Eb9yt3FP8AO29/K+RH/i3P/FWT8JfgzoHiTW9bS2WRNC0mzuIrzVvK3yz3qffR0dNq/Mvyp/sOu596VtExlKMz5d17xl4keR7aLRZLO48rzfkgR5dv3d77E2r/AN8LT9HmaHQXn1fU50luLq1uFi3b02/33f8A74/74r7Cm8MeHtY/Z91XxPHpWl6brum3kU0t3aLsee3+Tf8Auk/2nf8A8hL/ALVfHfi7wTa3WsXRudek+17trebaqivt+VH+T/Z2VjKMwjyHr9nc6reW+62ay1WJm3b5fnf+CrTpcwpvu/C8T/7cLJXlXhXR7vRF82x8VWkP3f8AW70/+LrsLb4tarYf8fLWOpIrbf3Ur/8As6JWXLVNuaBt/b/D33bnSp7B0/vq9O/s3w9f/wDHtebP+Bbaqw/G/SLlfK1XSJ4U/idESVP/ABx6dNrHw58VfKl9HYS/3/nt6jmmV7hm+KvBl88Vo2kXmyVWZld32bfk2/fo8DeH77wxoyRX1ssyXDM06P8Aclb/AH/8/fetJPhRrl/apc+FdcXVbR22okrb0f8A2N9d3D4b8S+GNBt/+El0qS2ib9z9oRfNtmlT7/zp8tLmmTymF4S17U/Ad/8AadAuZUiZmZtPd32PX1F8Jf2t4tY81LxY4dT2qrWlw37pl/uIn93/AMer5V1LSkf/AEnT7ldn8Sbd6NXP69rC6bpEuoeV/pFv83+2uxHbej/72ygD7F8WftA6N4++Jdl4F0iCKHSrCD+0Nd8Qypul05XT5rSJ/wDaZ/K/4Ht2vsdq9D8N+Eb74WW9xrng5P8AhJdBltWi1bw3ZbkvrWNvnleyf7zRN97ym+b5Pk/u1+fnwK8Safpt9FB4jS7huNWuV1WV3ZJftm938pN/+x+9bb/Ezp8vyV+h3hjxnaXOiJqenzxW1wu2aCW3+ff/ALH/AFy2/eaokET4G8YeJ1+GPxV1jRXl87wvey/bdFvkbektq7/J/wB8tvVl+8rI61j+PPDdnrGmvPFIqafdfvll+/5Uv9//AOK/2fm/g+T6Y/aZ+EulfFfSNT8Q6dPp9trth/xMNW8PWKt5s/3FluIvk+WV/wDyLsTeu9Pn+TfA2vQaVPLot3creaVe/wCou/n/AHTfwb0/vfw/8DeiIHa/s3/Gy+8B+I/7M1BvsdxpbfN50v3lSvff2rr/AMOftOfCi4+Inhpbu51jwhKun6tcfY3RLq1f7r79u1tjfN/21f8A2K+N/idbRaJEl3BpEc1xastq0ssr7E/55fInyt8u9fm/uV63+zlbeJfjf4t0/wAOa94xvdE0+1VoV0m3329o3391ukUTIq/K77t3+3V/D7xB8339syM+6sqSvYPjx8HNX+CfjS98Nauu+aBt0Fx/DPE/3HT/AID/AOz15JMn367ImRXooorYgKKKKCx/mUeZTKKAH0UUUAFO8ym0UAO8yjzKKKAH0UyipIH0UUUFhRRRQQFFFFABRRRQWFFFPoAZT6KETdQAU6pobOeb7sDVoW3hjUbj7sDVAGTTa7Kw+Gmq3P8AyyaumsPgtczbPNoK5TymnpC7/dVnr3XT/ghEn366aw+EtjD99aA5T5vh0e7uvuwNWlbeCdTuf+WTV9MW3gPTrZPliWtaHw9bQ/dgWgvlPm+w+Fd9c7N6tXQWHwZZ/wDWrXvCWaQ/ciWrCJ/sLWfMHKeSWHwcgj+8tbtn8MbG2+9Gtd9tajyaOYvlZzNt4Psbb/lktaCaJbQ/diWtn7L707yaOY05TMS2VPurU3k1aS1qZLWjmJKPl0eTWj5KUeSlRzAUfJp/k1dSGn+TRzFmf5NP+y+9T+XT/LqAKv2X3p3k1YooAr+TR5NW6ZJQBX8mjyasIlDpQBX8umOlTfNTvLqgIkT5Kf5dO8um+XQB+elPjoortPMCinUUANp1FHmUAFFFFABRRRQA9PuUUUUGQU+mUUAPR9j76+i/Cupf2r4etJ/42iX/AOzr50r2L4Ral9p0GW23fPbtXVS+IDsLlKz5krWmrPmSukg7jwNqX2nTvIZvniroHevOfCV59j1RN33Jflr0D76oK1iSRXXauf1L7ldBNWJqSVZEjlb/AOR6ZZ3Oxql1JKyvO2S1jViEZHcaPf8A+3XcaVqXyJ81eSWGpInzFqi1j4nW2g2ru8qoi/x14lSJ6UT31/Ftno8Xmzy/drzfxt+1jaeHv9G06VXf+HZ9+vlXxn8XdX8VTeRBPLbWjN9/+NqZ4V8PQXMqSz/vn/264+Vmx6nc/tA/EHx5K8Wi2d3Nvb+DfXI+J/G3xJ8PXG3U4pbZ2/567/8A4uv0L/4J4+A9FvItVuZ7OJ7iLbtd1+7XKf8ABSb4e6dpWt6FqFtBFD9qVlbYv9x//s6x9p73KB8PeHv2nfEGiyotwGkVP7kv/wAVX0v8Jf2nP+Eg2S2moMlxF/A/yutfM3x/+F6eEvsmoW0WxJVXdsWvJvD2tXOg6nb3dtKyOjfwVfxF8zP2i+HXxjTxCiQXbL9o/v8A96uZ/afmWb4c6q3/AFyb/wAfSvl34S/EWW/tbK7WX+FWavcPjH4kXWPhBdy7vnZYl/8AH6IR94uUvdPk+iOjy6t2em3OoS+VBbSzO33diu9eqchRmf8AdPWF8OnZE1CD+5PLt/4FXrGlfBDxZra/uNKZE/v3DbK7Dwf+x/rlm8stzPs81tzIi1P2ijyfzKcjr/er6W0/9kuBPnubmd/9ytiz/ZP8NQv5rW0ry/391KRZ8ro9Wo6+u7b9mnw1D96xZ/8AfatNP2b/AAw//MK/8ernlUiXys+N46tIlfXb/sx+Gpvu2Mif7jVXuf2VNDm/1TXMP/bWs/aRL5T5URKvQpX0Rc/skJ8/2bUp0/31Ssm5/ZX1y2/49ryCb/fXZR7SIjxqFK07OGuym/Zv8Y6be/aWjaZNvyQ286bKb/wrrXNN/wBfpV2m3/pk70c8QMyzh+5Wm6bLC7f+7A3/AKBUsOiXNt/rYpU/31q3c2f/ABLrvf8A88G/9ArHmGbuj2yJEi/7K1u2cPzVSsIdm+t2whrml8RRXeH/AE3T1/6eov8A2eurRK590/4m+mL/ANN93/jktdWkO/ZUgCPFbRPLK2yJV3M/91ar+D/KvE1vbEvmxXkrfJ99Vf5k+fd/dert/YS3Ol3EUSq7vEyqj/7lWLDSrvTbq4aK23xSxL86bP8AWo7/AMH+6yf98UGpz+kXOqpf6hFYxRQ2630q/wCjtvZot+13+6/zKyP/AMBr0tP4N6/Ptrl9Ntruw2RNZ3Lv58rb/IT5d8u77/8AwOut8urAZTblIni2yrvR2XclOuZorC3eedtkSfeesfWNensJbLbbL9nuJfKaV2+7v2bH/wC+noAtx2EH23dBAqbJ/Olf5/7m35P/ABypbB7a8tdQVlV4pW2/d2b12VYtd+1VlX5/KVmf/aoRPJiiiVV2L91NtWWWYX3qiw7U2/xp/wCgb6R5pXn8pVaFNq/vX/8AQKr3N/BYW+6WVU2VSTUt6vOkTea0qr97ftoA2N6JvrC8Q3621rKzN8iqzVDf6w39qW9jE3z/ADNL/u7P/skry39pPxz/AMIN8L9b1FW2XHkeVB/vP8qUGcj85Pjx4wbxt8TvEep7t8Xntbwf7qfLXms33qtXM29vnqpJXrx9yJ5siKn0yn0yRlFPplADPLoodKKADzKPMptFUBLRR5lMoAKfRHRQA+iiigA8yiOneTT/ACaCxlHl1MkLVKlmzfwtQBU8un+XWnbaPPct5UUDO/8Ac2/PXpHg/wDZj+JHjaSL+yvCGpOjfdluIvs8X/fcuymQeSeXR5NfbHgb/gmV461hUl8Q6vpegxf3EV7qX/2Rf/H6+gPA3/BNb4c+G1WfxBeal4kdPvJLP9ni/wC+F2f+h1Xs5GcqkT8rIbOWaXasTO/9yvS/CX7M3xN8c/8AIK8Gao6/8/FxB9ni/wC+n2LX7AeDPgh4K8JeU3h7w5pej2i/L9ot7VEll/4H97/vp68i/au+PGneFbX/AIRXQ7yP+0JYvNutn31X+CJ3/wBr/wBBqJe4EZc0uU+LPBn7A3irXrp49Q1zSLN4v9bFaS/ani/39ny/w/36Zc/sp6Hc6jd6ZoOvXesPa/6/U38qK2b/AGET/wBn3123iH9oFPDHw0fw9pk7JrevPtvLvc/+j2uz5/8A0N1/3Xeu/wD2P/jf4P8AB/hzxBd65BAl35sX2NPIR3WJd/yK33v9t/8AaetqNH25Nap7KJzXgD9gGW/VJ5ftdyv+75Sf99v/AOy19HeCf2LfD/htUa88vf8A3IV3t/329Ude/bq8O2e9NPsvO/32rzLxP+2xq+pI/wBkiWFP++K9WODpx+Kx4VTF4ufwxPqebwz4L+GOjXd81jHM9rA0qxO255dv8FfBfjP9pnxD8afEflalp8Fto9hP9otbe3iT/RdiS/ff/vj/AGaz/En7Ruv627/adQ2J/vV55rHxO+02cttFLF83yt8qfNVVqdGEfdka4SNbm5qhp63+0bqulfs96Z4Dii3266m17K/95f3TIn+7u81v+BpXH+DPjdr2jeFf7IttQns7K6Vt1oir5Xms/wA7/e+9Xnmm2d5cxafLFLsedtrIn91H27P/AB2th/hLrlnYPPbSwQxIvm7Hl+9/ub0r5ydQ+gjTO10Tx5eP8LdW37dksTLLLt+f55U/9mrQ0H4VxeKtEtL6D7ksSt/44lcV4Y02XWPADaVbSr5ssv8AH8ibd6f/ABL16x4Vubzwxo1pabo5ti/M6NURrcpp7I5q5+CF9D/qt3/fNY9x8JdctvurXtFn4wl2fv4G/wDQ61bbx5p77FnXyf8AfWumNaJn7OR82zeANZh+9bN/3zWdN4Su4f8AX2zP/wABr67sPFvh65f/AJYPTPGE2gQ+Fb25tII0vdqwxP8A7Tvto9pTDlkeO/s8eGLnw3rN34jitlv1tbVrhtOe6+zu29/Ki2fxNvbzf+/SV7B4z/bS8Oax4PfTbPwvqGlarq0H2hbhL52Ty9/lb/4Pv7E+X73yJXmngPS9A8SeLb2x1DbeeHLfUZf3V8qIn2WzidU3v/F/rf8AO+uo+NnwW8PaPf6VaaNaQWaatLFtiin2J87v8mzd/ufMu37lcdSXvFxPF9B8ST/2ylpfX32ZLqKKazvoot8X73/llKn8Wxn27v8AYqv48m1LRN8V3Zx3Np5uz7RE3m2jt/sP/wB9/wDfFe2/tFfslxfDTwlZazoc6wouorZN5rb4ol8rckvyb9v8Hy/N99Gr5o1Dx+1z4fstKmtJ7Brf9z8rM/m/PKzP91f723+9WJsbHgH+y9U1NtI1rWZ9G09WlmtdRdPN+yyfOyIyf7W5Pu/391d7qX7RWueA/DieHLSJrbU1/wCP7U0uk+75r7PK+R13f7X/AAL/AGq8KutHIs2l07zcyL8qOzb4m/v/AO789db4M8MabqvipE1lp5t67Ynu23/vU++n+1QB9IfsfpffE61/siXxBY+EpZJ2uFvngd9TumdNvyS/dVUiWH5vvbvuffdqyf2n/wBl27/Z/wDGX26zZrzwvqkv7iXc8rwXH3nid/8Avtt392ufms7zwHr1pq+kS+T5Uu7Ylfcfwh8YaB+0h8L7jwh4hi+0pcLtl+b54m2fI6N/sbdy/wDxFQB+f82nxeJNEe2l/wCeX2eWV/4V/gf/AICyp/wHfWV8JfE994V8W2lyqtDqujT7tn3PuP8AcevVfiX8MdT+FfjLUNDvIv3tlKq79uxLpf4JU/2X/wDQt615F8Qng8H6vFq+2R4biL/ll/HKn/xat96rCR94ftaeDNM/aB/Zz0zx/pW2bXfDkW26RF3vLa/x/c/ufe/77r8xLyFkldW+8rV7X8N/iFr/AIqvHsdT8cReCfDXlbZ7eXU5bdJVf+/FErtL8qf7Nd7N+y14SS1livvGes2eprLEkX+g291FdRP8yXEWy4+aJl/iatI1OSJHLznyP5dPr0r4r/BbVfhiySz3MepaZKyrFfRReU+597fOnz7fuv8Ax15+lhK7J8rV0xqRMeUq0V2Xh74V+J/FUqLpWi3dzv8A44levY/B/wCwf8QvEio9zbRabE//AD2b56XOacp81UeXX3x4Y/4JuRbUfV9X3v8A3Ilr0rRf+CfvgywT97HJc/79R7Qr2cj8vfJb+61G1q/WX/hhvwF5WxtMrkvEP/BO7wnqSO9m09m/8Oyo9sHs5H5j0V9y+J/+CcuoWe99M1Vn/uo615J4o/Yt8deHt+yzW5X/AGKuNWJHsj53oru9b+D/AIt0Fn+16HOm3+NFrl7nR7uzbbPbSwt/trV85HIZlFWHhZf4ab5dWMZRT/Lo8ln+6jUwGUVdh0e+ufuQNWxZ+ANXvP8AlgyVnzi5TmqK9IsPgzqNz/rK6XTfgan3paOcvlPFdm6rENhNN92Bnr6N034P6fbfeiV66Oz8B6fZ/cgX/vmo5i+U+ZLPwbqd5922auj034Ranc/eXZX0bbaDbW/3Ylq8lmqfdVaOYPZHhlh8Df8AnrXS6b8GbG2bc8W+vUEhp6Q0cxfKzkbP4daZbf8ALJa1rbw3Y233YK3fJp/k0cxpymfDp8SfciWrCQ/7NXUhp/k0cwcpRSFqf5NW/Jo8mo5iuUr+TR5NWvJo8ujmEV/Jp/k1L5dHl1PMBF5NHk1LJRTAi8un+XQ6UR0AEdS7lplRUAP8uh0p1FADUSneZT6Z5dQAeZR5dHl0/wAurAZ5NN8upfLoqAIvJo8mneZR5lADaKd8tGxXoAioqXyaHhqwIqfR5NO8uoA/Oqn+ZTKK9A8wfR5dEdOoAKKKKAH0Uyn0AMop9MoAKKKfQAyOn0UUGQV3fwi1L7Nrb2zt8lxF/wCPJXCVp+G7/wDs3XLKd/uxSrurSHxAfRb/AHKqTJVjfviR6hmr0QKSfuZUZP4a9L028+2WcUv95d1eculdd4Sud9k8X/PJqIkG/N92si/T5K1Zn+Ssy8+5XSZSOV1X5N9cjf36w/79bfi3WIrNHTd89eSeIvE7w70i+eX/ANArgrVuU2pUzT8Q+NotEt/3su92+6iV5frGsXmvXVvPcyf6O33U/gSsrVZp7m9ladmd/wDarR0WP7fYXFr8vmR/vUrxZS55HeXJtN2RI+2ut8H3P3Kx7D/T9LT++nytRolz9gv9u6uvERjyxlEypy+zI/UP/gnRrCfbdVtty/OqtT/+Cmrq8Xg9fl/1sv8A6GleP/sE+OYNH+ILxTt+6kir0L/goRqv9v3HhJkVti3Xlfd3/wAaf/F14PL+8OuJ89/taabGvwy0+bb/AA7f/HN1fEUMLTTLEnzuzbVr7w/aC03UvHOg2mg6NaPf3jKqm3h/g+T77f3V+581UfgT+wPeXF1b6h4oaS5uPvf2dY/w/wC9L/8AE/8AfVdtKhOfwkSmcJ8E9B1Pyre0hikmf5duxa+oL/4Y6z4t0ey0iJvs1krbpZXX52b/AGE//Zr6I8B/s96Z4etVi8iCwt12/wCj267Ef/f/AIm/4FXqWm6JpWiRbILZd6/xv89evSwUvtHDUxtOB8teB/2PLFHSW8tpbl/7922xP++Er23w38B9G0SNFWCNET+BFRa9GfVVT5V21Um1j/ar0o4SJ58swl9kis/B+lWCoqRLVh7Cxh/5ZL/3xWZc62qfxVlXPiSJP+Wta+wgZe3qzNqZLZd/yr/3zWbNc2yfwrXP3niqL+BqxJvEm9vlauTE8kInfQ9p9o7B7yL+6tM+3qtcV/bG7+KnprH+1XgyievzM2tV8W30d+lpp9j521v3ss33K3obzcvzffrjE1X/AGqsJqv+1WMoAdml4tSpcpXJJqVSpqX+1UeyNOY61Joqf+6f+7XNJqVWE1Kr9gHMbr6bZ3KfvYI3/wCA1n3ngbQ7+J1n0y2dH+98tRQ6lVpNSrT6sL2hjzfC7Q3bctsyf7jPVf8A4VdaJ/qLmdP9/wCeuoTUlqZNSWj6sHtDh5vhbKl1b3KXyv5W75Nv3qup4PuUX78b/wDAq677fHTkvIqz+rh7Q5pNBnX76/J/sVdjs5U/hatv7Sv95aPOX+/UewL5jK8lv7tJ5L1s70/vUb1/2aPYBzHM63C1zZ+Rt/1vy70rM1tbmay0+BbZnRfKmldP4Njo1dx+7ps3kOrr8v3aPZyL5jhLybUbmWJorb+Hav8Af3b63bPzXiTzVVHVfmSryWf/AD1lV9jbvu7P+AVa2RJ/CtHKM52ztvtP2uWdV8qVlb51+fbUOjwzwrKtz99m85t6/OvyV1HkxOmzatPSztk+8q1HKBxT2E76u8/7x4tv3Nv3P8/JXyP+3OniXxJHo+gaRoeqX9uu66nltLOV0/uom9E2/wB9q++IbO2dd6qvzf3Kl+w233qI+5LmM5e+fhu/wu8W/wDQq63/AOAMv/xNVJvhv4lh/wBb4a1RP9+zl/8Aia/dP7HB/sv/AMBpv9m23/PJf++a6fbEezPwem8H6vbf63SLuH/fglSs99NlT70Wx/8Abr98H0Gxm+9bRP8A8BSqtz4D0C/+S50q0m/34Ep/WSPYH4KfZfej7M392v3I1X9nv4c62u2+8GaJc/79jFXBeIf2D/g14hR/+KVWwl/562N5LF/45v20fWYh7A/HF4WqLya/TDx5/wAExPCdzbyv4c8T6lpUrfdTUVS4i/8AHNjV8ZfHj9mzxf8AATXksdftN8V037jULf57a6VP7jbPvJ/drWNWMzGUeU8Z8um1YdPkqGSukyG06m06gB8dFEddB4M8F6v451m30rQ9PbUr2f7kUX31/wBtv7tAGIibq0bHRLnUrhLW2gkmuG+VYkV3dv8AgFfd/wAFv+Celii29941vJb+VlVv7OtGeKL/AHHf7zf8B219m/D34J+Hvh/YfZ9B0HT9Ei/ie3gVHb/ff77f8CraNOUjOUoxPyg8JfshfFLxgqNaeENQtom+bzdRVLL/ANGvur13wx/wTZ8d6lsbU9X0bTUb+BGluJV/74VF/wDH6/UOz0GCH73z1oJZwQr93/vur9ic0sXGB8E+GP8AgmJoEOz+2fFGpXj/AMSWlqtv/wDF17H4S/YD+F2g7Gl8Pz6rKv8AHqF07/8Ajm+vpX7TFCny7UqKbVVT+KrjQOaWN/lOU8K/Bfwh4MhRNI8PaXpW3/n0tVR/++q61LOzsP8AVRL/AN81m3Ot/wBx6x9Q8Q+T8i/O7fdSuuNA4ZYmUzoL/W7bTYnd9qVifaZ9YbzZ9yW/8MX97/frPtrZppfPu/nf+FP4Fry/9or45Wfwo8F3c6Tql68TbX3f6r/bp1YxpRNqEfaSOH/a9/bGg+Dmnf2N4eaK511m2tL99IP/ALKvz9v/AIhaz4wluNVuZ43u7hvNutm/zdz/AO3VfwNoeuftJfFeV5YpLl2bc3+wu/5E3/5/j/3a+gv2n/gD4O+D/hLw/pVj9rufGuo7VitLd3RF/wCmrp/Fvbftry405VY8x6/tKeHl7P7R8u+M9Si1KKKCzl3usrQyu/3Fi2I3/oW+sn/hZFp4eT7DZq14i/xp8iNXpfg/4IeM7y3ddR8HXesW7LuVHs5U+b+/5vyN/wChV0uj/sf61dN5v/CvNS3t/wA/F4yJRGlifsxKlVofakeC/wDC0dXvG/0a1WH+7s+etjRLDxj4nldF+1/N97yV2JX1b4b/AGRfGcKI9j4HtNN/23VJX/8AH2r0XSv2PfG+q7F1e8trCL+4kv8A7IlVHC4mfxGUsbhaX2j4nf4aXNn/AMhXVbSzb+KHz3ll/wC+Iqtoi6PavbWOoSvEy7f3sGx/++9u7/x+vtL4kfBH4efs/wDh2K58RXMviHX79ttjpNv/AKOrf3pZW+9tSuSsIfAGpfDfUPEer30dg9ukvlaNo2y389tnyb/4mXdv+9/31W31Gpy8xP16nL4T5t+HXgPXNe1m4l0XSrmaK3X5U/giX73zu/3a5fxx8VNV02aXToo/Lu4vlbY3yf8AAK+wP2VPiL4O8GfDTULnUGgm1C6lluG/3f4Er5s0e88OeKvFtxqGr6fvt/vNsX52Z3f/ANl2VEsu92PvfEKOPlKUo8vwnhuleNtZ0df3B+T+HfXRWfxp1S2/19sr/wDAq+sLDwT8B9biT7dBPYN/fSL/AOzqWb9mP4Fa3/yDvGf2N/8Ap4geollk/wCYccwj9pM+ZbD4/Z2fabadP+uT7q3bD466feP888kP+xKtey3P7DfhK8819J8X6beIq7k3y7N3/fdei/Bf/gnl4V1Qvda1r1nZu33P36O6f+PVH9nTj8Rf9o0v5j54bx5p0y73WD/xyuf8RfEWVIEl06dkiVvm2fPX2b4T/Z28NeJvine6RotzbXPh/SYGl1PXJok3LEv9z+H73+99x6+TPjB8LrRL+91PRVa58PpeS28GyLY7L8mx9if8A/8AH65qmHlh5e8dkcTGr8JzXgf4hSrqHlR3Oy1uluPn8pFbdKm50b/gVepzfE5pvGGharc+brCaXqP2rY6/eWJ02I//AH0//fFV/gt+xr4h+Klhdz2MFtDFDA0zS6gzxRI3/oW7/gFWvHn7Knjb4VwfaLzT5dV8PxL5zX2g3yXXlf7fyfMq/wC8i1ymp23jn9qvU/FV5d218sU2iXE7TbHg+fc/lRJv/wBnav8A45X37oPw6+E3x+8A6ZPd+F9E1u3+yqv2jyk+0xf8D+8tfkJ8KPDFpf8AxI0S2ubxrnT2niR5XXytu9/nR/m/gX5vv1+sfw303Q/BlrF/ZGmQWbXUX2eK+0z53llf5URN/wB7f/eaueobRPB/jZ/wTisfD1re+IfAV1Pc27bfN0S4be+3/pk//wAV/wB9V8VeJPB9z4euklZZPsksqtvdPv8Az/K6PX7JaJ4/g1jS7iK5iZIoYmmXzdmyVf8Ab/h/2q4K/wD2afD3xC+Eej6LqNnHbXcdqzRXCRfPEz/vX/8AHmeojIR+b/hK/wD7YtXivPndfu/3Gqx4M8Yah8L/ABlaXdnLImntL82xtn+f96j4l/DPV/hH4tu9I1KLyXil/g+5Kv8AfSsy8eDVdOdpfn3L83/xddJJ9sfFGbRfjx8J4vFFr5f9saXEy+VF9+ddm54k/vN/F/vfL/HX53+P7y81jVP7M1XbpumXH7mz3/Jtl/vtv/36+lv2SPiFfeGPEvnsyukTLa+bd/PFBE/zP8n8Urbf8/fr0L9p/wCDmlPqL+MfC9i15bzytum8pPluJflfYj/3t7r9z/W1EfcA/Oqw8JSw3kqfZpNSuFla3vInV/3DM/8Ard/+0u/71foh8GfgPfPpHheLz7a/t7ixb7LqdvLvifZK7eU7/wDPVd3/AI5/sV8hf8IDp9z48WDVXuX81v8ARfs7Im24+6+/f8v+1/srvr6K/Z++LsXwx8W2/hjU5VTT5brbLLE2+JJf4JUf7y71+9/9htpyjLl90In0Nr37Hmn+OdLex8Q6vLNaSvAzJaLsdfK3t9//AG99dR4M/ZC+GXgnZLB4cjvJV/5a3f7169ytry11K1iu7Nle3l+ZXqx5dZxkbcpzum+D9M02LbY6fbWaL91EiStBNK2/eb/vitDa1MeaKH78q/8AA2pmhElhFs+7/wB91L5NMmmZ/wC86P8AwJT0h/vs1IsNq1E393a1WE2p8u1qPO/2dlSBU8lm+/Fs/wB+ornSo7n5WiX/AL5q09z/AHVZ/wDcpv7+Zd3yw/8Aj9UBzOpeAdK1Jds9tG/++tef+JP2cvBOvb1udIgd2/uLXsbwr8m9t/8AwKq736+VugVXpkHyf4h/YP8AB2sb2gtpbbd/crzLxD/wTxgTe+n3jf7jrX3lNDeXLJslWGH+Levz0f2U+35pWdqrnkZ8sT81b/8AYk1fR9++za5Rf7lUf+FAtojv9p0qVHX++tfpx9gg2fNt3/7dZV/o+mXn3rZZv73y1ftJB7OJ+c9t4Js9P+X7Gqf8BrQh0qCH7sSpX3RqXwl0XVfvWMXzVx+q/s16Veb/ACF8mtOYOU+T0hVf4aft/wBivetV/ZjvId7W1zvrktS+BXiGwZ9sHnJRzBynmVO8uuov/h7rWnu/m6fL/wAArKfS57b/AFkDJ/vrUiM/yaf5NWktamSGrAqJDUvk1Y8mjy6DUi8mjy6seTR5dAESJTvLqaioAh8ujy6mo8ugyIaKf5dHl1YDPLp/l0eXRUAMdKbVioWT56sA8uopKl+am+XUAV6ds3U/y6eiUAQ+XRv21Y8umvDQA3zkpPlan+TR9l96AIXem+dUv2X3qbyUoArI9P8AMqz5KVC6UAQ+ZR8tTeSlMez30AN2b/uUm1qEh8mj7V7UAFD7qfv/ANmn/eoAh3NTfMqx5dM+y+9BqfnPRRRXoHjj6KZT/MoAZT6ZT6kA8yiiiqAdRTfMooAd5lFNooAdR5lNooAl8ymf7dFFMD6G8H6quq+HrR/40VVb/wBCrYdK88+F2pf8StF/55bl/wC+H3f+zV6H99Plr0Yy90yK7pWl4bm8m/2f3lrPkqawm8m9il3fxVoB3Dv8lcj4q8QxabA6I3z1ralqq2dk7f7NeL+Kte+2X/leb88v3azrVOWI4xMTxPr0t5K+xv8AgdcZcpXR3MP+zWPeQ15UjqOS1VNkqPt+WqtnO2n3iSf3G+atrVrNvKrBZd/+/XHL4ijrraZLPUvk+e3ul3fJ/eqW/RfNSVf91v8AZrFs7y4sLV7aaJfm+Zd6/Otdl4D8N23iHW9uvXkltZW6tcXWz77L/v1205c8fZmMo+9zHVfC7UvE81+i+FbG5vNQi/5bW/3Iv996+q/AvwQ8T+P9UtL7xjrV9rF7u837O87vFF/uJ8n/ALL9yvKvh34z1fxVf6b4Q8F2cfh6ylZVb7PF+927/v7/AP2b71fon8N/BkHgDwzaafuZ5du6V3+d2b+N3f8AvV6mGwUZ+8cGJxcqRR8B/BPRvDFurzxK7/e2f/F16XC9tp8XlRRRon9xFrEvNbW2X7ypXBeJPidaab8vn73r2I0IQPF9vUqnqFzryp/FWJf+KoIfvy14FrHxjlm3rBXJah48u7x/nnasZVqcDpp4WU/iPoi/+JFnbf8ALRa5y/8AitFu/dNXgT627t80tH9sf7VcFTGy+yejHCRiet3nxFnm/irOm8YTzf8ALWvN01j/AGqmTVa4ZV5TOyNOMDvU15n/AIqlTWP9quFTVf8AaqVNY/2q45c0zpO9TVf9qrCar/tVwSax/tVYTWP9qoLO7TVf9qrEOq/7VcImsf7VSprf+1QHMehw6r/tVbh1j/arzyHW/wDbqwmvJ/foDmPRYdV/2qvQ6kn96vN4fEP+1VpPEn+1VRDmPS4dSq2l/XmMPirZ/FV6Hxb/ALVb8yIPSEv6cl/Xn8PjBf4qtp4wi/vVrzRI5TuPt1SpeVxSeKoP71WE8TwP/FR7hPvHYfbKf9srkU8Qxf3qemvRf3qr3A986v7X/tU77X/tVyv9vR/3qY+vJ/fp8sBc0jq/t3+1TP7S/wBquSfW0/v0f21/tVxykdMTrU1L/aqVL+uPTWP9qpk1hf71ckjoOyS/rF8Z6fq/iHTnsdKvra2t523S/aF+dfk+4ny7W/4FWemsf7VWodV31gAeCfBLeFWR21FpvlXdsb71dsl1XLw3/wDtVdhv6AOgSZasJN/tVw6eOdI+1PbLfQPKr7G2N9ytuHVYpo0eKVXRv40qB8x0STf7VWEfdWLDc76Z4q8YWPw90Z9RvnV7jb8sTt93/basZGh0d5JbaVa/adQuVs4v9uvPNb+N+gaa7rbRNc7f43b/ANkr4/8Ajl+17plteytqeoNNcfw2lv8AO/8A3x/DXzV4h/bPuZpnTTNI+T/nrcS0csjPmP0i1L9oS5d/9EtoIf8Ab21518YPGFn8afh9qHhrxIsCeb81ndv/AMu8v8D/AOf4Xevz8tv2qPGOragkEFnG/mttWKJd7t/wCvVrb4kajoOg/wBq+JZfscv/ACy05G/et/wD+GrjTJ5j5n1uwfTdRuLaVdjxSsrJu+4yP9ysyStjXr+fVdUu7u5+e4upWuJf953plh4e1HVVdrazkeJfvSv8iJ/vO/yrXrwOKRj0V2elfDu71K9SLzVm3NtZ7dvkVv7jy/d/753V1qaD4M8Bt5Gp20/ifXf4dMt5dkUX/XV0+9/47W8YymYylynmWh6Pc63qlvp9pA1ze3DLDFFEu92Z/wCCv1Q/ZL+AOn/CvwlaM0Edzrt/t8+V/n81vvbP91f/AB7738aV4V8Afhj/AGl4w0+fXtK0vwrexWzahFp1jBseyt9n/HxcP97c67FVW+b5/N+TYm/7a8ParbaDapcyp5Lyrtgif78Vv/An+f8A2SumjRlORzVq0YRPS7Czg0+FP7/9+rEmpRL/ABV5fefEiDZ/rax7n4ixf89a9iOEPCnUnM9bm8Qon8dUX8Q7/uNXkv8Awniv/FQnjNXk+9W0aMYke+emza9/t1UfWGf7lcB/wki3LIu6te21JfK+fdVcsCOSZsalqsVhE8txKqRf33/vU+w2w/v5W85v79ZSXn8TVL9sT7tHKBL408bW3hLRJb65b/rkn95q/KD9rr40XnjrxQ+ntc74g3nSpu/74T/2b/vj+7X1L+1F8XYnivfKn/0KwVlV933m/jf/ANl/4HX5r3OpS694jluZ23vcS7mr5rG1uafLE+mwdH2UeY+2P2MPFmn/AAjkstQvrXzv3EupXj/e2qifI/8A315VbHgD9ojSNS+NGq/ErxjZtql7ErRaZbyt8kDN8u//AIAvy/8AA3r5fv8AxbeaUuqrBK3lSxfYm2f3f4K0NHsZU023WdWR1X5q64YqnSjGPKc9TBSrylKR97zft/aKjfutIj/4BWZf/wDBQqBP+PbT6+K/7KV/4mo/suD/AC1bf2lD+U4/7Fh/MfV+pf8ABQe/bf5Vj/49XG6x+3b4nvN/kRLD/wACrwL+zYv4F+Snf2fEnzUf2q/sxNv7Golj4hfFHxD8TvEb6hqcs9zKsSxRbP8AllElcLf3l9bWUqs0iRLF82+u3s4VSVNv7lG++6fJUGpeHor/AO5uvIvu/P8A3a8qtjZVJcx6lPDQpR5YnKeFb+5h8PvFF5n+qaHYn96ut8JeEmhs/wDSdySt8zJWPpXhiLwxdPPc3Muz70W+uwttS+0xebbNvlrjliJnXGlEvJ4bbZ8s/wD47UP/AAjdyi/LLvqlbeIdch3/AGvQ2mRP47Rt9bFh42tH2efBc2b/AMX2iJkqY4qcB+ygZ/8AZWp2zbopZ0/3Gertn4n8R6OybNQuUi3fNveujs9e0y/T91cxv/21rj/ivf8A9laQksDNs27vkrrp42rGXumNTDU5fFE9lh+KM/hL9ne403T7nZrvjK+a3lfd86WsXy7/APx5/wDvt/7lef8AhK/g1LWNHs9y+VYRedPv/hVPv7v+A72rxq516e1uLSdpZbzT4llt4k8354l3pv8AkRty/fr0D4P+LfDmieK9Qi15VubK6g+xb4ZUl8pX2b33/wC7v+b+HfUYrE+1lzE4ejGkfbHw6/ag8Nalby+F59Mj0rTIm+y/aLfY6bd/7p3TZ/s/7St87fJXi/7Y3wZbw9FD448MSXdnd36/Naafv8qe3l/jT+7u/u/e+f8AgryzQ/Ad3rF/Lqeh65Fcy+VEstpK3yXC/J/qn2/Ls+7/ALWyvub4D+M4vh14VtNI1WCO/eXdLePcfP5sr7N//AflSvNl7p18vMflpoNnrXhuWLzraeGWVvmeWV/u/wDstfQvw3+NPiHwfb+bpWoXafK37qVvNTzdj7Nv91t33f8Acr7z8T/s8fCL402sstmsXh7U5f47fbs3f7n/AMTtr568W/sGeJvh7qMWs+Hv+J9aW8v/AC6fOzL/AHHi+9/6F9+o5oBys9q/Z+8VeI/jZf3s+p239m6ZEqtPDtT5v9hNn/AP93ZX09DeSp9yJt6rXz58IvjZ4QsNItPD2uadJ4M1i3iVf7ibv7m/+H/gVSftD/tYaN8D9DFwt4+vTXDP9jtLdVRrrb9/5v4YvmT5/wCLelZGpc/bA+EuleNvh5ca5dy6fYXGnQedFfXF0kUTr97Zvf8A8dr8urbVv9KlsYJfOdfmid1+8tezeNtZ1P42abZeP/jr43n8PeD7qVl0fwzo217mf+/si/5Zbfu+bL/8RXzj4/8AE/hzVfEFlF4Q8KyeGIotqb77UXuHlX+B5X2Iqf8AAUrrjHlMjuNN16Xw9qiXMt40Mqr/AANsf+8j76+wPgt8QtM+M3h+30DxDc6g8U0EthFb267LSwZ9/lO/zfM25Ebd/DsSvz/8N+JoNbt5dK1eJba7ddsF3L96L5HZ0ruvCXxvi+FGny2mmLPc6xL95H+5u/8Aif8AZaiUQPTviWlzoOpPq95bLc/YLz+z9Yt4l+d9j7d6f3NkqP8A9/Yq80+Mfj7QY7rQn0FWs7j/AJaxJ/Ar7Pvv/F/n5a6izvLzVfBt619c/uriCe3uvl2fapX3y2+z+L733mb+FIv7lfJum2d9qWqSwQebNcK3zfx0EH62/sK/tEL4q0uLwhqs7PKsS+Rdy/J5rbP4/wCFN6pt2f8ATJ6+xd86SvF5So6/7X3q/Iz9nWFvB91o7L/x8RSqyvCvz+b/AH/+AfPX6keFfiRovi2wle21e2mu7Lat5aRN+9gZ0+Ten3lrGRvE6vY00W2WX5/9ihLaJPursrHtvEkF/cbbFWuV+69x/An/AMV/wGnul3c74p5VRP4nt22f98UGxpfaYo/lZlR6qzarL/ywtpJv9v7n/odUVsPOZ3f5Hi+Vbh4vn/77epnvIIXRHnaaVvl2f3qALHnTvcfPIuz+5Evz1X86L50l+5/z8XDfxUJ9pdHVYls0/h/jenfZo/Nfzd1y7fe30AC3+zfFBFO7/d3v9ym+TcvP5sty0P8A0xi+5UqXOzYjMuz/ANBo+2b5dkSt/v7fkoLLHk+dFtZfk/vuv36P3UPy7lrMeG5mfdJc/Zvm+5F9x6fN9mtvlVZbmVm/vfxUASzX7/IsEHnM9NhhvLlX+0yrC+7/AJY0n2m+mT5YFhVv7/31qZ7ZXV0nfej/APAKAK6W1nDv+be/3m+anw38Uz7YoJf++alhtoIWd1iXe38e2pasgikSV/7qUz7O7x7JWZ6me5gh+9IqVC9y3/LKCV0b+P7lADfsESN8y06a2if5dq0/ZK+zcy7P7lRfY1dn3Mzo/wDBu+SgCjc6VaTfNPt/4HWPfeCdGv8AfusVd/8Adrq3kghX+H5f79MS53ojr86N/GlAHmV/8END1LftsWh/4FXL6l+zfbP/AMe08if7Fe4TPsf97Oqf3d9RJcxTbNjSzf7e35Go5gPmm/8A2e9Ttt/kS7/+A1zV/wDCPX7Df/o2/wD3K+vUhl/urs/8fo8lX+8kVXzMD4lvPB+q2f8ArbGVKz5rCeH78Eif7619wTaPZ3PyvAu+sy88DaZeK6vZxf8AfNHMwPizy6b5dfXF58H9GvP+XOOsS8/Z+0ab7qsn+41HMwPmTy6K9+vP2con3/ZruRP99a5y/wD2eNVh3+VOr/8AAaOZgeRUyu9v/g/r1h/yw3/7lYVz4M1ez/1tjJVAc/5lM8ytCawnh/1kDJ/wGq/k0AReZRT/ACaY6UAP8ymblqLa1MoAsfL/AH6fuWq/l0UAS7lo3LUVH8VADnmqL7Q1PeHetVvJb+9QBMkzU97qoUm2Ntdaf5yv/A1AB9s/2Kfv3UI60eclAA82ymec9P8A3X96n/K/3WWgCt5LO/zVMkMSU7a1FAD/AJai8ynI6PT/AC6AGeZTdzVYRKd5dSB+bVFFFekeOFMqamSUAFHmU/zKZQA+mUU+pAZT46KZVAPkooooAKKKKACnU2igD1L4UWyXOiarOvzy2s6zbE/u7K76wufvwM3+0r1k/s6/DrxH4tsPEGq6ZpTXOlWUW28u0fYits3fx/eqJ3bTbp7Vn+e3bcv+1/n/ANnr1I/womPN7x0rvUW/56ZDcrc26Sr/ABVE70hh4w1L/QEVG++u+vnrxDrEs2sxXay/8e7fuq9T+KOsf2VpKMr/ADyr5K/7NePOiTRIu3+HdXBW96RvE9GuUS5hSSL7jLuWsG5hrW8MXP2zwvZN/Gq+S3/AP/sdlV7yH5qXxRGYn9mtfs0Sf991X/s1dK3/AGaCTYv3rt1+f/7Gu40ewiS4t4nXZvb96/8AcWvpvwl8I/CGvaD/AGZYpFc6hdLt+3ff+b+5XTRwv1j4TlrYj6v8R82fB/wNYzL4g8Q6yv2lNLs/tEFu/wAyea/3Hf8Az/GleaaVeSzalKqs3lS/K2xv4fvV9F/GD4aL8K9I1vdqDX9xfxeSuxtn8e75q8f+C/hOXxV4rtLZV/1sq/8AAVT/AClZVKEqU40y6dWNWMqn2T7l/Yn+Fy+FfD8viO+iX+0L3/VPt+6tfUF54his4nlZvkrzXStQtvDGg29jBtRLeJYfkry/4i/FRnZ7aCWvrIxjh6R8zU5sRVOy+IXxg+Z7a2lrx+/8UT3ku5pa4q815ppXZ2qk+t/7VePWrymexQoxpHZf2rs/ipv9sf7VcO+t/wC1UP8Abyf364JHpHff2x/tUf2x7V5//b/+1+lM/wCEg/2qxlED0VNY/wBqpk1v/arzn/hIP9qnp4h/2qjlLPSE1v8A2qlTW/8AarzpPEP+1Uqa9/t1PKVznpCa3/tVMmt/7Vebpryf36lTXv8Abo5Q5z0hNb/2qsJrf+1Xm6a9/t1Kmvf7dLlGelprf+1Uqa3/ALVebpr3+3VhNeT+/UcpXMj0ZNb/ANqrCa3/ALVebpr3+3VhNb/2qOUOY9FTW/8Aa/8AHqlTW/8AarzpNb/2qlTW/wDao5Q5j0ZNb/2qlTW/9qvPE1tP79TJrf8AtVHKHMehJrz/AN+rCa8/9+vOk1v/AGqlTW/9qjlDmPRk8Qv/AHqlTxC/96vOk1j/AGqlTWP9qmB6QniF/wC9UqeIX/vV5umsVMmt/wC1QB6Qmvf7dOTXv9uvOk1ztUqa3/tVnyl8x6Qmt/7VWE1v/arzpNb/ANqrCa2n9+o5S+ZnpcOsf7VaFtrH+1XmMOt/7dadtrH+1U8oczPULbVf9qtCa5+2WdxAsux5YmVX/u15vZ6xW7Z6x9z5qw5Sjl/DDWnhW1SC+gks9QiXbKjxP8zf30f+Ku48DXM8KXEjLIkUsu6KKX+BaP7SR66jwTpX9q3+6RtlvF80rv8AIirUSkWdXbXlt4Y0N9c1Bv3US7okf+Kvjr4r/Ej/AIWp40l0qfV5NKtPuy3Cf8sv9z/gOyrf7aX7UkHh+we205k2Rrsgt0/z/s1+b0PxR1C5vJZ7y5n3ytuZ0aojEXMffPhr/gm7b+OtHvdTGtR3MzRfaEeVvNeVm/3P9revzJXgWv8A7FdxaXExsrpb2Jfn2rKnyr/t7furWH4J/a3+JfhjS3sdA8aeTaSrta3u4klRl/ufOlNs/wBorxnC8vn6VpOpeb950V1/j3fwPT94k7P4f/s2+O9J1Lb4d09UuL1d2/yl3quz+F3+6u2mfEX4aWmg+KNQ0rxLPc/2nZOsMsUU8TorPs2bX/iX5vmr1j9n/wDbwufD3i+W58Z+H5ZrK6ZVZ4YvN8pfk3v/AN8r/frwz42fHWf4qfFDW7u+tle1uJ/N0y4S12PaxRPF5X+8u2BP++61iTI5fVdY0jwrvlg0y0+VtsW+L7Q7N/c+f/2VFqpYJc+JLq3u/Edy00Sf6ix3fItc1rEMtzcaZq8ttFbJcbf3Sf8ALJvKRn+T/gW7/gdD695LvI33LdflSu+EjGR3vjzxTp3hvQYrbSNTkttYlX/VW9qmxVf+Bpd6Mv8AuqjVU8Ha9afCnS7PWxBbal4yvl3abFKu9bX/AKeJU/ib/nkv+zu215PbXn9pX8t9efPFF+9bf/E39yup+DkP/CT/ABLi1O+2vb2H+mypL9z5PuJ/31srf23vcsTnlT933j7t+GOlW3wl8F7tcuWvPFerSrquu3d22+V5fn2W7f8Aj+7/AGt/96rGsfGOfVbh5Wl+9/t/drwfWPHM2qz7pZ2mRWZl3/x7/wCP/wBArPTXn/v168a3LHlicXsef4j3V/H8s3/Lenw+MG/5614lD4h/2q0LbxD/ALVP28y/YRPbbbxO2/71dBYa9v8A4q8Ks/En+1XQab4q2fxUvbh7JHca34/bT9Ru03b5Y2aGBP8Avj5E/wB/fu/4HXknif8AarudBv3g09d9wrMvm+a/3v8Ac2113iGz07xsitLqDabdr/H9l+0RS/76b0bd9z7r1jaJ+zr4avNZ+3a/4q+2W/8Az72Nj5Tv/wBtZXfb/wB8V53s605+6bc9OMT6r8AeKpfFXhnTNTeLyXvYIrjZt/vpWJ8WviEvhvTZbSzl/wBNuF2/e+7WFrHxO0/w7pf2bSIFhSJfKi/2F+6lfPnjnxg32W71C8n/AL253/hr18RW9lS5TzqOG56vNI8S/aE8YJNPaaUrecjN9onTf95f4E/9Drx/XNOtLXxTjw8r3mngq9rzvZvk3HcP9n5vyqxquqz+MvEd3qDRM/mt5USJ/Dv+4le16V8Mba5g0+ztmV3t4vJl+Vv9b95//Hn/APHK+YjGVafuntSl7M8MtvEL2es289zBK8UTbmif79dr/wAJguq3DeRuR3/ub6+xda/Yf0zwf8LYvGPiO5ghllWL/R7iL53ZvuIj/wC7WV4M/Zg1PxbP5+i20E2n/wDLLyovk/77+7W8qNSMuUiOJpyjzRkfOWg+Htf1qNGgn2Stub7PNF8+2pYdK1X+0XsZ9qS/L5T/AD7H3198eG/2GZ/9brHiNrNP4oreLe6f8D+7XTf8MZ+B4brzZ59SvJY/mR7i5t4kZv8AvrdSjhqpjLHYb+Y/OF/D+r2zu88E7p/fhbfWVfu+nxO9zFcon+2r1+sml/sj+AI9Paee/t7Z1Xc268R9v/A3WvhP496Pfa3dXeneEllfR7qdbWxiT53v977Uf5F+b+Pb/wDYVn7GRtHE0p/CfPieLdFm3xRT/vVX5X+4j10Olar9gtX835HX7zvV340fsb+MfgVL4fsNX+zPqerWrXq2lvL5rwKn399dx4G/YM+K3xX8OJqelSWyafKvyvdy7N38P39tc/LI6YyifO/jbxVc6tcP5Uq7Pu/eT7tcfbaxqth/qL6eH/clruH+D+oprF1p6N50tvK0LPD86Ps/jX/vmt+2/Zy166/5c7l/+A1p7CpL7JHtInEaV8VPFmlf6rU5X/31311Fh+0V4shX9/FaXn8PzwV0Vt+yv4jm2bLOX/gdbdn+yL4hdEZrZk/4DV/U638pHt6f8xhaX8eJdevYra68HWOpXDfKv7re/wD4+tXdY8K33iy/Tz1j0SyuJdq2kXz+V/7Kq19B/AH9lGxh8B63r019bJrErS29m8sv3FTeruif7TfL/wAAroPiX8Af+FdeEvD9zqE7XOt6peLD9nh2bIrdE3Sun/fP/oH+3XXHBSjHmkc/1yE5csT5/wBH+D/w+TWbS21HWdSvN0u2VLdkidVd/wC+6VmfFT9m/Svh74quNPi8RslvFBFLFcPBv3K6bv8AY/ir0Cz8Hz3N/b6e9iqSt9lXzUi2eU0qea+90/6Zb/vf36/Qj4Y/BDwZr3h9NR1jw5pupXV7taV7hUd4vkT5N/3v4K82t7h3U/fPzC8B6LF4Sgiu9M8dWiXu/wCa0uLOVItv+/8AP81em6b8eLnbFFqe37Q38aMmx/8AgaV98eMP2MPhl4qtXWLQ4tKl/v2L7P8A0Ovmf4mf8E5dV0pbi58J3kGsJ/z6XDfZ5f8A4muaNSJ08pheGPjH9mdJYrzZt+7XtXgP9p/UbDZFLeedF/Dvr4a8W/Cvxj8NNQ8jVbG+010b/UvE7pVSz8W6ro8r+btdF/jhb/2RqOWMieY/Ta++KngD4ixW6+KtDsZtv/LXb88X+2j/AHl/4DXk9h8B/hl8bJfGd94cubu88OW6/ZbVLi63xWV677nuIt/zfutkX3n+be/+xXxz4w+KN9beGru2Z5Ybhl8n/gT113w6+Lup/Cv4R3GjaZLs1jVH+13Uu3Y8TP8Acd3/APHUq4xkZnpHwE+EXhz4nfCrWPBPiqWCFGZriz1Hanm6bLv+zoiPv+7uR9y/xbP9zZ88+Nv2PPip4D8W3GkW3hO78VWTM3kajp6vLbzxbP4HT7vy/wALV03h7Xp9H07+1dV8WS6J9n3Na2ljavcW11LFLtfYjt8u7+9/F/H/AB19QfBD9o1vtVxF58Fzp9rL9lb9/wCaiy7EZ/K/2f3rr/uon92iQcrPzv8AFXwl8X+DLqWx8QxLpVwsqwz2NwqPLFv/AHq/P/wP/wAfetjw34JtLPcj/PcNuWWX+Pb/AHP/AEOvu39of4OaB8XVTxR4cvlm8QSruubT/n6X72z5/wCL/wDZr5HsNE+zXjxXKslxE+3512O1EZmnKbegvBqv2jTNQb91e2v2WWXd/qmT5opf9nayp/wGuEvPh6vh7V7tYIm+0NKy31jE3zxbH2vLv+7t3On/AH3/ALleq6VpsSujbf8AZr3v4LfDfwB4/wBetLbxdBP9tul+z2sqTvFE7In+qfZ/Eyr8v/XL/co5g5T43174iaj8HNJt5ItMkudTvVZbPUZYP9Hi2ffeJ/usyf8A7e+vGvBnxg8W/D/xxF4z0nWLiLWFnZmuXff57cF0k/vK1ful42/Z78C+MPhf/wAK71fQ4E8K7W8qKJf3trI/3Jkf+Ft38X/fe/fX4x/tRfsw+JP2a/Gj6ZqR+3+H52ZtM1mJf3Vwn+1/dl/vLRGXOZyjyH6rfsw/tSeHf2hvA66raxNZ+JbOPOr6NC7PLFJ/z2T+Jlb+Gvboby7uURkgW2Rv+erfPt/4BX4B/Cj4peIPgt430vxZ4avmtdStDnb/AASp/HE4/iVvT/2av2k/Z5/aN8J/Hf4fxeJNIZra+XbDqenO2+WyuP8A2ZW/hb+L/vtamUTWMuY9Wmtonnfz5ZZt6/6rd8lWt/2ZUVYtkSr9/wDu1Ss9VXUpXiiXZ8v+t3fdb+5UX2adG8rUFgubf+/u+fd/ubKR0EqXku19sq3m5tqJF8qLViaCebb+/a2T+4n32/4HT08qzi8i2i37f7n3KY9u1zs85t6f3NtADJrm2sW83+P/AGF+9TftV9efLBbLZoy/fdv/AGSrttbRWa+VEuxKP9ygBiW29Ns7ed/wHZT4YYrP5IolRP8AYoR9n3mqJtViSTylVnf/AGFoAtPu21E7xou5mVKrul3Mn3ltv/H6f5MEOyRmX5f491WQCX/nPsiib/rq6/JRCksyt5/yfN8rpQl5FMrtBtmdf7jVUmvLt13QWLJL/wBNW2UAaCIqMm1V/wB+qk2sQW1x5U8qo/8ACm356q/2VLcv/pl9PN/0xhbYlaCJFbNuVfn/AL9BYx7mfdtigZ0/v7kp+xnl/wBauyn79/8AuU75qCCultE83+q/4Htpk1tO7/NeLDF/0xX56bc6lZwvtedXl/55I296hS8u7xE8iD7N/t3FAFj+zbbzXd4ld3/j21NNcwJF/rd+372yqj23zI95cyTOn9xtiUQ3i7k+yWf7pv8Alr9z/vuoLLENz9pd/Ktm/wB+ZPkamfvUbZ+4tv8AY+/vps0N3tRmljuf7yJ8n/fFOhhtrZ0dVleX++//AMXVgCXMty/yq23+/wD3aV7CJNzTzs7/AO9Vp97t9/5KZ9m+X5fk/wBuoIIkmif5Fgld1X+NdlMSa6d1XyFRG+9vl+7Vh7aJ/vbv++tlRTXlsnyNKvy/L87UAPdHf5vv/wCxTEs3Rfml3/8AAKIbh7n5IoGhdP45fuUy6RXff+8f/plE2xKAHvbK/wB5f++6r3OlWz/eg3/8Bp6W0s0SfL5KfwfNvdaNiwonn3O91b77tsemBz9z4Y0W/Z0e2V5f4k/jrBv/AIReHtV/5c2R67v7fE7bYoGf/bRaY95dv8nkMibtvyfPtoA8i1L9njT5t7W07Q/7Fcfqv7PGsQ7/ALMyzJX0XN5/mom6CH+6/wB/dQkN07Onm/P/ALtVzAfI+q/C7XtK3+bZs6f7Fc5c6Jc23yywSJ/vrX2xNbKi/v7n/vv7lZ95oOnX6Pvgjm/vfLV8zA+KnhZaY8LV9V6l8OvC9421rNUdv+AVzOpfATTLxXa0uWSjmYHzv5NHk169qvwE1FF/0S5WauUv/hd4j03fvsWdP76VpzAcY/y01ErVvNEvrNv39tKn/AapOjp/BsqQIvJSoXTY1P8AmWmPuoAfv3/dSqM3m/f8qrDu6fws9G5v7rUAVftj7fmioeaPZ/ElWLm5WFfnWmedBNFv+XZQAyGb+41Tfafk+7We81t9xfkpybfvpOyJQBoJeRfx/JT/ALSv8FZTv83zbXpn30+Rf++GoA2ftkX95qcl4v8AerHTd/elT/fo+2bPvR7/APgNAH58+ZT6ip3mV6B44+imeZRQA+n0yOigB6JRQj0UAFMp9MoAKKPMooAPMoplPoAfR/DTKfQB7r8Af2h/Efwr8O+I9A0i5gTT9c/18MsG/a2zbvR/738NY/ifVXtnivF+d0b5v92uK+Hujy694h/syCVYZbpdqu/3N2zcn/oNWviReXOiapFpF8vk3Fq26fyn3pu2V2e0/dGEY+8dtomsbJX+bfaS7X37v7/3H/z/AHP9uug3/fryzw9qcqWtxafN5truh3v8/wAr/c/8ero01uXakFjtd3X+Nt+3/bf/AGVbeqU41PdNuU2PEmgweJLF7af/AHl+bY615jq3gaKwuH265Yon9yX5HX/vjfXodzptikUX9r30t4m3dLv+RE/4AmysF9Y8OR/Jp/hye8/292z/ANA31nUjGXvSCMjM8F28Vvp91aJdrdssol/dK2xVb/eq5c7IX3N/DUL69El+m7TJdNil2xeb9qeWJt/+X/74o1L/AI9X3fwLWUfhNDb8Hw6Nf6p/xUE9zDaMrfPaNsfc6Ps+f+7u+/WJr3iTUfhv4w1D/hHNanubKCXbBd7vneL+DelRWd551ukSNsl2/Km6uaudEnmvEligZ4m+8j/c/wBuodWUfgFyc/xHS+Ofivd+P9JT7Xu+0J/r3/vtXqv7JGjxWD3us3P8P3X/ANr/ADv/AO+6+ddStls/9Gil87978zp9xq+jfhvqS+HvAcUSffl3M1deGnKrW9pUOepGMKfLE9V8Z/FFnleCJv8AZ/3a8tv/ABC1yzs7Vz+saqzyvuasG51X5tu6u+pW5pHLTp8h002sf7VZ82t7P4q599S3/wAdVHut9cfMdXKbs2vP/eqq+tv/AHqyd+6m+XUcxfKa39uP/eo/tx6yaciVPMVymp/bj1Imty1mpDUvk0cwcppprb/3ql/t6WsdLWpUtmrPmYcprJ4hepU8SPWP9jaj7G1HMM6BPE3+1VhPE3+1XNfYGo+xyUFnWp4m/wBqrCeJ0/vVxX2OSjyZ0/vUAd6nib/aq2niRP71eb/v0/vVKlzOn96gD0tPEP8AtVKniH/arzdNSlSrcOpM9QB6EniH/aqwniT/AGq4LzndaqTalLDRygenJ4hT+9VhPEP+1Xkn/CQypUqeJ2Sr5WLnPW015P79WE17/bryRPFS1Yh8Tr/eqOUOc9YTXv8AbqZNe/268sTxIn96raeJP9qjlND1BNb/ANqpU17/AG68yTxCn96rCa9/t1HKLnPTU1v/AGqtw63/ALdeXpr3+3VqHXv9ujlL5j1OHW62LPWP9qvIrbXvn+/W1Ya9v/irGUQPXrPVa6Cz1X+7XlOm6xv2fNXUabqX3PmrnkbHp2lTPeSpEnz7mq78cvipafCL4eS2Kzxpeyxbrqb+78m7Z/n/AHf46xNH1uDwlpcus3LL+6/1SP8AxNXwL+0z8Y7z4keKrjTGlkfTIm/fv/z1ZP8A4iuUo8w8cax4j+NPjC7ubGzu9SXLNFFEu99n96qlv+z78TLyPzbX4f8AiS8T+9baTcS/+gpWZYKml3aT2l3e2FxE+5ZYm+dWr6F+Hv7cnxf+HVmlpaeOp7+0Xbti1nTor1/++3+b/wAfqzI+eNU+FvjXQC76j4S1ux2fea506WLb/wB9LWPBqWpWMnytLuX+8u6vv/R/+Cr3xPs9i32n+F9VRf8Anrp1xEzf98S1u3P/AAU7tvE67fFHwk8Ha9uX5nl3f+1YnoA/Puw8WXy7vNtt/wAu7em9P/Qav+J/GD65p9pZRWywxIvzeVvXzf8Afr7F8Q/tYfBbxbYan9p+APhawvZYm8q40668ra38D/JBXzV4P8Q2Om+JYnfQ7S83M257iJfKZfKdfufc+Tdu3f7FXysDHttE1nVYLfzba7SyaBmtbvyn8ptn8G//AGNj/wDfFc/qtnPYebBO371G+atWw+KniPSvD76HZ6reppis3+iee/lf7fyf8Cesq8ee/sLeVvnTytrPt/8AQq05gMyZv3MNpF/rH/ey16N8Hbf7H4f1C8Vfnup/KX/dRP8A7KvLIfNmun+88tekfB+5861u7Rv+WTbl/wCB/wD7FVRlyy5i60Y/CehI7Uec9W0ho+y+9d/tTm9mRJeOlWIb+oXs6a9rR7UjlNKHWP8AarWttb/264/Yyfdp0OpRJK6LKrun3kR/u1fOw5T0az8Qt/erVh8SS7fvV5vZ6kr/AHGrTtr+umNQj2R1tzrbXLbd1eL/AB+8YeTpsWkQN81x8zV6H9s2K8rf3d1fNPj+/n8SeJr2dV3onyr/ALtcGJqG1OJofD24/sq8t7l1/wCPdWuv+BbP3T/99V634M8fy+G5Ul++6/Ku/wDgZ68T0TWoUjuIX3IXVdn+3/n569E0rTba5iiluWbYy7vkaow1b6v7xFSn7X3ZHpfxU/aQ8S/EW30+2u75prez3OsO7/Yrt/hr+2R4i8A+ENP0OKffb2q7Ik214RD4btofE1paO3+j3UW3e7fxfPsrsE+HWlIu3zJ0f+5ur0o5mubmkcMssjKn7M9qm/bk1643vJK3/fFZtz+2Nqtz/wA9N/8AupXk7/DTT/8An5nT/gVQ/wDCsbPZ8t3J/wADrr/tpo4/7BpnV+M/2k9Z8T6XLpyXMsKSsqt82zcu/wCevPE+Lsum6pbz6ZFJbXcUqrayo2zyv4U2f7u7dV6b4Ywfe8/eif3K4ez8E79ZuFiildIp/l3t9yvLxGYyxEuaR6mGwFPDx5Yo9Q+Ivxw8R/GDxlaeIdXvGmlsnW337tny7H+RP7v/ANnXYeGP2kPFnhvwhLo1jqt39nis2hWHz32f7+z/AIHXiN5oP9m38W2WXZLK3yO33VroIbnTNB+W51C03/e2O3z1x+2Oz2P2Te8AeJ9R8PalaanBYwXksMXlKlx86V6rD+0P4x2fuNK09P8AcgrzzRNe0/7Kjsvz/wDTL5krW/t62/gib/vmuynj6lKPLEyqYCnUlzSOqm+PHxGmXYrQQ/7kSVlal8TviRqUT7tanhT/AKZMif8AoFZj68z/ACeW1Urm/wBQud/kIqJ/t0SzGtL7REcuow6HH+Fb/VZtLuIkvp/3rN87yv8AumSV2+Sur8YeJ9T0f+ymS5ld/wDSG/1vz/c2/wDs1UbDw9Fps9us88iW/wA38P3d9bGq+CbbxVB5V3PK8X3Ve3b50rjlXqTOv6vA81+G/jCebxrbp9uvbmyurq4mleWd/wB7E7v/AOyqlfpl4M/aT8J63b26ahp62FxEqr9otP3T/wDfaV8K6V8E9O0SVLmzaeZ9u3zXbdXUW2g6lZ7GiVpk/v1wVPfNo+4fpB4b+IVpqWxtI8T215F/z76h9/8A77T/AOyrrYfEjOn+l6Y0P/TW3/0hP/HPm/8AHK/MzSvFWoaU/wDrWh2tXpvg/wDaN8Q+HnT/AExpol/gf565vZm3MfdNzp+h+M7J4J4rTUrRvlb7kqf8Dr5J/ao+APwm8H6TcanLrUHg/VZGbyLRF81J/wC/+6+8v+992utH7WnhKHQdQ1fxNBJZXdlbs0FxZN5VxLJ/DCjf7bfw/dr5avNH1rxJv+NPxNnbUtb1Zv8AindEuItiRW6bNl3/AMB+TYrJ82/d8++rjGREpHz7beG9Q8Sa8kSRLDFZKt0sN3+683eibNm/72/5GroPE95faPo22zi869aVWlhuF3p8n3Uf+9/u1a+LXw71q2guPHVjdyzfKraikUSIjfOi/wAH+0yL9ym6V4nns9BstZ1W2lv/AA/e/uV1aFfniZPldJU/9m/u/NXSYnm/h7wH4z8bXSQT/aUsk+75rPKkS/8ATKL+GvevA3hiXRLOKCJdlpbrti/vsz/fd6t+ErzRfGzOuh332/YvnNFEr70X++/92u1ttN+xp5SxbNtYykbRiWNE1W50e6inilZJV+66Vz/xC8PQX9xFrlsuy4b5b5P73+3W99nbf/FvoSwubnfEkTTI3y7EXfUl8pyOj6a23dtrrtJtry8t30yxna2u5P8AUXETbPKuEfdFLv8A9hlSvRfBn7PGv69FFPc7rC0b+OVfn/74r33wZ8HND8GbJYLaKa7Vv+Pi4+d/+AVXMg5TQ+EXifVfHnwv8P6z4h09rDU72x23VjcReUiN9132P/D8u7/ddKm+Jnwx8OfF3wNceEvEemQalpV6u2Xeux7dkT5JYn/hZP71dbZ2cUK/KrP8v8dFzqVnCrebLFvVl3J/HuqRn4hftVfsi+JP2ZfFXl3Bl1LwneO39nawifKy8/upf7ko/u/xVxXwI+N3iL4B/EC08TaHMdyALdWjt+6uoz95H+v97+Fua/cfxt4b0P4r+F9Q8OeIdAj1Lw/fxbZ0vvk2/wC2n8Ssv3lavyN/a9/Yp179m3VTq2n+drfgK4kIg1NYw7WueFiuNvRv9v7rf+O1rGRyyjyH6q/CH4oeGPjx8PtN8T6DLvspl8lrf/lray/x28v+1/8AF16AkMH/ADyXeq7d7r89fiN+yL+09qf7N/xAivnaS88K37JFq2nofvJ/z1T/AG1/8e+7X7WeFfEOleMPD+n65o15Hf6PfxLcWt3D9yVXqJG0ZcxpL9+nvu3fLVebVba23xNKvmr/AAVS+332pMixRNYROvzeav73/wAdoNzSmmis4vNnlVP9+s9NVlvG221s3lbv9c/yf+OU1dKjtmSXyJbyVf45W+9Vt5n3p+9XZ97Z/HQAj2CzN/pMrP8A7H3Ke9zFbRbEX5F+86LVRJvtm9ooG2fwyy099Nidke5/fP8A+Of98UAPS8+3xSpFuSVf+eq1D/ZUV1Fsu5fOl/6ZL5VW3f5NsVMfykt3edlRP9tqsgEhiRP3Sr/wP+KrCu8n8NZ6XLujvYwRvt+X97LsqrcvrV55XkNFZru+b5d/y0AbUiM/3NqVVuby2s9jT3Kp/wADqvNZ3PlbPN/dfxPMz72/74qVIba2ffLteVv9lKCxn9pTzbPItmeLd9/7j/8AfFRTaVLc/wDHzqE/lbvuQtsq39pd227furTEmSGbyv3m9v7/AM9BAJZwW0TtbQRfaF/jf/4uq81zK8T+buf5f3qRROzrUs2mpNdJc7mSX/Yarfyp/wACoApfYG3boFi3f89rhnd6tPbLMyM8rfL/AHKf5dP/AO+UqAGfY7Z50naJfN+6j1Y+X7tZ/wBstvNfayzSp95EqVLmWZtnltCn8L0AW9/8NVJpp9v7hY/+BvVX7HBv/wBLl+0u3/Pb+CpYbxPO8hEb5V+X5fkqwLCRy7NzT7/+A/JTE8n7iqrt/FUT2f2lnaWVn/2EbZUv+596oAaiSukq3fzozfc20xLyXf5SwKkSfLvdvu1Y+b/gFGxEb7nz/wB96AKj2G9n828kdm/gRtiVYS2gT5kiXf8A7tNe8trZ/KZo0dqz5tbndP8AQ7Nptv8Af/8AiKANV5vJ2M8TP/uUO/zb3+dG/wDHaqIk80W27VXp8NhBbO+/c/8Av/wUFkT3loivti37fvfut/8A33TnmuZm2Kn7pv7i/dqwj7/lo+X+KrIIvsbsm2dY3Rf40X56ryaPbeb5rNJv/wCurpVvZ89H2mJPl+XfQWMezij+ZV/77pjwxbd7sqJVfyZXbd9uZ03fcRUqKaxgm/5Zec//AE2+5QBLNeWiOkTbd7fdqq+sQSSeUtnK7r/s1YSwtofnaL5P/HKdNNFD/EsO2gDNm0ez1V38/T9m3+/srn9S+GnhrUv9fFEldR/aH2n/AI9raW5+X7/3EpjJ51v/AKTBbQ/79AHmWpfAHSLxXe0lZK5HUv2fr6F38i8V/wC6jrXudzqVjpsW152+b+589N/tWe5T/RrGR13bd7tsqwPmbUvhR4h03f8A6H5yf7Fc1c6DqFn/AK+zkTb/ALNfXqQ3ztun+zIn9ym3GlxXP+tijf8A4DQQfGk0O/8A1sX/AH3Vd7OL+7X1hqXg/wAOXkuye2i3t/s1hX/wT8PX/wA8StD/ALjVQHzP9jiR922jZAnysle66l+z2u92s77/AIA61ymq/BPxHZ7/ACoo7lf9igDzXyYJv7tQ/wBlQP8AMvyf7lb2peCda0128/TZ0/3F31kvZy2334mR/wDboAr/ANm7G+Wdkqb7M235230x3b+7Vd7x0/ib/vmgD88qKZT69A8cdRTadUgHmUeZTadHQAeZT0emU+qAPMpnmU+mUAPooooAKfTKKAH0UyigDrfhdctbfEHRH/6bqtb37Qmm7PGV3coyu7N/B/31/wCz1xnhKb7N4m0yX+7PFXrfxU8p9Zd57bejRRMvy79v31rePv0+Uz+0eZW37nV7JJW2RXUH2eXZ/ufJXbw6b9gZPkV5bj/SGfb/AN8J/wCObv8Agf8AsVzXiTR2/sW3vkVk2ssqvW3Nr0t5ob7X3+batt3/AD/cipfCaGPLq0Opap5t35r6Pa/vWRP7qunzv/7LX3L8MfGHwuvNEi0rSLOe20K6/c/a7TZFqGlsiOv2i4+/56u3975VX+H+GvgfR3ebS7u2+/uWK1/4C9dXbeOZdKsLFrSWOz1DdcSwXaKibdjuyb3/AIv+BURqcvvEVKfMegfFrw3Akut3dpBaP9nnWLUbS0+RJ4nf5L23T/lkr/JuVflVnT+B/k8feZnt5bG5ZfNiTb8n8S/wPXceLfE2o219/aFjPE9xFF9tW0dUeL7PLvWWLZ/ss3/j9cTcp/atrb31sv8ArWa3WFPv7f4EqJS941jE5+Gwi/tKLc08Mtuu5kRf7la15qUs0X7/APfIqq3yL/fqpDpsD38siXLJL5X302bG/v1Yms98rssq/Mq1zR900OaS286WJfufN8yV7HYX7JoNov8AAsVcHDpUSfaJ2bfLt/g+58j10NhN/wASmJG/gWunDe6Z1IjHeW8n27tiL953/gqleXNsku1dzv8A33aobx22/JXL6r595fxReayJVykRGJ029H/ib/gdO2tXO232zRJU+0/vrR/9v7tdKifM6tURmXyjEen+dUvl0eTQHKNSZalR1pv2X3pPJoNC2jrUsdUkhZKfuaoA0o6mjrMSZqsQ3LUAaqItW47ZWrKhuauw3lAF1LZKsJZrVeGaraTLWQB9hWl/s1f7tWkepUeq5yuUz/7LX+5TH0df7tbCPT020c4cpz82iJ/dqo+lND81ddsV6Y9sr1fMHKc/D935qiubPzlrYmsPmpn2X3o5iOU5KawbfVd7Nq6qazR6qvZ1fMHKcy9s1RbGSujewqF7CjmDlMXfJR9plT+9Wq9j/s0x7CjmDlKSalKv8TVKmty097Cq76bRzBymhDrzVbh17/brB+xulNSFqOYZ2tnrDTNt3Vd8Q+LpfD2m/udv2jbu+f8AhX+/XJ6VN5Mqbq6LW/Db+Kre3ls7mOF0XayP/Etc0iolH4UfF3U9b1z7Ddsr7vmV9tfVHg9G1KdE/g/v185eFfBNp4euklgiiSV/lbYtfQd5rcXw9+F97q8v32Xar/8Aj1c8jaJ5z+0z8aYNHgTSLO58n5fKXZ/D/t/5/ir5a/t7SpvvvG/+/VLxDc3njzWbvU7uVt8rfKn91azG8Kyon+trADYe80x2+8tMSbSJn+dlrmptKntqLOFHf96uygDrYbPSpv8AlvH/AN9VYTQbF1+W5X/vpKx7bR7R0+9v/wCBVeTRLTb91asDSh8N2z79s9WLPR0hurd/N3uvyrv/AIKxf7HtE+9XL3mpRW1xKtsrfL9191HMyDYmhitvEt3EsS7FaXcm5Pu05JrebS7i28390u7b/tNv+R//AEOq+lWcWpbJ5f8Alr8qv/tVrf8ACJXLx7ooN6bvmdKIgcZYXK2d4kv/AH1XUfCvVUs9euIP+fiL5X/2qz9Y8Py23zeUybmrnLWaewvYpY/9bE26j4QPpZLn5al+1e1cF4e8ZwalEm7dC/8At10SXyuv3q25ize+1e1Measr7ZR9sq+YBniq8lttDu2gb97s++n8NYUOg2em6RFcwSt9oZflm3Vu3MyTROjfOjfwVj/2Iu3yop5Ui/uf3aojlLvhK/lvLXz5fvs1dXbP89c/pVnFYW6RRLsRfu1u2Hzy1pGRHKUvHOq/2VoMvzfNKu1a8a+zNcN8nzu1dV8adbb+1ItPif8A1XzNsrh7PW5dKl/1S3O1V3f7NedW9+RcTs9H8DRXLK18q7P/AB+pbbTb6zuvInaeaJW+V0+fatdB8OrO+8Zo/kWzfaFbavzbEr6L+Hv7K/8AbFxFc65fNZ27fO0W352pRianz/Z6bFqssXmyy+bF80Tp/C1dnYaPqNzLFHBLPcu/3U++719saD8Fvhv4Vi3/APCPWl5cL/y1u2eWu903UvDGgq8VjplpZ7vu7IkTf/wCg0jE+HNE+D/xA1hUa00HUJom/jezdN3/AAN667Tf2Y/iffx/8gVU/wCus8Sf+zV9lJ8Qrb+9Gif3EXY61Yh8eRTS7PMVHf512fN/wCg25T8z/jTc6n8DfE0WgeI7Fkvbi1W6i+zssqMru6/f/wCAPXG+HvHmlX+opHcyrpqXHzM8q/Jur6g/4KWeCYvFXgvw/wCM7T57jSZ2tbp0/wCeUv3H/wCAMn/j9fn5DcteWvlt8/8ACtXH3zmlLkkeseP9bnh1ffaQfbLRV8pvl+//AJ+SuzSx+EviT4U3uqXcVzD8Td3+jRWj74pW81Pvp/D8vy/8Arh7DZfvZQQJvu5XW3i2N95q/Sj4Y/Cvwh4Y0vT9Qh8NaWmt2tqv+nfZk3u38fz7Ny1EvcCPvnzD8Pf2WfF+veH9PnsdPWz/AHETMlx+62/In96vW/D37GeosqS61rUds6t80NvFvr6Th8TwfumZZYXZvlTb8i/777Plpj+J7Z98T7X3ru+9vdF/9mrPmkdPKeVWf7IXhOz3+fqGoTS/9dVRP/QKu237NngKzt0la1nmdG+aXc+//vivRX8SWiW6bfNmXb9x/wD7Oq83iS2k2bbFvN2/63/Z/wBh6fvBynNXP7PfgC/tXtm0WK5i3bfklZP/AB9GqKz/AGbfAEK+VBpUj/3US+uN+7/vuuifxDB99Vbf/clbY/8A45Wbc6890+3ezxN/yxlX/wAfSj3g5SWz+EXgywt0RdKj837sW+8l/wDZ2rVTwroFv+6+xwfZ1bf5Tq7/ADf7lc/NrC/6r7ZOm9fm81P4f8/xVVm8Q3Ns6PuvZkX7vzfOv+5/fp8pZ0F/8MfBmtxf6Tottsl+69v8jtXm/jD9lS2mV7nw5qex9u5Yrht6f99pXVf8Jnc/8e3kRfZ2X5png+dv+Afdp83jmW3i2Wyzp97aiL8jf7j/AN7/AHqXvD90+EvG3h7VZPi1F4V1yJodM0m6Vp0SXekrfef7n/TJ/wDx+u48YeKJ/G11dyxRKiNtt4IU+RIok/gStr9qvR9X+1J440tZLxEi26jaJ87/ACfcl2f+Ot/uV4r4B+KOnzWqLqFzFbIsW7fb7PNb5/ubN6ba2icfwSPQE8PXN/o0umXdyz6btZpbH+9vR4t6f9Nfn+X/AC1S+CfhpLc2+hfC3TL6N7vVJ2uLzUUVHSK3f/Wv97+6u3bXH+J/jfY2f+h6YsE1x/yyS3Z33f8AxH/Ad1e5/sx2DeDYr3xV4j+TW9RVYov+mCv/AAP8nyt/sr/cSj3hfGfXXwu+FHhD4OeHE0PwrYrbRbf39w+yV52/vyv97/2Va6O8sNKvEeKbT4LxWX5klVH2/J/t14/c/GDSEm2rqdokW5v9bP5vlff+5/FVe38YWmsNaPBqcd58q/Pdypv/AO+32fNXNynTE9Im8AeCXl3vpFj5u376b0T7laej+G9A0SR2ttMgs5fvL8vzt/33Xn6PO8lxu1XZcbdzbIkeLb/tpVizhlSGJftjJb7drO8uyVv4vk2J/wCz0cpoepf2lbRyv5ssEKL839z5ai/t603v5Ctc3D/eT7j/APj9cpZ2sts22VZblF+9+42On/ju5v8Avut62+0vbptigsE/2/nbb/n/AHqZBpJc3zxRSyssMTfeR/7v/fdTWyK7S+RAsKbdv2hFT5qzEuVhl3q0+pXH+w3+VqK/1KfdtuZWtndd32S0+eV//iqANp7OKFPNba7r82+4as3W4dP1jQb3TNZs7a/0q9gaG5iuFT7M6v8Af37/AL1Qwo9/F59p5Vs7fx3fzyqv+5Vj7BBvSW53alcLuTzpf87aoD8sv2uP2Drv4bw33jT4cRXGt+Bj+9urPDPNYL/7ViX+/wDw/wAf96k/YD/auk+G+tJ8OfFV8/8AwieqTf6Hcu/GnXD/APssv/jrfN/E9fqo9zL/AKp4F8p/9z5v+Ab6+Bf2w/8Agnmb+O98b/CmxVLr5pdR8MxJsWX/AKa2q/3v+mX/AHx/dq4yOaUftRPvTTdHgh2Svud0+ZYXb5Il/wDQa0JvNT5oIl2bf912r47/AGEf2hrv4pfD+48HatO1t418OReS32v/AFtxb79qO+/5t0X3W/4B/fr6/wBNtpbaJPPna5l/jd/ubqg1iPS2l+fzblnT+FPubad8qvu+V3b+Oj5kb5m31SbW4k/dRRTzOvy70X5KDQ0P9z71V7m5gs491zPsT/cqLybm5/18vkpu/wBUn/xdS74rbYr/AHF/v0ARW2pS3/8AqLOVIn+7M6/+yUybSpbxHW8vJXTd9yH5KP7YS5+WCKV/n279tMezu5v3stz5Kf8APJPuf991YFhEtrO3RUXft/4G9V/7e86XakTf7X99f+AVM8MXyfvfnX7vzUTTRWaea3ybvl+7QBC/2ubUf4UtNv36sPYwTSu8q+d/sO3yU9H3rT0SgCVNtHmUIlV5tStoflaX5/u/JQBYo2f991n/AGy8uW2xQfZk/vy0+GGWF382dn3f3/4aCAe8uX+aKLyU3fxr89E1gz/62WW5+b/coeaBN7LEs0qr8tZkz3OpRfLeR2br95E/eulAGnc3lppSK8rLvb7qf3qo/wBsXeqo/wBjs9kTNt3zfI6f8Aq3Z2cCRJ96bb/HMvz1b+b5NtBZXSzWa3eKfa+5v4F2VYRFhRFiXYn9yoXSBJd0rLv+789V31hUl8qCBppf7/8ABQQaD7qa7xW6ebPKqVnp9uuYH81ltn/vxUzfaWEf7+Vppf8Ab++1AD31trlH/s6Brn/bf5KclteTKjXN5sTd9yKnpeNebGg/1X9x/lpk1hFc/wCtXzv99qAIoX0yzlfylZ33fvfl3/NWhN57qjQNFu/26YiRQ/cX/viqr63FCzo7Kif36CyVvP8A+Wredu/gRtiRUyawZ23tfT/d+4jfeqvviuf9Jii+0u3y/PRc209w22Kf7NEv8aL89AFtP3MUUSt8ir8zu3z1EiX0zb4rmLyv4fl37qIdPihZ93752+87/wAdMm1WCFvKg2zS/wDPJGoILEMLPFskbzv9vbsomtrabYsqK+3+/VLzrm5/1qqkW75kfej1LsiSV5VaR3/22oLLCPFCv7qL5P7iLQ80r/3U+WonmpnmVYD9jOrrPKr/AO2nyVD9mgh2/J5zr/f+d6f5lHmUAVLx9VmleK28qzi/56v89RNo8V5s+1s1y6rtZN2xG/4BVj7ZKzf6htn+3RM8rv8A635P4floAfbWcFmrxRRKife+Sjeqfxfd+9vqu8K7HdmZ5f76fJTvMoAHv1SXb8z7vu7F31FNbfaV3rLPC/8AvVL5lHmVRAeW6J87b3/v7aNq0UUAN2rR5NOp9BZE9sr/AHvnrJvPCulX/wAlzp8E3/Aa26fHUgec6r8E/DGq7/8AQ2tmb/nk2yuV1L9mzT5v+PHVZ0/66qj17rs3U9IV3/doA/n0o8yjzKK9I8QfHTqioqQJaKb5lHmUAS0VFRQBLTKbRVAS0UUUAFFFMoAfRTKKAL2lPt1S0b+7Kv8A6HX0n420GXUoopYolf8AcMrb1/4Er1806V8+o2m3+8v/AKHX166b7NP92uqhHm5jOR5r4tsFh8OSxNt+WLbXnOmwywxRT+UqWkv3f+B/wV6h8SP3OjS/NXmvgbXle1l0y7VXt23bXf8A9Aqqkfe5S4lbSrb7G2qr9zayzL/tL/sVQv7y2h8PaOk6y79vzIi/e/ev/H/u7K6XUkfR7pGlXfbovlb9v3f9+qk2m73S7s5Vfb/uOnz/AH64ZR+yaGV4e1L7fPbt5Swp58sOxP4VdPuVFpty9t4a1NP727a7t/FE+5P/AEKtK8S20fTredfLR4t0uxP+Wsv8FYWpTf2boKW0cv71l+ZP7299z/8AfOxKgsfZ6lFr1rvuYlhuN237Qnyb6uvYzw/NFKrov9+sfSoWtrX729Nu751+7WLpF9NHqHk/apLb+FXRqif2Sjr7OZrb733P4k3VsaPc+dYuv33+asfRLa81iWWBrxn/AN9fnroLPRJdNbaitsropxkYyM2aHfWTqWjvM6SxNslX7tddc6ayPu21U+x1colnKf2bd38qfaWVESujh+d3arH2OnpZslRGPIMZ5dPqwlrTktasCuiVN5NWktam+zpQBU+y+9H2X3q75NP8moAz/svvT0hq75NHk0AVESpk+WpfJo8ugAR3jqwl1VSSm+cqUAaqX7VYTUqwvti/3qPty/36ko6VNSqVNSWuV+3L/fp325f79AHYJqSf3qm+2K/8dcb/AGkv96nJqX+1QWdb9pX+9UTzLXOJqrdN1P8A7UqANp5qi3LWZ9uo+3VnzF8rND5ab5dVPty0fbFo5g5WWPLpnl037QlO86jmDlY3y6Y8K0/zqZuWjmDlZE8K1F5KVP5lNd6OYOVjERat2140LfK1UX+78lPSF0t5bmWXybeL7zvRzBys63Qb9nukZ/71d9+1Fcyv8AtElgX5GulWXZ/t/wD7FeReG9Ytrq4R7afen8VfQWk6VbfFT4Uah4Ynl2Oqt5X+x/Ej/wDAGrmqe8aRPhzRJtlulaE1ym2tO/8Ah7qfhvV7vTNQiaG7tW2t/tf7dH/CN/J87VBmc5czLVJE+0vsiiro5tHiRaz5rZIX+T5KA5WUf7Nnj/5aKlNeG5hXe0q1Yd3jqu7+c+1m+SgAhtp5lR2lZEqwmj23+tZKZ5yp/F8tbvhWzg1jUds//HpH8zf7VAFLQdNudY1lLaxVv++fkWve9H0O20fTreBNruq/f/2q5/R4dO0SJ1tFVN33q0H1Vem6toxLiV/GfhuDXtOliT5JfvRP/tV4fo9hBpXiCWLUFVHX5Pn/AIWr3KbUl2ferh/GeiQa2nnxbUu1/j/vUSiEoli2vLSZdkUsGz/YZabf3MSWUvlSxpKyttf/AGq80mtlhm2yRKjr95NtV3SL+4tQQadh42vvuyqsz/8AfD1tWfjy0f8A1rNC/wDt157ebrW4/dfIjVXe2nZn3bt9HvBzM9lttaguUR0belXYb9X/AIq8StkubZt8Tsn+5XS6b4huYdiz/wDfdX7wcx6xDeL/AHq2LC8RPm/hSvN7DXlm+61dhZ63pVtoz+ast5fS7l+zovybf9+togeRarfz+JPFV3dwRNN5srbUT5q63wf8PU81LnxHcx21v977PuTe9F5f6jCvlaZaR6bb/wBy3X5/++65+a2vnffL5jv/ALdEaf8AMZcx9MeG/iXoPhKwSz0z7NbRL/cZN7/8Drpof2gW8r91qEGz/rulfHmyVP4WqwjvHXT7OIvaSPsD/hes8z/ur6J/9+dKZ/wuy5+59uXyv7jsj18jpMyVMkzVfs4E+3mfWqfHW6+79uVEX+B5U2tVh/2gXe3+XUFT/Y+1fcb+/XyIjt/ean7JX/haq9hAPbzPqvxD8b7bxV4Q1Pw9qt9BNaX8TQy75d1fG82iajpWqSwQRNcxbtqyxfOj10aW1y/3Ymqwmj6i33baT/vmspUYfZFzSPZf2fvAdjok9vr/AIhvLb7WvzQWnm/6r/br6jh+K+kWzIiagzu3yq/n/wCq/wBvf/FXwPbaJq/8ME9XYfD2v/wxT1H1aP8AMbRrch99J8YNFhiSWKeJ02/NKk+yWq8Pxd0xIPkufk+9seX/AMfSvheHwrr/APzyn/76qwngnXH+b7NLR9Wj/MX9YkfbFz8ftI2ost9A8S/d/ervX/x6s+5+Pen7/wDkJxun8P3Hr5Ch8Aa+6f8AHtJsq7D8NNff7ts3+/VfV6f8xHtqp9QP+0bYp9zUldP+eTyp8n+581RP+0hYwtug1COaL/nk7I7185Q/CjXH/wCWDJ/wGrsPwZ151/1Df981XsaBPtKp7XN+0dY3Kv5t82z/AJ5efs2VUm/aE0iFE8i5k/3K8sh+B+tP9+Cr0PwF1d32+U3/AHzV+zoi5qh6A/7T8UP3dsyf3PKas+8/aWtLxX82z+dvvVj2f7N+rzNt8r/x2tjTf2V9Xm+byo9/+2tRL2I/3xjzftFR/ZXgWBt7fx14z4zTw54nunu4rVtKuP4prT5Ef/gH/wCzX1Hp/wCyLc3PzS7Yf9jbvrpbD9kLSE/4/pJP4fuLsSs+aiXy1JHxV4bWx8MXSXNsrXMv/PV13v8A/Y11qfE67R38iCR93zMjtX2dpv7Kfgq22PLpn2z/ALavXVaV+zr4Vs3/AHWjL8n8G2p9pD+Ur2cj4as/iXrk2zytPZ3X5Vd1rq9K8T+Nb/YsGiqm7+4rJX3LpvwQ8PWESbdFtP8AcRa6iw8GWcPzRWcELr/0yrOVSP8AKaRpy/mPkrwN/wAJ7c7GXSGRN3yo/wA3/ste4eEfG3iy2RIr7TLbYvy/e2V67DoMUMSbU/4BVu20pU+9HGjt/cWuaUuc1jHkOfs/E+ouv+k6fP8Ad3MiL93/AHHrVsLmW5tYmi0z7zb9j/f/AOB1qwp5KukUX3P/AB6ia2ublvvRwp823+N6jlNCJLO+uVRry8WGL/n3t12f+P1bSa2s/wB1ujf+Ft7b3o2S+Vs83fKq0yHTYkg8raqPt++lHKAz+1Ypk3RW0k3lNtVHTZT/ALTqNyn7qKKw+X77/M6/8Aoe/is7iKBmbey/c/vVSv7zT5v+Pm8lRPu7EbZ81QBLc22pu77tTWGJ12t5UWx2b++j/wANPRbawdPPuYvtG377tsdqo/bNKeR4pbyW5dl2tE8u9EX/AHKi/wCEh0G2lS2i+d3+6iRb6APn340/s9yzfErTPip8LfK03x3p0+6+tNjpaatF/Gkv9xtu9d38X/j1fTWlXV3eWFvO1n9jllVWZJm3+Vv++nyfKzLWZD4na53pbaVeum77jr5X/ob1YR9ZvNrrbW1gm778rb3qxcprJbK6ul43nP8Ae+ddlOe/X5di70+7vT56zf7NWN/Nvrye5eJt33tiVLNqtjpuzYvzy/MqIvztQMen2maV/P8AL8r+F/uOtQ/2P9juPPa+ndF/gdvkarEzy3kTp/qdy/fSq9to8Vt5vmyy3Pm/e8356ALb3/71FVWm3/3G+7VeG2vrl3+0yx/Z93y7F2PtqxDbQWf+qjWH/cqx/F8zUAV7bTbazl3bd8v/AD1f53q2n9+qM2q2dt95vm3bfkqv9svrz5Fi+zRbvvv9+gDWd4oU/esqf8Cqj/be/YttBLcpu27/AO5Vf+x4N268lkuX/wCmrVM+pKm1Yom2btu9FoIHeTqFz/r7lYU/uRLQkNtYK7qu9/4qq21/d3kr+bbbIv4X3bKLbTYrO4eXz5Jnb++3yUFjk1i5vN/kWbQp/wBNfkqaaF7ldkrfJ/ElS+ZRQA9YURUWL7i/wUJCifdVfmrPvLm5h+aD5/8AYp32ae5iTzZ2hT72xP4qCC3NfwWz7d3nSt/AnzvVfzr68+4qwxf7f31o+02em7F+Xf8Aw/36ZNc3l1/qFVE/i30AWHsIv+W7NN/d3t92onv4LZNsUTb/AO5tqJLBX+a5laZ/9v5KtQosK7UXZF/vUFhvnuf9aqolCW0Fs+6JVT/cqJLyJ2eLeu/+5T/ufcqyCxvVKqXlzc+V/oyq7/7dPdEd0ZvvpT9+z7lQBRmtp7+D9/K1tL/0yarENnFDapA/zp/t0/5Uf/fpjvuqwLCbdm1aie/iTeu77n9xaY77021USxgtpfNSJt+3bvdt9QWD/wBoTXCS/Klvu+4/yPU2zZ8zSt5u7+D5KHdnXYzb6hd9ny1YFjzqi86q/nUzzqCC351M86qX2r2o86gsu+dTfOqj9q9qPtXtVEF7zqPMqj9q9qPOoAt+ZR5lVPOp/nVYFjzKPMqLzKPMoLJfMo8ymJ871Q1vxVpnh9XSeXzrtF3fZ7f7/wDwPf8AKv8AwKoINVNz1Df3ljo1v5+oXNtZxf37hkSvEvFv7RWlaa0sU+oR2f8Adt7Ft7t/wP8A+JT/AIFXDp8SNe1i4efSPCtzCjf8v2oN9n3/APbWX5moM+Y+hbz4kaVZr/o1td3n+2kXlJ/30+z/AMdrFvPidq8yP9m060s0/vyytL/8RXg95quv+a/9p+LNN0d2/g0yJLiX/vt//iKzJrCxv33tBq3iT+9Nq148Vv8A98f/AGFacpPMesal8YpUuHgn8VQJL/z76ZEssv8A3wm9qzLzxtc3Nq887azNaf8APxq14llbf+Ptu/8AHK8iv/iRpfhVZbVtXtrZ/wDnx8PQIj/99/O3/ji1yl/4z1O+/f6L4ftrNv8AoLeIW811/wBvdO3/ALJRyhzHwfR5lN8ynV1HmhT46ZT46ACn0eXRVAHl06iipAKbTqbQA5Hp9RUeZVAOre8K+EtV8W3qWmmWzTP/ABP/AAJWPbQtcyxRL87yttVK/QL4G/CWx8H+CLdPKX7bKu6eXb95q3p0/amcpch8vp+zrJYQb9V1VbaX+5CtZ958H9NhR9usSf7PyrXbftFa9faV4me0VmSLb9/+/Xi73mqzfOrSbP8AbatqkqcfshGMpm1/wrqWzvYpYryOaJZV/wBivo1P+PNP91K+YtE8T339qW9nK2/fLtr6RTUF+y/7q1VGUfshKMjzn4u3mzS9u+vNNK8N3yaJFqctnP8AYpWZVm2/uv8Avuuo+KmqvNexRo38VfRHwl+J2laD8B9SsdR0rTdSS406W3gtHi2bWfZ87/8APXZt3bvvURjGpUlzE1JShH3T5q0T+1bx/s1jbNrCJ/y6S/8AHwvybvk/vfLWLeTaZa3D7o7vSrjbuZXX/wBAZPlb/erS8PeM9X8DeKNL1zRmaG90mf7REkvzoyp/B/u/w7f7rtWn8VPiVp3xW8Xf2vY+GLTwnZLAqz2Nuz7GZU+d0/3/AP0GuOrKnL4TWHNzHKaVpUeq3SKupyzP/DsbfsrYh8JWNs7tKsk0v8Ly/PXFTWywq8qL8/3t6Nsfbvrd07xBrWmQRM6/2rayLuWKVf3u3+HZ/FWMZRNyxqVgqb/9qvM9S/c6jNs/hfctenv4q0jVI9rrPptx/Ejr8n/fdeb695X9pP5Tb0/v1Nb4RRPSvhpN50/nr/Eteh7FevMvhTu+yvu/5616hHXdRl7pEiGa2WZdrVlXNh5LVt/xVK8KTJ8y1NQuJzX2X3pyWy/3a1n03f8Ad+Sqj20sP8NYFkHkpTvJ/wBmneZT/MoAi8mipf8AgVMko5gG06onemPdVHOBb8ymeZVL7V7Ux7ymBoeZUTzVnvf/AO1Vea//ANqgC3Nc7KzLzUtn8dVLm5lm+4rVQubC+ufuxNQSS3OsIn8VZk3ipU/ipk3hjUJvvK1Un8E3f/PJqz5ZFe6Wf+E0WnJ42Wsx/Blyv/LJqrv4SvF/5ZNUctUOY6BPHKf3qsJ42i/vVxj+G7tP+WTVA+j3if8ALJqnlql8x36eMIm/iqwni2B/+Wq15k9hcp/C1M2XKf3qz98vmPWE8Txf89amTxDE/wDy1ryHzrlP71PW/uU/iqOZl80T2BNeif8AiqVNYX+9Xj6a3cp/FUyeJLlP4qOZj5onsCawv96rCawv96vH08W3SVKnjKf+JaOZj909d/tRf79P/tRf79eTp41b+JKsJ42X/ao5mB6n/aS077Yr15lD42j/AL1W4fGUHTdRzMD0X7Sr/wAVXU8jVdDu9MlbZ5vzK9ee23i2B/461YfEkD/xLRzM05TT8M+GLnTdX82faiRLt+RvvV7B4J8YS+FdXilSX5N3zIjV4/ba8zptXbXQaPc733s3z1HMEYn0x4q8GaL8ZtES5Rls9Q2/uLiJPnT/AGH/AL1fMPxI8Da94DupYr6zZ7dPu3EK70evVvBniefQ5UaCX5P40r1JPF2meJ9L+zX0cU275WSasg5T4KvNbX7jstZU2qrXpv7TngPSfD2qW95oa7PtDbWiT+GvDPs1z/deqiRI3nv3f7lMSNn/AIlrKRZ/7rVdh3/xrW0YmMjQhtl/jZnrYhv/ALGm2L5KxIXq2k1dkYxMeY1f+EkuYfus1N/4S25T+Ksl3Wqs1HKHMbT+M7z+9VV/Ft5J/FWPJVeSo5S+Yu3OqtcvulXfVJ7qmVFNMqVHKHMQ3N5vTZtqvDeSw/cemu+9qZJWPNIC6mpOv3lWr0OpRN99awlapUdP4q2jUJ5TqIbyP+9srasNVlh+aKXen/fdcLDMv8DbKuw3P+6/+5XTHlmL3j0iz8VbP9fGv/AK1bXW9PufvfJ/v15rbakyfflZP9iZd9atteRXP3oon/64tV8qI9oegJbWN586bX/3KZ/Y9ju+aJq5eG2R/mXzUqwj3kP3bz5P7j0+UvmgdnY6J4ad/wDSftKf7n/7VdhoPhX4czbPtN5Oj/7cT15FDqV9/Esc1Wk1Vtv72zZP9yp5ZBzQPp7w38NPhdefd1G0d/7j/JXpGh/A/wAC3Oz7MtlN/uMj18Of2rB/tQ1p2HirULD5rTUp0/7avWcozNoygfoHZ/Afwxt+XT4P++avw/BDQ0+7Yx/9818NaJ8b/GeibPI1efYv+1Xe6J+2N4x0p0+0styn/TVaxlTkXzRPrNPgtpH/AD5xf98rVhPg5pS/8u0X/fNeGeHv26vuLqelRv8A9ct6V6XoP7ZPgrUtn2mC7tn/AN1HrGUZmvNA7CP4RaZ/HBH/AN81bT4UaVH/AMu0f/fNS6J8fvh9rexYtegR/wC5L8ldxpuvaBrCbrTVbSb/AHJ0rP3x+6cUnwu0pG/49l/75q1D8N9MT/l2X/vmvQ4bBH+42+rCWC1HNM0PPI/h7pi/8uy/981bh8Daen/LtF/3zXepZr/dp/2Nf7tXzAcOngzTlff9mWrsPhizT7tqv/fNdd9mjp21aOYDmk8PRJ862yp/wGrEOgt/soldBRQBlLoK/wAbN/uVattNjtl2Iu//AH6t0yrAiSzihd22r81WNq0zzKPMoAeibaKPMo8yqAfRTPMo8ygCXzKKi8yjzKCCXzKf5lV/Mo8ygCXzKbMizRbHX5KZ5lNZ/l+X79VyliJZxJ92JU/4DWPrHirQ/De/7TcwJKvzNCn36z7aHxRqupbrueDTbL+5btvlatZPD2n+a88ttHeXDbd00sSb6z5WBRh8YNqsG7RdPluZVbb/AKR+6T/fqxZ6TrN43m32ptDu/wCXeL+H5/79bCOqfIi/LT0ejlYD4bCK2RPvPs/vtVjctVHvIofvtWY+sTzS7baDzot3+tT+GgDe37qovrFsk/2drlfNb+Cs3UrC41JdjX0ttEv/AD7/AH3qXTdHsdNTfBAu/wDvv87tRysC7M8+3/RlXzf9uoks55l/0653/wATIibEom1KK12bmXf/AHKY/n36J+9Xym/goAtwpZ2cX7hV2J/c/iqu+qtcf6iJt6/eR1pkNnBYb/KX5f8Avun/AG9kb/VNs/hoAZ5Ms3zSs3z/APLJ/n/9Aq8nlWz/ACqv+1sqv5zzb1l/i+7spyJ5KbaCCZ3ldn2qqJ/C9Cbtu1m3vTKimvILNU8+VU/36ALFH+/WZNrD+aiwRM6N/GlQ/Y7u8ffPc7It33EWgsvXOsWdm3lMyvL/AHEqKG5vpp/PVf3W7/VP8lCW1jpqbtqvL/ff53ofUok3ozb32/Mn92gg0PlffupjuqNVKG8aaJP3TIlO2L/wOgCZLxHb5WqG5hluX/1+xKfv20eZQBKiRQ/Nt+f+/T/Mqv5lV5vtc2/b5SRL/Hu+9QBYmuordf3sq1X+33Nx/qIP3W777/fpiJbWezzWXd/Dvaor/W2s4nZIJZk/6ZLvoA0/J/dbZX3v/fqG5v7axi/fzrCn+21Zv+k6lap+9azf+OoYfD1inzTr9sl/vzVpygNm8YLNvXTrGe/b++i/JToU1y8l3zywWcX9xPnetZPkXanyL/cT5KPMo5QIYVXe+2Xe/wDFUSQz7n3PvSrGxd/3af5lSBRm3J95aieatOont4pv4aAMnzqY91VubSt/3WrPubC5h/h3p/sUAP8AtXtTPtXtVJt6/wAOyoftXtQBp/avan/avasn7V7UfavarA2PtXtUyTViJeVL9soA20emXN5BYWstzcyrbW8S7mllbZsrHfVY7aKVt6wxL8zb6+Xfi18WpfiLeS232mWz8H28vkwQxbt+oy/39n3mX+6q/e/jqTOUuU9I8bftCXOpXkuneC1Wa0VWWXU32RJ/wCV2+X/gKM3+5Xj+sX8Wq7E8Q+IdQ16X739n6NK9vbbv9uV/mauU1jxPaaSiRa1qEmlW6/LFpOmbHvm/2Hf7sS/9MlrPfxnqsNnv0+2svBOmN8y3dx+9u5f9v+9W0YmPMz0uwdvDdv8AabbT9L8JW/8Az8SqiS/9/Zfmb/gNc/f/ABI0W/neKKfVvFuobvuWKv5X/fb15DqXjDQUunlnW+8Yah/z11OVvK/74SqV/wDEjxLfweRbSxaJafwxWiJbp/45Rykcx7DeeIdftrfe1nongm3/AL93L5tx/wB8JXF634t0O83pqviHWfFsv/Pvbt9lt/8Avha89sPDeo+IbjckV9qsrf3F+T/gb16BoPwZ1GZUa+ng0eL+5F+9l/8Aif8A0KtPdD3jMfx9Lptu6aNpGm+G4tu3zUXfK/8AwN6qW2j+I/HD74ILvUnb5ftF23lRf99vXr2g/Drw9oLpKtn9vu1/5eL5vNf/AOJWuqSZazlUL5WfAWpfB/xHYfPFBBfr/ft22v8A+P1y9/o+o6U22+sZ7P8A67KyV9V7H/hah/nj2yxRTJ/t1uY+yPkdPn+789Or6W1LwB4c1tf9J0iBH/vxL5T/APjlcpqXwH0yb5tO1C5tv9iVfNSgj2Z4vT67rVfgt4hsPmgWDUk/6Ytt/wDQ65K/0TUNHbbfWNzZ7v45YtiUEcpUooT5qfQSMptOooAbR/A9OojqwPQPgt4S/wCEq8f6fEy/6PastxL/AOyV+i3hv9zpcUSfcr5f/Z78E/8ACN+HPtc8Wy9uvmb/AGa+lfCszvE6f3Vr16EeSJxVTzf9oT4PweLdL+3QRL9rt/mV6+H/ABJrzabcXFmsDJcRfKyOv3a/UCZ1vItr7Xib5XSvl/8AaQ/Z1XWIn1zQ4lS7Vf3qJWOKw8p+9E0oV+T3ZHx/oOpPb6taXMrM+yXcz19C6b4nW803csq/d/vV82XlnPpt09tPE0MsXysj1veHvE7QskTO2z7tedRqcvunXKJ2WvWq69f3Hm/wr8r/AN2uaTxPfaCz21zueJflV0rpkm/0+72/3trf7tc/rG2bzV+/vro5eaPMRze8VLnXrTUmRknVH3U93i2pK06on8T1x99Z7Hfyv++KsaCnnTp93/gdeX73NynSatylzrDv5C+Tbr829/4q+m/hr8E/DmrfC23uNc16ObxRrl1FZaLYxXX3ZXdF/wBI/wCeX+839+vB7m23w/ul+Tbt2U7T7+5ht3ginVH2szb/AOFdj16+G9nT+I4a0alX4fdOw+PHwT1z4J6l9h8UQQQ+Y7Ja3du29GVdm902fN/31Xhf2z+Fo1m+Vvmeu48dapqviiS2OoarPfR2sbQQPds7tt/uf7K1wM1hPbS7XVq87EfF7p10+bl949Q+FMf/ABK93/TVv/QEr0JH+SuF+GMPk6JF/fb/AOLruIa66fwESLFWI6qJ81WE3USLHt9+jZuobd/dp3/AagsEsI3+Vvnptz4eg8rejMlWoUZ3+7WnNbM+my7F+fa1QBxU1hKn+qbfVGbz4fvRN/wCotS8bQabF8y/J937v8VZSeNvtlnLcxKv7r+D7j1IF2a5dN+5WSqj36f3lr0P4J6PB8SLq4ivlvkSJVb/AIl627uv3/vpLLF/47uql8RfCsvgzxhcaY6xXNpEy+VcIqP5qv8Acf5Gf/0OoA4F7/8A2mqu9/8A7VeoeG/CWma9o17PLZqlxbxbtj/Jv+R2/wDZa7jRPgb4c1XQ7e5dZ0ll3N/rflb56XOHKj56sJvtl/FB9zc3zO9fSfgb4D+E9Y02KSXUfOuGX/nrXM+MPgDp2iaXcajY306Pbru2S14/Z+Ib6wbfBcyJ/uNXrYaNOUfePHxsq0P4cj6uf9m/TIV32zK6f7tZ9z8EJbbfsgjdf92vD9H+NnirRF/danI6f3JfnrvdE/aq1iFkW+torlP9iumVGlI4I4vFR+L3jdufhu1t/rbHZ/uVlTeDIN3zQbK63Sv2nPD2pfLfW0ls/wDt11dh488HeJE+S8g3t/frmlhP5ZG8c15f4lM8afwTbf8APJaqTeBrN/8AllXvcnhvRdSTdbSx/N/casy88Af88Jd9ccsNVgelTzHD1Tw9/AFs/wDyyWqjfDq0f/lktewXngy8tt/7rf8A7lYtzps8P3kZP99a5pRqwPQjVpS+E8xf4Y2j/wDLJapTfCi0f/lkteoPDTHhrHmkb+zgeRTfB+0f+Gsy5+C0D17W8K/3aPJX+5S5g9nE8Em+CCP92s+b4Gy/ws1fRP2X3pn2X3rMv2Z81TfA68T7stUZvgzqqfcr6g+x0z7DR7pPKfKcnwr1iP8Agqo/w41pP+WFfWv9mr/dWmPpMX/PKOpFynyI/gbWk/5c2qBvB+rp/wAuclfYH9hxf88lpj+HoP8AngtAezPkD/hGdXX/AJc56lXStbh+7bzj/gNfXX/CNQf88Fp3/CMW3/PBagvlPlC2k8QW7fJBI/8AwGt/Tdb8Rw/8uMlfSaeFbb/nktXbbwlaP/yyX/vmp5UX7x4Vo/i3xGjJ/wASyWu40rxP4quVTZZrD/tu9esWfgWF/uxLVu58IxWcW/ylqDQ8U1jQb7W5fP1NvOf/ANBrKfwNB/zyr12/s0h3qirWJNbf7NUB5u/gOD/nktRN8PYH/hr0V7b/AGai8mlzSFyxPOv+Fbx0f8KxV/utXpHk1Kiba3jUkY+zieXv8K2/vVXm+Fc9ezW3z/fSrXkr/crb2hHs4nz/ADfDG5Ssy88AXkP8NfRz20Un8NZl5YROn3aOYj2Z8xX/AIevofl8pqxJtNuU+/E1fTd54dim/hrEvPBMU3/LKr5oh7M+dHt2T7y1F5Ve3X/w3WT7kVc9efDeVPurV8sSOU8y8ujy66288E3MO/8AdNWVc6JPD96Jqj2JJiU/eyVdks3T7y1E8NR7GYuYbDeTw/dZqtJrDfxRK9UvJo8un+9gHum1ba8sP3Glh/3Grbs/GEqf8ve//rqu+uH8umVrHEVIE+zieoW3ipX/ANbBBN/ufJWhba9p8331ntv9z568jWZ0+6zVah1W5h+5LW0cXH7USPZSPYIbmCZv3V5E/wDsTVK8KfxWy/78VeSw+IJU+989aVh4tlh+7PLD/uNW0alGRn+8PRfJg/5ZStC/+3T/ALNcp8yssyVyVt45lf8A1rR3Kf7a1pQ+LbST5mgaF/8Apk1bezhP4R+0l9o2Hdk/1sC09HX+HzUqvbeIbab7tyv+5cJVvzrSb+GNP9uJqx9gX7SI6HUrmH7t03+49a1h4w1WwbfFc/8AfDbP/QKyUs/O/wBROr/7G6mvbSJ/rYFf/cWo9kVznpvh79ofxj4eZPs2uahDt/g83etep+GP27fGek7FvJbTVU/6eItj18s7Iv4ZWhf/AG6Ps0/8LrNWMqRt7U/QDwx+3/pFzsXXNBktv+mto2+vXvCv7VHw08VbEi1yOzlf+C7+Svyf3yw/eVk/3Klh1WdP4t/+/WPsS/aH7Uab4h0jWFRtP1O0vE/6ZS1oeZX4xaH4/wBT0GXdaahfWD/37ed0r13wf+2N8QfDexP7cj1K3/55ahF/7PUexL9ofp75y/36b5y/36+NPCX7f8U2yLxH4ekh/wCnixbele2+D/2mfh94z2Laa9bW0rf8srv909Tyl8x6871D5lZttqkF5EksDRzI38cMu+rH2hKOU0LXnUedVXzv9qmedUgaHmUzzKz/ALV7UfavarA0POo8ys/zqf51AF3zKPOqr51HnUAWvMo8yq/nU3zqALXmUeZVfzqPOoAseZR5lV/Oo86gC351RTO7xPtbZUPnUeZQBE9gvlSsu17h/m3y/wB6orazufNR7m5+T+4lWvMo86nygWEdYURVX7lNubyWGLeis/8AuffqHzKPOo5QHpMsyIzLs/36ZczXKf6hVf8A33o8yjzKOUAhmndd8q7H/wB6rD3MUKbnaq/mVE6RTPu2/PU8oFiG8lmldViZEoea5hl+VVmi/wB756PO2J8zfJWP/bdsl/5UTM+7+43yUcoGxMlzMnyyqlV5obF4kS5bzv8AfrPubO8v7j97d7Lfd9xP7tW4bOKFV/j2fxvRygWvtOyP9xF93/gFV/tk8yo8e7/cepvMo8yq5QKkOm728+7bfLu3fI1aCbUb5VVKi8yjzKQFjzqPMqv5lMebZQBb8yj5v/265+88T2ib4Ip2+0fd+SqlnZ3d+6S3N9Ls/wCeX3KANO/8T21hviRvtNwv/LKL56qQ3muX9xvZVs7f+FH++1XbOwtrD/URKm773y1Y3/vv4s0ARf2bD9q8+XdNKj7l3/wVaR9n3ai8ym+ZQBY8yjzKr+dR51AFjzKPMqp51HnUAW/Mp3mVS86n+dQBa8yjzKr+dT/MoAseZT/Mqv5lOT5qAHvbQTJ8yq9ZV54egm/1TbHqv4k8c+G/B9u8us6vaWG3+CVvn/74rxHxh+3D4K0HemkWdzrcq/xp+6i/77qRcx63eaJc2/3fnT/YrHmmaFtrV81ar+3trl/K8Vjpmm2EX+2zu9Q6V+11qt/dJ/a9nbXlu/3ntPklX/4qkRzH0wl5/tU/7fsrhNE8Z2fi3TU1HTJ1ubRvl/21atO41iLTbCW7nlWG3iVmld/uIqfferDmOC/aH+Jf9j6XFoEErO97/wAfXlffZf4Iv+BMn/fKPXyvf+M7m/vZYtKuY4dvyz6tu2RIv9y3/wBn/wAeaqPxL8cyeM/E2q3bSywvcK27f/yyX+NP++fKi/4A9ce8zN+6bciL8q2/9xq0icx0yeIYNEf/AIlEXnXv8Wo3fzv/AMAT7q1kol94hun/ANfqVw33vm/9Detjwx4Ml1LZLefJb/3P71ep6PolppsSRQQKiUcwRicJonwxvr9Ee7nWzT/nlaL/AOzV6BoPw60bR9jtbLcy/wB+X5627bZCtWPOqOY35S3D+5VFiXYlSo9Ut7fw1L839+p5hltJv9qpUeqkML/efbCn+21cb4n+MfhPwxvil1NtSu1/5d7H96//AMR/4/WYuYzJvCuowtt2R3P/AFyas+awlh/1sEsP++teeaV8XfE+m7FfUPt6f9Pa7/8Ax+uw0r49xOiJquir/v29fRSo05nzH13EUvijzF5If7jf98UeT/tVsWfjnwL4h+9P9jlf/n4XZ/4/Wx/witjfxebp+ob0/wBhvNSsZYWX2TaOa0/+XkeU5LY26mP867H+438HyV0U3gy+h/1XlTL/ALDbXrPudKu7P/XxMn++tYyoSgejTxdCr8Mjj9S+HvhzW/8Aj50q2R/78S+U/wD45XJal8BLGb5tP1Oe2/2LhfNT/vuvU0hb/nlv/wBynIif3dlcx0+5I+fdV+CfiOw+aKK2v0+9/o8ux/8Ax+uR1LQdQ0f5L7T7mz/66xPX1siP/DUv8O113p/FVc5Hsj408uu2+F3hL/hKvFtlBKv+iRfvpd9e9X/gDw9rHzz6Nbb/AO/EvlP/AOOVp+D/AAZpXhJZfsMGzzfm+etqco/aMZU5Hd6VCthapFF9xa7Dw3r39lS+f/BF8zVx9tcq6qn3KL+52WcsW5k3Lt3p/BXqxqROOVOR2tz4w07SvFcttbahFc29x++2bvnib+PeldLNeQXkH3l+avg/w9c6jbfEa3WWeWa7Wdkn/wBpa+nrDxDLbIi7vkb5q7KdSMjjlTkeX/Hv4D2fieKXU9IiW2vV+bYlfHl/Z3OiX7wTq0MsTV+hesax50W7d89eE/Fr4dWnjCN7mBVhvV+6+2uDF4Tn96B1Ua3L7sjxLTdY33G7d8kyrVu2tpdVvUt4l3u7bVRK4+5hvNEvWtZ1aF4m27HrpfDGsNYSS3aq3yrtV938VeXGX2ZHdKP2j3jwx+xbqPxL8I6hqfhrxVo2q67YRedeaCku24i/z/lq+Xde0fUfCet3GnX0Etne2rbWSVdrrXqWj/FHxD8PdQ0/V/D2oz2GoWu3/SIW+dv/ALGl+OnixPitBaeJmgVNVZf9KdF+9XFUl7xtE4TRfGSwqkVz9z+Kt1Lm0v13RMsyf7bfPXmNPSZ4fuMyU41g5T0WZ5fK2t/pKf8Aj61VeziuX3xNv/h2VyVvrt5D/wAtd/8Av1b/AOEkle9iuWiXerUpVIyDlPX/AAxDFbQSxRbfKil2q6f7CJXQR1xnw7vHvtBlml2vM07fP/3xXZx16VP4DIljq9HVGOrafcokBYqVEqvHVuGoNS7Zp89bdsm9PmrKs62rXvWMpFnnXjz4Yy3jS3OnxfaYm+Zrf+JP9yvJ7nS5dKku4PIkRGVk8l12OrPX1hClF5oOnaxFsvrGC5T/AKarWPMHKfP/AMIviLc/DTxDZar9ja8+ztF8ibPk2P8A+O/L/FXW/Ej4tX3xR8eXGpy20ttFdQfZ/s/+tdYkf+Ou4/4VR4aml+bT5If9hJ32V1Gg+DND0FllsdPjhlT7sr/O9RzBynP+CfCWqzaJdT30nky3+5vsm7YibtmxNif7iNXq1nbRWFhFbRf6qJVVaqQ/JVhHqeYuMTlPivqS6b4G1WVvuNF5X/Anr5F85d9faviHR7bXtLltLuLzopf4K+J/HmlJ4e8YalY2zbIrefavzV6mEqfZPNxdPn94l8yjzK59L+aH+LfVhNY/vLXq8x5XKbfnVKlyyfNuZKx49Sib+KrCXKt/FQHKdRpvjDVdK+e21CRP+BV2ej/HvxHpv3p1uU/268nR6f5lZ80iJUKcj6N0X9pz7iajZt/wCu10r43+Fdc2LOywv/t18f8AnU9Ln/arTmOf6vH7Mj7dh/4RrXl3wXMb7v7jVXufA1tMm+CWvjSz1i5s33wXLQ/7jV1ej/FrxDpWzbfM6f3HrGVKnI2jLEUvhkfRd54JuYfu/P8A8BrHm0G8tvvxVwmj/tIanD8t9Asyf7FdnpX7QOh3+xbmJoX/ANuuaWCjL4TojmlaPxRGSWzJ95dlN8muts/GfhrW1/dXMXzf7VWH0fTL/wCaCVa45YKR2084py+M4rb/ALFG1a6ibwr/ABRS1mTaDcw/w1xyoVIHp08dRl8MjH8mn+TVp7aVPvLUVY8jO2MoTIvsvvTvJqaiOgYQ2296sPZ7Klte9SzfPUAZ6Wtb2j6bvdKqW0Pz11uiQqlAGtp9hFbRbmWuc8STI+9Vro7+52Rba4m/dnd6DA5e8tt7PWa9nXRXMNVXhoNzn3s6he2/2a6B7Wq72tBnzGR9l96clrWt9l96l+x/LRyhzGTDDsetDZ8lROmxql3/ACVYiJ021n3iVdmes2Z/noAh8mm+TUvmU+OqAr+Sv9yoXsIn/hWtBEp/k0wOfm0GB/8AllWfc+DLSb70Vdn5NM+y+9XzD5TzK/8AhvaTI/7quc1L4S/feKvcPse/+Cmf2bv/AIav2hjKnE+cLz4XX0P3a5688H31t9+Bq+q30f8A2apXPh6KZfmgWtvaEeyPkybSp4fvxNVR4X/u19R3/gO0ufvRVzmofCm2m37V2Uc0Rcsj59dKZ5deu6h8H5fneKudv/hjqNt9xKj2cZC944Ty6ZXQ3PhW+tvvwNWXNYTw/eiao9iHMVd7JUqXk8P3Wah4X/u03yay5ZwKLaa3On+3Wha+JHh/ilT/AHKwfLptXGpVgRywOzt/GH/PXbN/6FW1Z+Ntn3bySH/Yf50rzKnpMy/xNW0cZL7RPsY/ZPYofFXnJ+9itrn/AHPkerSaxpk334p7N/8AvtK8YivpY/460LbxJcw/8tWrpjiKcviM/ZSPZbZ4rj/j2voJv9h22UTWL7/3tsv++leWW3ird/rYletuw8YeT/qrme2/2N3yVrH2cvhkTzSj8R1r2y/wSyp/sP8APUX2CX+7FN/uffqpbeM5Zl/e/ZrxP93Y1aEOvafN/r7aW2f/AGPmSq9iL2kSujtbN/y0hq3Dqs6f8t1f/fqxbTW15/x7X0b/AOw9Mm0pv47ZX/3K5/ZG3OdX4V+LXirwlKjaZqt9Z7f4IZ32f98V7b4P/bq8VaPsi1eC01WL+J3Xynr5aez2P+6Zkej/AEyH/pslYypG0ap+ivhL9tXwZr2xdTSfR5f78q70/wC+69d0T4keGPE8SNpms2Vz/dRJfnr8jU1DyfvRMn+5WlpviGezkSW0vpLaX/YbZUezNPaH7CeclJ53+1X5leE/2jfH/hXZ9m1qS8t/7lx89ey+Ev26rlNkXiHSP+2tvUcpr7SJ9oedR51eNeFf2n/AnirYq6ktnL/cuPkr0iw8Q6fqq7rO+guU/wCmTUzQ3fO/2qPtXtWf53z0ed/tUAaf2r2o+1e1Znnf7VP86gDS+1e1HnVm+dR9o/2qANLzv9qn+dWZ9q9qPtXtQBp+dR51Z/2r2o86gDQ86j7V7Vn+dT/OoA0POo86s/zqd51AF7zqPOqj51HnUAXvOqpf6qtiqO6s7v8AwItM86m+dQBDputz6r96zaGL+F5atw20ELbliVHpnnUedQBb8yjzKqedR51AFvzKPOqp51N86gC751M86qvnU7zqALfnVXvE+2ROrSsm7/x2medTfOoAYmlWK/fgV3+9verabE+6qpuqv5lHmUAWvMo86qvmUeZQBY8yjzqqedTPMoAt+dR51VPMpvnUAXfOo86qXmU7zKALfnUeZVTzqf538FAFvzKd5yJ80rLXBeP/AIr+HvhvavLqt4v2jb8ton+tavlL4l/tCeJfiK7wWkraJo/8KRPsdv8AfegzlI+mPiL+0z4O+HqSwJc/2rqCf8u9p/A3+21fNPjz9rTx74z322lf8SGy/wCnf7//AH3Xkv2aJJN0ETXMv8U0rfJWff3kG/bc3m9/+eNutVymMpEOtzT6rO8+r6q15K3/AD2l81qx/wDiXJ935/8AfWpprnZ/qrFYf+vhtlZ81+8e/dPbJ/uLTIJfOs/9n/cej5Yfmtpdn+x/BWf9p87+Lf8A8CdKJn2Reaysm3+PdWciz0v4b/E688H6yl1AzOn3bm03f61f8/xV7R8cvidY/wDCpUl0+53/ANsssUX+yv3pf/QNv/A6+KofHEEmu29pbRNcxf8ALV/u/LXS3+pXOpaf5Us7PbxNuiif7qs+zf8A+gV4uLxscP7v2jppU+cYl+8lxKz/AD723Vu+GEsdSvUSdtlx/t/xtXJQvT9Sme2sZZIfvqrNvSvKpZjWjU5ZG0qMeU+iNHtt8Xyr8q/LWxDbf3fv18+/Dn9oSOytfsPiVGSVE/dXaf8AjqPXVePvj1baKsUPhme2v3dfNaW72/d2f+O19T8Zycx7EkLNV6Gzb5a+b7b9pbxO6JL/AGfpP+qVov3D/wDxdWLbxN8S/iXL9ms2vX3f8u+k2rq/+5vT56gOY991rxPoHhKJ31jV7azdP+WO7e//AHx96vN9e/aEiRXi8OaR5392+1H5P/HKx9N/Z+udK33Pi/xDo3hJP4k1C6+0Xzf9u8W9t3+9trTm1X4SeAIvNg0rUvG12v8Ay9+JLr7BY/8AALeJ/NlX/gdBnzM4z7T41+MGo/YYv7U8Qyy/dsdPtX2f98J96u9sP2bIvCUST/EHxVoXgNF+9b3cv2/U4l/2LK3/APZttcP4s/bA1680uXSNKuY9E0dvvaZ4Ztf7NtG/33T97L/wKvIpvGfiHWHdNPVrNG/58V+f/vv71XzEHR07zKbRXvniDqt2d/c2Evm208ts/wDfibZVKitYyMZRgdxpXxg8S6au3+0PtkX9y7i3/wDj9dro/wC0I3yLqelLs/v2jf8Asj14pRV8yOSWHpyPpOw+JHgrxD/r2W2lb/n4i2V0EPh7SNVTfp2oK/8AuS76+TPMqxZ6lPYPutp5LZ/+mT7KvljL4jH2dSl/DkfUFz4JuYd/lMr/APAaz5tBvIfvQN/wBq8d0f4weJ9H2IuoNcov8Fwu+u10f9pCdNq6npkE3+3D8lZfV6UzWONxlL4veOl+zNC371ZU/wB+rcP+y67KNN+NPhDVfkn8ywdv76/JW7bXnhPW/mttTtHdv77Kj1hLBfynVTzr/n5Ez4f96iaFpt/lNsetv/hEYJl/0S+/74bfVebwxqtr80UsVyn+38lc0sNVgelTzHDVftHL/wBm20N+9zPZqlx937Qi/eqxM7bPvb0/vpVub7TZt/pNjOif39u9Ko/6Jc/6qVUf/YanGpKB0SjGfwlJ7/fvib79YWpSb62r+zZ/vbX/ANtPkesW5hb59y/8Dr0Y1uc45U+Q8v8AiF4Jg8SQ+bEqw3qL8su2vOdE0Ge8/wCJVKv2a4Vv87694vIfv/J89clr3h6V5UvrH9zqEXzK/wDe/wBiolSjOXMPmlGPKeWarpTaVPLbStv2/Lv/AL1VdEvP3dxp7/PE3zLXceIUi8SaW92i7LuL/Wp/c/v15pNN9jvElT+GvHxlDkkddCpzR94x9St/sd7LF/db5aqVveKof30Vyv3JVrBrzTpCiiigD2D4XP8A8U5/23b/ANkruI64X4X/APIuf9t2/wDZK7iOvZp/Ac/2i3D96rUdZ6/fq7C9VIqJYjq3DVSOrcL1BZp2dbVnWHbferate9c0izVhercL1Rjq3DWBZoQvWhDWfa96uw1AF5Hqwj1UjqXzKkomkr4q+K//ACULW/8Ar8avs93+Svir4lv53jrW2/6fGr0MJ8RyYj4TmpKZ5dPor2jyBnl0fMtFFAD0uZY/4qnTVXT761VooA0E1VXb+5VtLlX+61YPl0fdoM+U6DzKf5lc+lzLH/FVhNSlT7y0ByyNtJqd5z1lJqq/xVaW8if+JaCTRhvHhberMn+5W1pvjbV9N/1F9J/uO1c0ky/3qfuWgUowkeoaV8ctcsPknZZkrsNK/aBtpti3cDJXgPmUu7/boOeWHifU+m/FHw9rH/LdUf8A263oZtK1L/UTxv8A8Dr48Sb560LPW7uz/wBRcyJ/uNUSjCRcY1KXwyPrB9Eif/VNVSbR5Ur59034o65YbP8ASfOT/brrdN+PF2nyXMS1zSwlOfwnZTxuIh8R6n9mlh/ho+Zq5Sw+M2mXn+tVU/4FW3beOdGv/uzqlccsDKB3QzGP2jds0rpdKm2VyVnqtnN/qp1/76roLC5XZ96uGVCUT1aeJp1TVvJt6Vz9ynzvWtNc70rJuu1YcpRmzJ89UXStCaqTffoAZ5NRPDVumOlBBXS1qVIfkqwiU9EqwMS5tvmpvk/JV25T56Z/DQBmva1n3Nt81brpVSaHe9UBmpa05LOtNLOrcNnQBkpZ1MlnWwlhVhLCgDESzqVLOttNNqVLCgZipYVaTTa24dNq3DptAjnP7L/2aim0r/ZrsEsKY+m/7NAHCTaP/s1Sm0r/AGa9Am03/ZrPm0f/AGasDgptN/2az5tNV/4a7q50pv7tZVzpr0AcPc6DazffiWsS88Dadc7/AN0tehzWP+zVKaz77armA8nv/hXaTb9i1zN/8JWX/V7q92e1qu9nVc0hcsT5xvPh1qFrv2LvrCufDd9bfegavqCbTVf+GqVz4egm+/Er1fMZ+zPlqazlh+9G1Q+XX0neeALS5/5YLXOX/wAJYJt/lLso92Qckjw/y6btr0+/+E88O9oq5+5+Hupw/ci31Hs4knH0/wA51/irTudBvrbf5ttKn/AapNbsn3lb/vmsfZlcwiX8sdXrbxDPD/G1Znl0yqjUqQI5YyOptvFX/PVVetqw8W+T/qLye2/2N3yV55T9xX+KuiOMl9oy9jE9gtvGE7p+9+zXif7fyPV2HxDp03+ts57Z/wC/F86V4xFfSx/x1pW3iS5h/wCWtdccVTl8RHs5R+E9jhaxv/8AUX0b/wCxN8j0ybRH/jgV/wDcrzK28VLJ/rVWtrTfFUUP+ovJbb/Y3V0x9jP4ZEc1SB1D2HkvuRpYaek13D/y1WZf7j1StvGEr/entrn/AH/ketKHXrab/X2cqf7cXz0exM/bD01L/nvbMn+3FXS+HvH+q6JMjabrlzZ/7Dy/JXOpNplz/qrxUf8AuO2yh9N8z7jRzVlKgbRrn0L4V/ax8Y6IiRX3larF/f8A469o8JftdeHtY2LqcUumy/7f3K+D/s09t8y+bD/ufcq3baxc2zfP5dyn+3WMqJ0xrH6e6J8RdD8QxbtO1CC5/wBxq2/7Qif7u3/fr8ydE8bLZyo++ewdf40avW/B/wAeNa01ESDWlvIv+eVw2+sOU2jUPuD7V7UedXgXhv8AaNgmRF1O02P/AH4mr0jQ/iRoetqj219Fv/uO1Sbcx3HnUedWYl/E6fK6/wDfVSpc/LQaF7zqd51Z/nUedQZGh51HnVn+dR51AGn51P8AOrJ86pvOoA0vOo86s3zqd51AGh51HnVS86jzqg1LvnU/zqz/ADqPOoA0POo86s/zqPOoA0POo86s/wAyn+dQBd86jzqpeZR5lAF3zqPOql5lO8ygC35lHnVU8yjzKALHmUeZVfzKPMoAm86jzKr+ZR5lAFjzKZ5lReZR5lAFjzqPOqu77FrjPG3xX0PwHas13Os1x/Dbo296AO1vL+Cwt3ubmdYbdV3b3rwL4nftOMn2jTPCEW9/utfP9xf9yvKfHnxO1z4hXT+a0ltp/wDDaRN/6FXCzapYwy/ZkZr+4X/l005d+3/feq5TCUia8ubnWL+W8vp5dVvW+Zndt9VNSeKwXddywQ/3Uf8A+ISql/rcqN5EtzHpW/8A5dLH57hv+B1iXl5baSu9/s2mu3/LW+b7RcN/wCtDEsalfreJ/qLl4v78qvsb/cRK5+a8n+5BF5Kf9dUR/wDvhFqb7T9v3ywW0l5/0932/Y3+4lS22ianfps/0l0/uIiW6f8A2VQBjvbO/wDrWX/gbP8A/YUyGFE/5a7P9yLZXW2fgO5/54QJ/wCP/wDodacPw9lf+7v/AN2oA4LYr/8ALXf/AL7JXFfEXW2s7WKxiZU8372z+Ba9tv8A4e3kNu7QKr/7FfNvxEkdvFFxBImx7dfJ2Ou3btrCpIsl8A2f2jULiZj9xdu+u117Ul02x3M3yVlfDuwVNH8//nqzUzxlpc+sPbwQTxw7fm2O33mr5GrH61jeRnfH91SGaPryXz7k+/8AxJXTf8fMLo33GXbXmUNtqHhu+SS5gZIvu7/4GWvQtLvFubdJVbelVjaPsZc0Qpy5zz3UvD2rpfS232Oe5df44YnfdUN/Z3OiTpbXcWyVolZk/u703J/469ewQ3ksKo8M8sL/AHv3Urp/6BXC+MNB1nxP4jee00pvK2qitEvyfL/er18Hi/rHunHUp8h2Xwx8W+GPBmg/2nqGmRarqrS/uk1CX/RootifwJ8zN8z1reIf2pNXubJ9O0+eSzsmX5rTSVSyt/8Axz73/AkridB+CGq37I99crbJ/cT53r0XQfg5oum7GltmuZf783z16XMyOVnlv/CW+KvEkv8AxL4Gtt/8dpF8/wD39fe3/j9aWm/BzXNYl+0anc7N33ndt717tZ6JBZqiwQKif7C1dS12UczLjE830T4LaNpuxp1a5b/prXa2HhixsF2xWyon+wtbCQ7KmRKg25Yn/9k=;" vertex="1" parent="1">
          <mxGeometry x="-20" y="70" width="1408" height="768" as="geometry" />
        </mxCell>
        <mxCell id="0Q9RwSlWG3deikkum8Ub-10" value="ПЕРСОНАЛЬНЫЙ ПОМОЩНИК СТУДЕНТА" style="text;strokeColor=none;fillColor=none;align=center;verticalAlign=middle;rounded=0;fontStyle=2;fontSize=50;labelBackgroundColor=none;labelBorderColor=none;fontFamily=Times New Roman;horizontal=1;glass=1;absoluteArcSize=0;sketch=1;curveFitting=1;jiggle=2;fontColor=#ffffff;fillStyle=hachure;opacity=40;html=1;whiteSpace=wrap;" vertex="1" parent="1">
          <mxGeometry x="610" y="364" width="770" height="100" as="geometry" />
        </mxCell>
      </root>
    </mxGraphModel>
  </diagram>
</mxfile>
